0
SECTION
2
HEADER
9
$INSUNITS
70
4
0
ENDSEC
0
SECTION
2
ENTITIES
0
LINE
8
OUTLINE
10
0
20
0
30
0
11
320
21
0
31
0
0
LINE
8
OUTLINE
10
320
20
0
30
0
11
320
21
320
31
0
0
LINE
8
OUTLINE
10
320
20
320
30
0
11
0
21
320
31
0
0
LINE
8
OUTLINE
10
0
20
320
30
0
11
0
21
0
31
0
0
CIRCLE
8
HOLES
10
12
20
12.0
30
0
40
2
0
CIRCLE
8
HOLES
10
18
20
12.0
30
0
40
2
0
CIRCLE
8
HOLES
10
24
20
12.0
30
0
40
2
0
CIRCLE
8
HOLES
10
30
20
12.0
30
0
40
2
0
CIRCLE
8
HOLES
10
36
20
12.0
30
0
40
2
0
CIRCLE
8
HOLES
10
42
20
12.0
30
0
40
2
0
CIRCLE
8
HOLES
10
48
20
12.0
30
0
40
2
0
CIRCLE
8
HOLES
10
54
20
12.0
30
0
40
2
0
CIRCLE
8
HOLES
10
60
20
12.0
30
0
40
2
0
CIRCLE
8
HOLES
10
66
20
12.0
30
0
40
2
0
CIRCLE
8
HOLES
10
72
20
12.0
30
0
40
2
0
CIRCLE
8
HOLES
10
78
20
12.0
30
0
40
2
0
CIRCLE
8
HOLES
10
84
20
12.0
30
0
40
2
0
CIRCLE
8
HOLES
10
90
20
12.0
30
0
40
2
0
CIRCLE
8
HOLES
10
96
20
12.0
30
0
40
2
0
CIRCLE
8
HOLES
10
102
20
12.0
30
0
40
2
0
CIRCLE
8
HOLES
10
108
20
12.0
30
0
40
2
0
CIRCLE
8
HOLES
10
114
20
12.0
30
0
40
2
0
CIRCLE
8
HOLES
10
120
20
12.0
30
0
40
2
0
CIRCLE
8
HOLES
10
126
20
12.0
30
0
40
2
0
CIRCLE
8
HOLES
10
132
20
12.0
30
0
40
2
0
CIRCLE
8
HOLES
10
138
20
12.0
30
0
40
2
0
CIRCLE
8
HOLES
10
144
20
12.0
30
0
40
2
0
CIRCLE
8
HOLES
10
150
20
12.0
30
0
40
2
0
CIRCLE
8
HOLES
10
156
20
12.0
30
0
40
2
0
CIRCLE
8
HOLES
10
162
20
12.0
30
0
40
2
0
CIRCLE
8
HOLES
10
168
20
12.0
30
0
40
2
0
CIRCLE
8
HOLES
10
174
20
12.0
30
0
40
2
0
CIRCLE
8
HOLES
10
180
20
12.0
30
0
40
2
0
CIRCLE
8
HOLES
10
186
20
12.0
30
0
40
2
0
CIRCLE
8
HOLES
10
192
20
12.0
30
0
40
2
0
CIRCLE
8
HOLES
10
198
20
12.0
30
0
40
2
0
CIRCLE
8
HOLES
10
204
20
12.0
30
0
40
2
0
CIRCLE
8
HOLES
10
210
20
12.0
30
0
40
2
0
CIRCLE
8
HOLES
10
216
20
12.0
30
0
40
2
0
CIRCLE
8
HOLES
10
222
20
12.0
30
0
40
2
0
CIRCLE
8
HOLES
10
228
20
12.0
30
0
40
2
0
CIRCLE
8
HOLES
10
234
20
12.0
30
0
40
2
0
CIRCLE
8
HOLES
10
240
20
12.0
30
0
40
2
0
CIRCLE
8
HOLES
10
246
20
12.0
30
0
40
2
0
CIRCLE
8
HOLES
10
252
20
12.0
30
0
40
2
0
CIRCLE
8
HOLES
10
258
20
12.0
30
0
40
2
0
CIRCLE
8
HOLES
10
264
20
12.0
30
0
40
2
0
CIRCLE
8
HOLES
10
270
20
12.0
30
0
40
2
0
CIRCLE
8
HOLES
10
276
20
12.0
30
0
40
2
0
CIRCLE
8
HOLES
10
282
20
12.0
30
0
40
2
0
CIRCLE
8
HOLES
10
288
20
12.0
30
0
40
2
0
CIRCLE
8
HOLES
10
294
20
12.0
30
0
40
2
0
CIRCLE
8
HOLES
10
300
20
12.0
30
0
40
2
0
CIRCLE
8
HOLES
10
306
20
12.0
30
0
40
2
0
CIRCLE
8
HOLES
10
15
20
17.196152422706632
30
0
40
2
0
CIRCLE
8
HOLES
10
21
20
17.196152422706632
30
0
40
2
0
CIRCLE
8
HOLES
10
27
20
17.196152422706632
30
0
40
2
0
CIRCLE
8
HOLES
10
33
20
17.196152422706632
30
0
40
2
0
CIRCLE
8
HOLES
10
39
20
17.196152422706632
30
0
40
2
0
CIRCLE
8
HOLES
10
45
20
17.196152422706632
30
0
40
2
0
CIRCLE
8
HOLES
10
51
20
17.196152422706632
30
0
40
2
0
CIRCLE
8
HOLES
10
57
20
17.196152422706632
30
0
40
2
0
CIRCLE
8
HOLES
10
63
20
17.196152422706632
30
0
40
2
0
CIRCLE
8
HOLES
10
69
20
17.196152422706632
30
0
40
2
0
CIRCLE
8
HOLES
10
75
20
17.196152422706632
30
0
40
2
0
CIRCLE
8
HOLES
10
81
20
17.196152422706632
30
0
40
2
0
CIRCLE
8
HOLES
10
87
20
17.196152422706632
30
0
40
2
0
CIRCLE
8
HOLES
10
93
20
17.196152422706632
30
0
40
2
0
CIRCLE
8
HOLES
10
99
20
17.196152422706632
30
0
40
2
0
CIRCLE
8
HOLES
10
105
20
17.196152422706632
30
0
40
2
0
CIRCLE
8
HOLES
10
111
20
17.196152422706632
30
0
40
2
0
CIRCLE
8
HOLES
10
117
20
17.196152422706632
30
0
40
2
0
CIRCLE
8
HOLES
10
123
20
17.196152422706632
30
0
40
2
0
CIRCLE
8
HOLES
10
129
20
17.196152422706632
30
0
40
2
0
CIRCLE
8
HOLES
10
135
20
17.196152422706632
30
0
40
2
0
CIRCLE
8
HOLES
10
141
20
17.196152422706632
30
0
40
2
0
CIRCLE
8
HOLES
10
147
20
17.196152422706632
30
0
40
2
0
CIRCLE
8
HOLES
10
153
20
17.196152422706632
30
0
40
2
0
CIRCLE
8
HOLES
10
159
20
17.196152422706632
30
0
40
2
0
CIRCLE
8
HOLES
10
165
20
17.196152422706632
30
0
40
2
0
CIRCLE
8
HOLES
10
171
20
17.196152422706632
30
0
40
2
0
CIRCLE
8
HOLES
10
177
20
17.196152422706632
30
0
40
2
0
CIRCLE
8
HOLES
10
183
20
17.196152422706632
30
0
40
2
0
CIRCLE
8
HOLES
10
189
20
17.196152422706632
30
0
40
2
0
CIRCLE
8
HOLES
10
195
20
17.196152422706632
30
0
40
2
0
CIRCLE
8
HOLES
10
201
20
17.196152422706632
30
0
40
2
0
CIRCLE
8
HOLES
10
207
20
17.196152422706632
30
0
40
2
0
CIRCLE
8
HOLES
10
213
20
17.196152422706632
30
0
40
2
0
CIRCLE
8
HOLES
10
219
20
17.196152422706632
30
0
40
2
0
CIRCLE
8
HOLES
10
225
20
17.196152422706632
30
0
40
2
0
CIRCLE
8
HOLES
10
231
20
17.196152422706632
30
0
40
2
0
CIRCLE
8
HOLES
10
237
20
17.196152422706632
30
0
40
2
0
CIRCLE
8
HOLES
10
243
20
17.196152422706632
30
0
40
2
0
CIRCLE
8
HOLES
10
249
20
17.196152422706632
30
0
40
2
0
CIRCLE
8
HOLES
10
255
20
17.196152422706632
30
0
40
2
0
CIRCLE
8
HOLES
10
261
20
17.196152422706632
30
0
40
2
0
CIRCLE
8
HOLES
10
267
20
17.196152422706632
30
0
40
2
0
CIRCLE
8
HOLES
10
273
20
17.196152422706632
30
0
40
2
0
CIRCLE
8
HOLES
10
279
20
17.196152422706632
30
0
40
2
0
CIRCLE
8
HOLES
10
285
20
17.196152422706632
30
0
40
2
0
CIRCLE
8
HOLES
10
291
20
17.196152422706632
30
0
40
2
0
CIRCLE
8
HOLES
10
297
20
17.196152422706632
30
0
40
2
0
CIRCLE
8
HOLES
10
303
20
17.196152422706632
30
0
40
2
0
CIRCLE
8
HOLES
10
12
20
22.392304845413264
30
0
40
2
0
CIRCLE
8
HOLES
10
18
20
22.392304845413264
30
0
40
2
0
CIRCLE
8
HOLES
10
24
20
22.392304845413264
30
0
40
2
0
CIRCLE
8
HOLES
10
30
20
22.392304845413264
30
0
40
2
0
CIRCLE
8
HOLES
10
36
20
22.392304845413264
30
0
40
2
0
CIRCLE
8
HOLES
10
42
20
22.392304845413264
30
0
40
2
0
CIRCLE
8
HOLES
10
48
20
22.392304845413264
30
0
40
2
0
CIRCLE
8
HOLES
10
54
20
22.392304845413264
30
0
40
2
0
CIRCLE
8
HOLES
10
60
20
22.392304845413264
30
0
40
2
0
CIRCLE
8
HOLES
10
66
20
22.392304845413264
30
0
40
2
0
CIRCLE
8
HOLES
10
72
20
22.392304845413264
30
0
40
2
0
CIRCLE
8
HOLES
10
78
20
22.392304845413264
30
0
40
2
0
CIRCLE
8
HOLES
10
84
20
22.392304845413264
30
0
40
2
0
CIRCLE
8
HOLES
10
90
20
22.392304845413264
30
0
40
2
0
CIRCLE
8
HOLES
10
96
20
22.392304845413264
30
0
40
2
0
CIRCLE
8
HOLES
10
102
20
22.392304845413264
30
0
40
2
0
CIRCLE
8
HOLES
10
108
20
22.392304845413264
30
0
40
2
0
CIRCLE
8
HOLES
10
114
20
22.392304845413264
30
0
40
2
0
CIRCLE
8
HOLES
10
120
20
22.392304845413264
30
0
40
2
0
CIRCLE
8
HOLES
10
126
20
22.392304845413264
30
0
40
2
0
CIRCLE
8
HOLES
10
132
20
22.392304845413264
30
0
40
2
0
CIRCLE
8
HOLES
10
138
20
22.392304845413264
30
0
40
2
0
CIRCLE
8
HOLES
10
144
20
22.392304845413264
30
0
40
2
0
CIRCLE
8
HOLES
10
150
20
22.392304845413264
30
0
40
2
0
CIRCLE
8
HOLES
10
156
20
22.392304845413264
30
0
40
2
0
CIRCLE
8
HOLES
10
162
20
22.392304845413264
30
0
40
2
0
CIRCLE
8
HOLES
10
168
20
22.392304845413264
30
0
40
2
0
CIRCLE
8
HOLES
10
174
20
22.392304845413264
30
0
40
2
0
CIRCLE
8
HOLES
10
180
20
22.392304845413264
30
0
40
2
0
CIRCLE
8
HOLES
10
186
20
22.392304845413264
30
0
40
2
0
CIRCLE
8
HOLES
10
192
20
22.392304845413264
30
0
40
2
0
CIRCLE
8
HOLES
10
198
20
22.392304845413264
30
0
40
2
0
CIRCLE
8
HOLES
10
204
20
22.392304845413264
30
0
40
2
0
CIRCLE
8
HOLES
10
210
20
22.392304845413264
30
0
40
2
0
CIRCLE
8
HOLES
10
216
20
22.392304845413264
30
0
40
2
0
CIRCLE
8
HOLES
10
222
20
22.392304845413264
30
0
40
2
0
CIRCLE
8
HOLES
10
228
20
22.392304845413264
30
0
40
2
0
CIRCLE
8
HOLES
10
234
20
22.392304845413264
30
0
40
2
0
CIRCLE
8
HOLES
10
240
20
22.392304845413264
30
0
40
2
0
CIRCLE
8
HOLES
10
246
20
22.392304845413264
30
0
40
2
0
CIRCLE
8
HOLES
10
252
20
22.392304845413264
30
0
40
2
0
CIRCLE
8
HOLES
10
258
20
22.392304845413264
30
0
40
2
0
CIRCLE
8
HOLES
10
264
20
22.392304845413264
30
0
40
2
0
CIRCLE
8
HOLES
10
270
20
22.392304845413264
30
0
40
2
0
CIRCLE
8
HOLES
10
276
20
22.392304845413264
30
0
40
2
0
CIRCLE
8
HOLES
10
282
20
22.392304845413264
30
0
40
2
0
CIRCLE
8
HOLES
10
288
20
22.392304845413264
30
0
40
2
0
CIRCLE
8
HOLES
10
294
20
22.392304845413264
30
0
40
2
0
CIRCLE
8
HOLES
10
300
20
22.392304845413264
30
0
40
2
0
CIRCLE
8
HOLES
10
306
20
22.392304845413264
30
0
40
2
0
CIRCLE
8
HOLES
10
15
20
27.588457268119896
30
0
40
2
0
CIRCLE
8
HOLES
10
21
20
27.588457268119896
30
0
40
2
0
CIRCLE
8
HOLES
10
27
20
27.588457268119896
30
0
40
2
0
CIRCLE
8
HOLES
10
33
20
27.588457268119896
30
0
40
2
0
CIRCLE
8
HOLES
10
39
20
27.588457268119896
30
0
40
2
0
CIRCLE
8
HOLES
10
45
20
27.588457268119896
30
0
40
2
0
CIRCLE
8
HOLES
10
51
20
27.588457268119896
30
0
40
2
0
CIRCLE
8
HOLES
10
57
20
27.588457268119896
30
0
40
2
0
CIRCLE
8
HOLES
10
63
20
27.588457268119896
30
0
40
2
0
CIRCLE
8
HOLES
10
69
20
27.588457268119896
30
0
40
2
0
CIRCLE
8
HOLES
10
75
20
27.588457268119896
30
0
40
2
0
CIRCLE
8
HOLES
10
81
20
27.588457268119896
30
0
40
2
0
CIRCLE
8
HOLES
10
87
20
27.588457268119896
30
0
40
2
0
CIRCLE
8
HOLES
10
93
20
27.588457268119896
30
0
40
2
0
CIRCLE
8
HOLES
10
99
20
27.588457268119896
30
0
40
2
0
CIRCLE
8
HOLES
10
105
20
27.588457268119896
30
0
40
2
0
CIRCLE
8
HOLES
10
111
20
27.588457268119896
30
0
40
2
0
CIRCLE
8
HOLES
10
117
20
27.588457268119896
30
0
40
2
0
CIRCLE
8
HOLES
10
123
20
27.588457268119896
30
0
40
2
0
CIRCLE
8
HOLES
10
129
20
27.588457268119896
30
0
40
2
0
CIRCLE
8
HOLES
10
135
20
27.588457268119896
30
0
40
2
0
CIRCLE
8
HOLES
10
141
20
27.588457268119896
30
0
40
2
0
CIRCLE
8
HOLES
10
147
20
27.588457268119896
30
0
40
2
0
CIRCLE
8
HOLES
10
153
20
27.588457268119896
30
0
40
2
0
CIRCLE
8
HOLES
10
159
20
27.588457268119896
30
0
40
2
0
CIRCLE
8
HOLES
10
165
20
27.588457268119896
30
0
40
2
0
CIRCLE
8
HOLES
10
171
20
27.588457268119896
30
0
40
2
0
CIRCLE
8
HOLES
10
177
20
27.588457268119896
30
0
40
2
0
CIRCLE
8
HOLES
10
183
20
27.588457268119896
30
0
40
2
0
CIRCLE
8
HOLES
10
189
20
27.588457268119896
30
0
40
2
0
CIRCLE
8
HOLES
10
195
20
27.588457268119896
30
0
40
2
0
CIRCLE
8
HOLES
10
201
20
27.588457268119896
30
0
40
2
0
CIRCLE
8
HOLES
10
207
20
27.588457268119896
30
0
40
2
0
CIRCLE
8
HOLES
10
213
20
27.588457268119896
30
0
40
2
0
CIRCLE
8
HOLES
10
219
20
27.588457268119896
30
0
40
2
0
CIRCLE
8
HOLES
10
225
20
27.588457268119896
30
0
40
2
0
CIRCLE
8
HOLES
10
231
20
27.588457268119896
30
0
40
2
0
CIRCLE
8
HOLES
10
237
20
27.588457268119896
30
0
40
2
0
CIRCLE
8
HOLES
10
243
20
27.588457268119896
30
0
40
2
0
CIRCLE
8
HOLES
10
249
20
27.588457268119896
30
0
40
2
0
CIRCLE
8
HOLES
10
255
20
27.588457268119896
30
0
40
2
0
CIRCLE
8
HOLES
10
261
20
27.588457268119896
30
0
40
2
0
CIRCLE
8
HOLES
10
267
20
27.588457268119896
30
0
40
2
0
CIRCLE
8
HOLES
10
273
20
27.588457268119896
30
0
40
2
0
CIRCLE
8
HOLES
10
279
20
27.588457268119896
30
0
40
2
0
CIRCLE
8
HOLES
10
285
20
27.588457268119896
30
0
40
2
0
CIRCLE
8
HOLES
10
291
20
27.588457268119896
30
0
40
2
0
CIRCLE
8
HOLES
10
297
20
27.588457268119896
30
0
40
2
0
CIRCLE
8
HOLES
10
303
20
27.588457268119896
30
0
40
2
0
CIRCLE
8
HOLES
10
12
20
32.78460969082653
30
0
40
2
0
CIRCLE
8
HOLES
10
18
20
32.78460969082653
30
0
40
2
0
CIRCLE
8
HOLES
10
24
20
32.78460969082653
30
0
40
2
0
CIRCLE
8
HOLES
10
30
20
32.78460969082653
30
0
40
2
0
CIRCLE
8
HOLES
10
36
20
32.78460969082653
30
0
40
2
0
CIRCLE
8
HOLES
10
42
20
32.78460969082653
30
0
40
2
0
CIRCLE
8
HOLES
10
48
20
32.78460969082653
30
0
40
2
0
CIRCLE
8
HOLES
10
54
20
32.78460969082653
30
0
40
2
0
CIRCLE
8
HOLES
10
60
20
32.78460969082653
30
0
40
2
0
CIRCLE
8
HOLES
10
66
20
32.78460969082653
30
0
40
2
0
CIRCLE
8
HOLES
10
72
20
32.78460969082653
30
0
40
2
0
CIRCLE
8
HOLES
10
78
20
32.78460969082653
30
0
40
2
0
CIRCLE
8
HOLES
10
84
20
32.78460969082653
30
0
40
2
0
CIRCLE
8
HOLES
10
90
20
32.78460969082653
30
0
40
2
0
CIRCLE
8
HOLES
10
96
20
32.78460969082653
30
0
40
2
0
CIRCLE
8
HOLES
10
102
20
32.78460969082653
30
0
40
2
0
CIRCLE
8
HOLES
10
108
20
32.78460969082653
30
0
40
2
0
CIRCLE
8
HOLES
10
114
20
32.78460969082653
30
0
40
2
0
CIRCLE
8
HOLES
10
120
20
32.78460969082653
30
0
40
2
0
CIRCLE
8
HOLES
10
126
20
32.78460969082653
30
0
40
2
0
CIRCLE
8
HOLES
10
132
20
32.78460969082653
30
0
40
2
0
CIRCLE
8
HOLES
10
138
20
32.78460969082653
30
0
40
2
0
CIRCLE
8
HOLES
10
144
20
32.78460969082653
30
0
40
2
0
CIRCLE
8
HOLES
10
150
20
32.78460969082653
30
0
40
2
0
CIRCLE
8
HOLES
10
156
20
32.78460969082653
30
0
40
2
0
CIRCLE
8
HOLES
10
162
20
32.78460969082653
30
0
40
2
0
CIRCLE
8
HOLES
10
168
20
32.78460969082653
30
0
40
2
0
CIRCLE
8
HOLES
10
174
20
32.78460969082653
30
0
40
2
0
CIRCLE
8
HOLES
10
180
20
32.78460969082653
30
0
40
2
0
CIRCLE
8
HOLES
10
186
20
32.78460969082653
30
0
40
2
0
CIRCLE
8
HOLES
10
192
20
32.78460969082653
30
0
40
2
0
CIRCLE
8
HOLES
10
198
20
32.78460969082653
30
0
40
2
0
CIRCLE
8
HOLES
10
204
20
32.78460969082653
30
0
40
2
0
CIRCLE
8
HOLES
10
210
20
32.78460969082653
30
0
40
2
0
CIRCLE
8
HOLES
10
216
20
32.78460969082653
30
0
40
2
0
CIRCLE
8
HOLES
10
222
20
32.78460969082653
30
0
40
2
0
CIRCLE
8
HOLES
10
228
20
32.78460969082653
30
0
40
2
0
CIRCLE
8
HOLES
10
234
20
32.78460969082653
30
0
40
2
0
CIRCLE
8
HOLES
10
240
20
32.78460969082653
30
0
40
2
0
CIRCLE
8
HOLES
10
246
20
32.78460969082653
30
0
40
2
0
CIRCLE
8
HOLES
10
252
20
32.78460969082653
30
0
40
2
0
CIRCLE
8
HOLES
10
258
20
32.78460969082653
30
0
40
2
0
CIRCLE
8
HOLES
10
264
20
32.78460969082653
30
0
40
2
0
CIRCLE
8
HOLES
10
270
20
32.78460969082653
30
0
40
2
0
CIRCLE
8
HOLES
10
276
20
32.78460969082653
30
0
40
2
0
CIRCLE
8
HOLES
10
282
20
32.78460969082653
30
0
40
2
0
CIRCLE
8
HOLES
10
288
20
32.78460969082653
30
0
40
2
0
CIRCLE
8
HOLES
10
294
20
32.78460969082653
30
0
40
2
0
CIRCLE
8
HOLES
10
300
20
32.78460969082653
30
0
40
2
0
CIRCLE
8
HOLES
10
306
20
32.78460969082653
30
0
40
2
0
CIRCLE
8
HOLES
10
15
20
37.98076211353316
30
0
40
2
0
CIRCLE
8
HOLES
10
21
20
37.98076211353316
30
0
40
2
0
CIRCLE
8
HOLES
10
27
20
37.98076211353316
30
0
40
2
0
CIRCLE
8
HOLES
10
33
20
37.98076211353316
30
0
40
2
0
CIRCLE
8
HOLES
10
39
20
37.98076211353316
30
0
40
2
0
CIRCLE
8
HOLES
10
45
20
37.98076211353316
30
0
40
2
0
CIRCLE
8
HOLES
10
51
20
37.98076211353316
30
0
40
2
0
CIRCLE
8
HOLES
10
57
20
37.98076211353316
30
0
40
2
0
CIRCLE
8
HOLES
10
63
20
37.98076211353316
30
0
40
2
0
CIRCLE
8
HOLES
10
69
20
37.98076211353316
30
0
40
2
0
CIRCLE
8
HOLES
10
75
20
37.98076211353316
30
0
40
2
0
CIRCLE
8
HOLES
10
81
20
37.98076211353316
30
0
40
2
0
CIRCLE
8
HOLES
10
87
20
37.98076211353316
30
0
40
2
0
CIRCLE
8
HOLES
10
93
20
37.98076211353316
30
0
40
2
0
CIRCLE
8
HOLES
10
99
20
37.98076211353316
30
0
40
2
0
CIRCLE
8
HOLES
10
105
20
37.98076211353316
30
0
40
2
0
CIRCLE
8
HOLES
10
111
20
37.98076211353316
30
0
40
2
0
CIRCLE
8
HOLES
10
117
20
37.98076211353316
30
0
40
2
0
CIRCLE
8
HOLES
10
123
20
37.98076211353316
30
0
40
2
0
CIRCLE
8
HOLES
10
129
20
37.98076211353316
30
0
40
2
0
CIRCLE
8
HOLES
10
135
20
37.98076211353316
30
0
40
2
0
CIRCLE
8
HOLES
10
141
20
37.98076211353316
30
0
40
2
0
CIRCLE
8
HOLES
10
147
20
37.98076211353316
30
0
40
2
0
CIRCLE
8
HOLES
10
153
20
37.98076211353316
30
0
40
2
0
CIRCLE
8
HOLES
10
159
20
37.98076211353316
30
0
40
2
0
CIRCLE
8
HOLES
10
165
20
37.98076211353316
30
0
40
2
0
CIRCLE
8
HOLES
10
171
20
37.98076211353316
30
0
40
2
0
CIRCLE
8
HOLES
10
177
20
37.98076211353316
30
0
40
2
0
CIRCLE
8
HOLES
10
183
20
37.98076211353316
30
0
40
2
0
CIRCLE
8
HOLES
10
189
20
37.98076211353316
30
0
40
2
0
CIRCLE
8
HOLES
10
195
20
37.98076211353316
30
0
40
2
0
CIRCLE
8
HOLES
10
201
20
37.98076211353316
30
0
40
2
0
CIRCLE
8
HOLES
10
207
20
37.98076211353316
30
0
40
2
0
CIRCLE
8
HOLES
10
213
20
37.98076211353316
30
0
40
2
0
CIRCLE
8
HOLES
10
219
20
37.98076211353316
30
0
40
2
0
CIRCLE
8
HOLES
10
225
20
37.98076211353316
30
0
40
2
0
CIRCLE
8
HOLES
10
231
20
37.98076211353316
30
0
40
2
0
CIRCLE
8
HOLES
10
237
20
37.98076211353316
30
0
40
2
0
CIRCLE
8
HOLES
10
243
20
37.98076211353316
30
0
40
2
0
CIRCLE
8
HOLES
10
249
20
37.98076211353316
30
0
40
2
0
CIRCLE
8
HOLES
10
255
20
37.98076211353316
30
0
40
2
0
CIRCLE
8
HOLES
10
261
20
37.98076211353316
30
0
40
2
0
CIRCLE
8
HOLES
10
267
20
37.98076211353316
30
0
40
2
0
CIRCLE
8
HOLES
10
273
20
37.98076211353316
30
0
40
2
0
CIRCLE
8
HOLES
10
279
20
37.98076211353316
30
0
40
2
0
CIRCLE
8
HOLES
10
285
20
37.98076211353316
30
0
40
2
0
CIRCLE
8
HOLES
10
291
20
37.98076211353316
30
0
40
2
0
CIRCLE
8
HOLES
10
297
20
37.98076211353316
30
0
40
2
0
CIRCLE
8
HOLES
10
303
20
37.98076211353316
30
0
40
2
0
CIRCLE
8
HOLES
10
12
20
43.17691453623979
30
0
40
2
0
CIRCLE
8
HOLES
10
18
20
43.17691453623979
30
0
40
2
0
CIRCLE
8
HOLES
10
24
20
43.17691453623979
30
0
40
2
0
CIRCLE
8
HOLES
10
30
20
43.17691453623979
30
0
40
2
0
CIRCLE
8
HOLES
10
36
20
43.17691453623979
30
0
40
2
0
CIRCLE
8
HOLES
10
42
20
43.17691453623979
30
0
40
2
0
CIRCLE
8
HOLES
10
48
20
43.17691453623979
30
0
40
2
0
CIRCLE
8
HOLES
10
54
20
43.17691453623979
30
0
40
2
0
CIRCLE
8
HOLES
10
60
20
43.17691453623979
30
0
40
2
0
CIRCLE
8
HOLES
10
66
20
43.17691453623979
30
0
40
2
0
CIRCLE
8
HOLES
10
72
20
43.17691453623979
30
0
40
2
0
CIRCLE
8
HOLES
10
78
20
43.17691453623979
30
0
40
2
0
CIRCLE
8
HOLES
10
84
20
43.17691453623979
30
0
40
2
0
CIRCLE
8
HOLES
10
90
20
43.17691453623979
30
0
40
2
0
CIRCLE
8
HOLES
10
96
20
43.17691453623979
30
0
40
2
0
CIRCLE
8
HOLES
10
102
20
43.17691453623979
30
0
40
2
0
CIRCLE
8
HOLES
10
108
20
43.17691453623979
30
0
40
2
0
CIRCLE
8
HOLES
10
114
20
43.17691453623979
30
0
40
2
0
CIRCLE
8
HOLES
10
120
20
43.17691453623979
30
0
40
2
0
CIRCLE
8
HOLES
10
126
20
43.17691453623979
30
0
40
2
0
CIRCLE
8
HOLES
10
132
20
43.17691453623979
30
0
40
2
0
CIRCLE
8
HOLES
10
138
20
43.17691453623979
30
0
40
2
0
CIRCLE
8
HOLES
10
144
20
43.17691453623979
30
0
40
2
0
CIRCLE
8
HOLES
10
150
20
43.17691453623979
30
0
40
2
0
CIRCLE
8
HOLES
10
156
20
43.17691453623979
30
0
40
2
0
CIRCLE
8
HOLES
10
162
20
43.17691453623979
30
0
40
2
0
CIRCLE
8
HOLES
10
168
20
43.17691453623979
30
0
40
2
0
CIRCLE
8
HOLES
10
174
20
43.17691453623979
30
0
40
2
0
CIRCLE
8
HOLES
10
180
20
43.17691453623979
30
0
40
2
0
CIRCLE
8
HOLES
10
186
20
43.17691453623979
30
0
40
2
0
CIRCLE
8
HOLES
10
192
20
43.17691453623979
30
0
40
2
0
CIRCLE
8
HOLES
10
198
20
43.17691453623979
30
0
40
2
0
CIRCLE
8
HOLES
10
204
20
43.17691453623979
30
0
40
2
0
CIRCLE
8
HOLES
10
210
20
43.17691453623979
30
0
40
2
0
CIRCLE
8
HOLES
10
216
20
43.17691453623979
30
0
40
2
0
CIRCLE
8
HOLES
10
222
20
43.17691453623979
30
0
40
2
0
CIRCLE
8
HOLES
10
228
20
43.17691453623979
30
0
40
2
0
CIRCLE
8
HOLES
10
234
20
43.17691453623979
30
0
40
2
0
CIRCLE
8
HOLES
10
240
20
43.17691453623979
30
0
40
2
0
CIRCLE
8
HOLES
10
246
20
43.17691453623979
30
0
40
2
0
CIRCLE
8
HOLES
10
252
20
43.17691453623979
30
0
40
2
0
CIRCLE
8
HOLES
10
258
20
43.17691453623979
30
0
40
2
0
CIRCLE
8
HOLES
10
264
20
43.17691453623979
30
0
40
2
0
CIRCLE
8
HOLES
10
270
20
43.17691453623979
30
0
40
2
0
CIRCLE
8
HOLES
10
276
20
43.17691453623979
30
0
40
2
0
CIRCLE
8
HOLES
10
282
20
43.17691453623979
30
0
40
2
0
CIRCLE
8
HOLES
10
288
20
43.17691453623979
30
0
40
2
0
CIRCLE
8
HOLES
10
294
20
43.17691453623979
30
0
40
2
0
CIRCLE
8
HOLES
10
300
20
43.17691453623979
30
0
40
2
0
CIRCLE
8
HOLES
10
306
20
43.17691453623979
30
0
40
2
0
CIRCLE
8
HOLES
10
15
20
48.373066958946424
30
0
40
2
0
CIRCLE
8
HOLES
10
21
20
48.373066958946424
30
0
40
2
0
CIRCLE
8
HOLES
10
27
20
48.373066958946424
30
0
40
2
0
CIRCLE
8
HOLES
10
33
20
48.373066958946424
30
0
40
2
0
CIRCLE
8
HOLES
10
39
20
48.373066958946424
30
0
40
2
0
CIRCLE
8
HOLES
10
45
20
48.373066958946424
30
0
40
2
0
CIRCLE
8
HOLES
10
51
20
48.373066958946424
30
0
40
2
0
CIRCLE
8
HOLES
10
57
20
48.373066958946424
30
0
40
2
0
CIRCLE
8
HOLES
10
63
20
48.373066958946424
30
0
40
2
0
CIRCLE
8
HOLES
10
69
20
48.373066958946424
30
0
40
2
0
CIRCLE
8
HOLES
10
75
20
48.373066958946424
30
0
40
2
0
CIRCLE
8
HOLES
10
81
20
48.373066958946424
30
0
40
2
0
CIRCLE
8
HOLES
10
87
20
48.373066958946424
30
0
40
2
0
CIRCLE
8
HOLES
10
93
20
48.373066958946424
30
0
40
2
0
CIRCLE
8
HOLES
10
99
20
48.373066958946424
30
0
40
2
0
CIRCLE
8
HOLES
10
105
20
48.373066958946424
30
0
40
2
0
CIRCLE
8
HOLES
10
111
20
48.373066958946424
30
0
40
2
0
CIRCLE
8
HOLES
10
117
20
48.373066958946424
30
0
40
2
0
CIRCLE
8
HOLES
10
123
20
48.373066958946424
30
0
40
2
0
CIRCLE
8
HOLES
10
129
20
48.373066958946424
30
0
40
2
0
CIRCLE
8
HOLES
10
135
20
48.373066958946424
30
0
40
2
0
CIRCLE
8
HOLES
10
141
20
48.373066958946424
30
0
40
2
0
CIRCLE
8
HOLES
10
147
20
48.373066958946424
30
0
40
2
0
CIRCLE
8
HOLES
10
153
20
48.373066958946424
30
0
40
2
0
CIRCLE
8
HOLES
10
159
20
48.373066958946424
30
0
40
2
0
CIRCLE
8
HOLES
10
165
20
48.373066958946424
30
0
40
2
0
CIRCLE
8
HOLES
10
171
20
48.373066958946424
30
0
40
2
0
CIRCLE
8
HOLES
10
177
20
48.373066958946424
30
0
40
2
0
CIRCLE
8
HOLES
10
183
20
48.373066958946424
30
0
40
2
0
CIRCLE
8
HOLES
10
189
20
48.373066958946424
30
0
40
2
0
CIRCLE
8
HOLES
10
195
20
48.373066958946424
30
0
40
2
0
CIRCLE
8
HOLES
10
201
20
48.373066958946424
30
0
40
2
0
CIRCLE
8
HOLES
10
207
20
48.373066958946424
30
0
40
2
0
CIRCLE
8
HOLES
10
213
20
48.373066958946424
30
0
40
2
0
CIRCLE
8
HOLES
10
219
20
48.373066958946424
30
0
40
2
0
CIRCLE
8
HOLES
10
225
20
48.373066958946424
30
0
40
2
0
CIRCLE
8
HOLES
10
231
20
48.373066958946424
30
0
40
2
0
CIRCLE
8
HOLES
10
237
20
48.373066958946424
30
0
40
2
0
CIRCLE
8
HOLES
10
243
20
48.373066958946424
30
0
40
2
0
CIRCLE
8
HOLES
10
249
20
48.373066958946424
30
0
40
2
0
CIRCLE
8
HOLES
10
255
20
48.373066958946424
30
0
40
2
0
CIRCLE
8
HOLES
10
261
20
48.373066958946424
30
0
40
2
0
CIRCLE
8
HOLES
10
267
20
48.373066958946424
30
0
40
2
0
CIRCLE
8
HOLES
10
273
20
48.373066958946424
30
0
40
2
0
CIRCLE
8
HOLES
10
279
20
48.373066958946424
30
0
40
2
0
CIRCLE
8
HOLES
10
285
20
48.373066958946424
30
0
40
2
0
CIRCLE
8
HOLES
10
291
20
48.373066958946424
30
0
40
2
0
CIRCLE
8
HOLES
10
297
20
48.373066958946424
30
0
40
2
0
CIRCLE
8
HOLES
10
303
20
48.373066958946424
30
0
40
2
0
CIRCLE
8
HOLES
10
12
20
53.569219381653056
30
0
40
2
0
CIRCLE
8
HOLES
10
18
20
53.569219381653056
30
0
40
2
0
CIRCLE
8
HOLES
10
24
20
53.569219381653056
30
0
40
2
0
CIRCLE
8
HOLES
10
30
20
53.569219381653056
30
0
40
2
0
CIRCLE
8
HOLES
10
36
20
53.569219381653056
30
0
40
2
0
CIRCLE
8
HOLES
10
42
20
53.569219381653056
30
0
40
2
0
CIRCLE
8
HOLES
10
48
20
53.569219381653056
30
0
40
2
0
CIRCLE
8
HOLES
10
54
20
53.569219381653056
30
0
40
2
0
CIRCLE
8
HOLES
10
60
20
53.569219381653056
30
0
40
2
0
CIRCLE
8
HOLES
10
66
20
53.569219381653056
30
0
40
2
0
CIRCLE
8
HOLES
10
72
20
53.569219381653056
30
0
40
2
0
CIRCLE
8
HOLES
10
78
20
53.569219381653056
30
0
40
2
0
CIRCLE
8
HOLES
10
84
20
53.569219381653056
30
0
40
2
0
CIRCLE
8
HOLES
10
90
20
53.569219381653056
30
0
40
2
0
CIRCLE
8
HOLES
10
96
20
53.569219381653056
30
0
40
2
0
CIRCLE
8
HOLES
10
102
20
53.569219381653056
30
0
40
2
0
CIRCLE
8
HOLES
10
108
20
53.569219381653056
30
0
40
2
0
CIRCLE
8
HOLES
10
114
20
53.569219381653056
30
0
40
2
0
CIRCLE
8
HOLES
10
120
20
53.569219381653056
30
0
40
2
0
CIRCLE
8
HOLES
10
126
20
53.569219381653056
30
0
40
2
0
CIRCLE
8
HOLES
10
132
20
53.569219381653056
30
0
40
2
0
CIRCLE
8
HOLES
10
138
20
53.569219381653056
30
0
40
2
0
CIRCLE
8
HOLES
10
144
20
53.569219381653056
30
0
40
2
0
CIRCLE
8
HOLES
10
150
20
53.569219381653056
30
0
40
2
0
CIRCLE
8
HOLES
10
156
20
53.569219381653056
30
0
40
2
0
CIRCLE
8
HOLES
10
162
20
53.569219381653056
30
0
40
2
0
CIRCLE
8
HOLES
10
168
20
53.569219381653056
30
0
40
2
0
CIRCLE
8
HOLES
10
174
20
53.569219381653056
30
0
40
2
0
CIRCLE
8
HOLES
10
180
20
53.569219381653056
30
0
40
2
0
CIRCLE
8
HOLES
10
186
20
53.569219381653056
30
0
40
2
0
CIRCLE
8
HOLES
10
192
20
53.569219381653056
30
0
40
2
0
CIRCLE
8
HOLES
10
198
20
53.569219381653056
30
0
40
2
0
CIRCLE
8
HOLES
10
204
20
53.569219381653056
30
0
40
2
0
CIRCLE
8
HOLES
10
210
20
53.569219381653056
30
0
40
2
0
CIRCLE
8
HOLES
10
216
20
53.569219381653056
30
0
40
2
0
CIRCLE
8
HOLES
10
222
20
53.569219381653056
30
0
40
2
0
CIRCLE
8
HOLES
10
228
20
53.569219381653056
30
0
40
2
0
CIRCLE
8
HOLES
10
234
20
53.569219381653056
30
0
40
2
0
CIRCLE
8
HOLES
10
240
20
53.569219381653056
30
0
40
2
0
CIRCLE
8
HOLES
10
246
20
53.569219381653056
30
0
40
2
0
CIRCLE
8
HOLES
10
252
20
53.569219381653056
30
0
40
2
0
CIRCLE
8
HOLES
10
258
20
53.569219381653056
30
0
40
2
0
CIRCLE
8
HOLES
10
264
20
53.569219381653056
30
0
40
2
0
CIRCLE
8
HOLES
10
270
20
53.569219381653056
30
0
40
2
0
CIRCLE
8
HOLES
10
276
20
53.569219381653056
30
0
40
2
0
CIRCLE
8
HOLES
10
282
20
53.569219381653056
30
0
40
2
0
CIRCLE
8
HOLES
10
288
20
53.569219381653056
30
0
40
2
0
CIRCLE
8
HOLES
10
294
20
53.569219381653056
30
0
40
2
0
CIRCLE
8
HOLES
10
300
20
53.569219381653056
30
0
40
2
0
CIRCLE
8
HOLES
10
306
20
53.569219381653056
30
0
40
2
0
CIRCLE
8
HOLES
10
15
20
58.76537180435968
30
0
40
2
0
CIRCLE
8
HOLES
10
21
20
58.76537180435968
30
0
40
2
0
CIRCLE
8
HOLES
10
27
20
58.76537180435968
30
0
40
2
0
CIRCLE
8
HOLES
10
33
20
58.76537180435968
30
0
40
2
0
CIRCLE
8
HOLES
10
39
20
58.76537180435968
30
0
40
2
0
CIRCLE
8
HOLES
10
45
20
58.76537180435968
30
0
40
2
0
CIRCLE
8
HOLES
10
51
20
58.76537180435968
30
0
40
2
0
CIRCLE
8
HOLES
10
57
20
58.76537180435968
30
0
40
2
0
CIRCLE
8
HOLES
10
63
20
58.76537180435968
30
0
40
2
0
CIRCLE
8
HOLES
10
69
20
58.76537180435968
30
0
40
2
0
CIRCLE
8
HOLES
10
75
20
58.76537180435968
30
0
40
2
0
CIRCLE
8
HOLES
10
81
20
58.76537180435968
30
0
40
2
0
CIRCLE
8
HOLES
10
87
20
58.76537180435968
30
0
40
2
0
CIRCLE
8
HOLES
10
93
20
58.76537180435968
30
0
40
2
0
CIRCLE
8
HOLES
10
99
20
58.76537180435968
30
0
40
2
0
CIRCLE
8
HOLES
10
105
20
58.76537180435968
30
0
40
2
0
CIRCLE
8
HOLES
10
111
20
58.76537180435968
30
0
40
2
0
CIRCLE
8
HOLES
10
117
20
58.76537180435968
30
0
40
2
0
CIRCLE
8
HOLES
10
123
20
58.76537180435968
30
0
40
2
0
CIRCLE
8
HOLES
10
129
20
58.76537180435968
30
0
40
2
0
CIRCLE
8
HOLES
10
135
20
58.76537180435968
30
0
40
2
0
CIRCLE
8
HOLES
10
141
20
58.76537180435968
30
0
40
2
0
CIRCLE
8
HOLES
10
147
20
58.76537180435968
30
0
40
2
0
CIRCLE
8
HOLES
10
153
20
58.76537180435968
30
0
40
2
0
CIRCLE
8
HOLES
10
159
20
58.76537180435968
30
0
40
2
0
CIRCLE
8
HOLES
10
165
20
58.76537180435968
30
0
40
2
0
CIRCLE
8
HOLES
10
171
20
58.76537180435968
30
0
40
2
0
CIRCLE
8
HOLES
10
177
20
58.76537180435968
30
0
40
2
0
CIRCLE
8
HOLES
10
183
20
58.76537180435968
30
0
40
2
0
CIRCLE
8
HOLES
10
189
20
58.76537180435968
30
0
40
2
0
CIRCLE
8
HOLES
10
195
20
58.76537180435968
30
0
40
2
0
CIRCLE
8
HOLES
10
201
20
58.76537180435968
30
0
40
2
0
CIRCLE
8
HOLES
10
207
20
58.76537180435968
30
0
40
2
0
CIRCLE
8
HOLES
10
213
20
58.76537180435968
30
0
40
2
0
CIRCLE
8
HOLES
10
219
20
58.76537180435968
30
0
40
2
0
CIRCLE
8
HOLES
10
225
20
58.76537180435968
30
0
40
2
0
CIRCLE
8
HOLES
10
231
20
58.76537180435968
30
0
40
2
0
CIRCLE
8
HOLES
10
237
20
58.76537180435968
30
0
40
2
0
CIRCLE
8
HOLES
10
243
20
58.76537180435968
30
0
40
2
0
CIRCLE
8
HOLES
10
249
20
58.76537180435968
30
0
40
2
0
CIRCLE
8
HOLES
10
255
20
58.76537180435968
30
0
40
2
0
CIRCLE
8
HOLES
10
261
20
58.76537180435968
30
0
40
2
0
CIRCLE
8
HOLES
10
267
20
58.76537180435968
30
0
40
2
0
CIRCLE
8
HOLES
10
273
20
58.76537180435968
30
0
40
2
0
CIRCLE
8
HOLES
10
279
20
58.76537180435968
30
0
40
2
0
CIRCLE
8
HOLES
10
285
20
58.76537180435968
30
0
40
2
0
CIRCLE
8
HOLES
10
291
20
58.76537180435968
30
0
40
2
0
CIRCLE
8
HOLES
10
297
20
58.76537180435968
30
0
40
2
0
CIRCLE
8
HOLES
10
303
20
58.76537180435968
30
0
40
2
0
CIRCLE
8
HOLES
10
12
20
63.96152422706631
30
0
40
2
0
CIRCLE
8
HOLES
10
18
20
63.96152422706631
30
0
40
2
0
CIRCLE
8
HOLES
10
24
20
63.96152422706631
30
0
40
2
0
CIRCLE
8
HOLES
10
30
20
63.96152422706631
30
0
40
2
0
CIRCLE
8
HOLES
10
36
20
63.96152422706631
30
0
40
2
0
CIRCLE
8
HOLES
10
42
20
63.96152422706631
30
0
40
2
0
CIRCLE
8
HOLES
10
48
20
63.96152422706631
30
0
40
2
0
CIRCLE
8
HOLES
10
54
20
63.96152422706631
30
0
40
2
0
CIRCLE
8
HOLES
10
60
20
63.96152422706631
30
0
40
2
0
CIRCLE
8
HOLES
10
66
20
63.96152422706631
30
0
40
2
0
CIRCLE
8
HOLES
10
72
20
63.96152422706631
30
0
40
2
0
CIRCLE
8
HOLES
10
78
20
63.96152422706631
30
0
40
2
0
CIRCLE
8
HOLES
10
84
20
63.96152422706631
30
0
40
2
0
CIRCLE
8
HOLES
10
90
20
63.96152422706631
30
0
40
2
0
CIRCLE
8
HOLES
10
96
20
63.96152422706631
30
0
40
2
0
CIRCLE
8
HOLES
10
102
20
63.96152422706631
30
0
40
2
0
CIRCLE
8
HOLES
10
108
20
63.96152422706631
30
0
40
2
0
CIRCLE
8
HOLES
10
114
20
63.96152422706631
30
0
40
2
0
CIRCLE
8
HOLES
10
120
20
63.96152422706631
30
0
40
2
0
CIRCLE
8
HOLES
10
126
20
63.96152422706631
30
0
40
2
0
CIRCLE
8
HOLES
10
132
20
63.96152422706631
30
0
40
2
0
CIRCLE
8
HOLES
10
138
20
63.96152422706631
30
0
40
2
0
CIRCLE
8
HOLES
10
144
20
63.96152422706631
30
0
40
2
0
CIRCLE
8
HOLES
10
150
20
63.96152422706631
30
0
40
2
0
CIRCLE
8
HOLES
10
156
20
63.96152422706631
30
0
40
2
0
CIRCLE
8
HOLES
10
162
20
63.96152422706631
30
0
40
2
0
CIRCLE
8
HOLES
10
168
20
63.96152422706631
30
0
40
2
0
CIRCLE
8
HOLES
10
174
20
63.96152422706631
30
0
40
2
0
CIRCLE
8
HOLES
10
180
20
63.96152422706631
30
0
40
2
0
CIRCLE
8
HOLES
10
186
20
63.96152422706631
30
0
40
2
0
CIRCLE
8
HOLES
10
192
20
63.96152422706631
30
0
40
2
0
CIRCLE
8
HOLES
10
198
20
63.96152422706631
30
0
40
2
0
CIRCLE
8
HOLES
10
204
20
63.96152422706631
30
0
40
2
0
CIRCLE
8
HOLES
10
210
20
63.96152422706631
30
0
40
2
0
CIRCLE
8
HOLES
10
216
20
63.96152422706631
30
0
40
2
0
CIRCLE
8
HOLES
10
222
20
63.96152422706631
30
0
40
2
0
CIRCLE
8
HOLES
10
228
20
63.96152422706631
30
0
40
2
0
CIRCLE
8
HOLES
10
234
20
63.96152422706631
30
0
40
2
0
CIRCLE
8
HOLES
10
240
20
63.96152422706631
30
0
40
2
0
CIRCLE
8
HOLES
10
246
20
63.96152422706631
30
0
40
2
0
CIRCLE
8
HOLES
10
252
20
63.96152422706631
30
0
40
2
0
CIRCLE
8
HOLES
10
258
20
63.96152422706631
30
0
40
2
0
CIRCLE
8
HOLES
10
264
20
63.96152422706631
30
0
40
2
0
CIRCLE
8
HOLES
10
270
20
63.96152422706631
30
0
40
2
0
CIRCLE
8
HOLES
10
276
20
63.96152422706631
30
0
40
2
0
CIRCLE
8
HOLES
10
282
20
63.96152422706631
30
0
40
2
0
CIRCLE
8
HOLES
10
288
20
63.96152422706631
30
0
40
2
0
CIRCLE
8
HOLES
10
294
20
63.96152422706631
30
0
40
2
0
CIRCLE
8
HOLES
10
300
20
63.96152422706631
30
0
40
2
0
CIRCLE
8
HOLES
10
306
20
63.96152422706631
30
0
40
2
0
CIRCLE
8
HOLES
10
15
20
69.15767664977295
30
0
40
2
0
CIRCLE
8
HOLES
10
21
20
69.15767664977295
30
0
40
2
0
CIRCLE
8
HOLES
10
27
20
69.15767664977295
30
0
40
2
0
CIRCLE
8
HOLES
10
33
20
69.15767664977295
30
0
40
2
0
CIRCLE
8
HOLES
10
39
20
69.15767664977295
30
0
40
2
0
CIRCLE
8
HOLES
10
45
20
69.15767664977295
30
0
40
2
0
CIRCLE
8
HOLES
10
51
20
69.15767664977295
30
0
40
2
0
CIRCLE
8
HOLES
10
57
20
69.15767664977295
30
0
40
2
0
CIRCLE
8
HOLES
10
63
20
69.15767664977295
30
0
40
2
0
CIRCLE
8
HOLES
10
69
20
69.15767664977295
30
0
40
2
0
CIRCLE
8
HOLES
10
75
20
69.15767664977295
30
0
40
2
0
CIRCLE
8
HOLES
10
81
20
69.15767664977295
30
0
40
2
0
CIRCLE
8
HOLES
10
87
20
69.15767664977295
30
0
40
2
0
CIRCLE
8
HOLES
10
93
20
69.15767664977295
30
0
40
2
0
CIRCLE
8
HOLES
10
99
20
69.15767664977295
30
0
40
2
0
CIRCLE
8
HOLES
10
105
20
69.15767664977295
30
0
40
2
0
CIRCLE
8
HOLES
10
111
20
69.15767664977295
30
0
40
2
0
CIRCLE
8
HOLES
10
117
20
69.15767664977295
30
0
40
2
0
CIRCLE
8
HOLES
10
123
20
69.15767664977295
30
0
40
2
0
CIRCLE
8
HOLES
10
129
20
69.15767664977295
30
0
40
2
0
CIRCLE
8
HOLES
10
135
20
69.15767664977295
30
0
40
2
0
CIRCLE
8
HOLES
10
141
20
69.15767664977295
30
0
40
2
0
CIRCLE
8
HOLES
10
147
20
69.15767664977295
30
0
40
2
0
CIRCLE
8
HOLES
10
153
20
69.15767664977295
30
0
40
2
0
CIRCLE
8
HOLES
10
159
20
69.15767664977295
30
0
40
2
0
CIRCLE
8
HOLES
10
165
20
69.15767664977295
30
0
40
2
0
CIRCLE
8
HOLES
10
171
20
69.15767664977295
30
0
40
2
0
CIRCLE
8
HOLES
10
177
20
69.15767664977295
30
0
40
2
0
CIRCLE
8
HOLES
10
183
20
69.15767664977295
30
0
40
2
0
CIRCLE
8
HOLES
10
189
20
69.15767664977295
30
0
40
2
0
CIRCLE
8
HOLES
10
195
20
69.15767664977295
30
0
40
2
0
CIRCLE
8
HOLES
10
201
20
69.15767664977295
30
0
40
2
0
CIRCLE
8
HOLES
10
207
20
69.15767664977295
30
0
40
2
0
CIRCLE
8
HOLES
10
213
20
69.15767664977295
30
0
40
2
0
CIRCLE
8
HOLES
10
219
20
69.15767664977295
30
0
40
2
0
CIRCLE
8
HOLES
10
225
20
69.15767664977295
30
0
40
2
0
CIRCLE
8
HOLES
10
231
20
69.15767664977295
30
0
40
2
0
CIRCLE
8
HOLES
10
237
20
69.15767664977295
30
0
40
2
0
CIRCLE
8
HOLES
10
243
20
69.15767664977295
30
0
40
2
0
CIRCLE
8
HOLES
10
249
20
69.15767664977295
30
0
40
2
0
CIRCLE
8
HOLES
10
255
20
69.15767664977295
30
0
40
2
0
CIRCLE
8
HOLES
10
261
20
69.15767664977295
30
0
40
2
0
CIRCLE
8
HOLES
10
267
20
69.15767664977295
30
0
40
2
0
CIRCLE
8
HOLES
10
273
20
69.15767664977295
30
0
40
2
0
CIRCLE
8
HOLES
10
279
20
69.15767664977295
30
0
40
2
0
CIRCLE
8
HOLES
10
285
20
69.15767664977295
30
0
40
2
0
CIRCLE
8
HOLES
10
291
20
69.15767664977295
30
0
40
2
0
CIRCLE
8
HOLES
10
297
20
69.15767664977295
30
0
40
2
0
CIRCLE
8
HOLES
10
303
20
69.15767664977295
30
0
40
2
0
CIRCLE
8
HOLES
10
12
20
74.35382907247958
30
0
40
2
0
CIRCLE
8
HOLES
10
18
20
74.35382907247958
30
0
40
2
0
CIRCLE
8
HOLES
10
24
20
74.35382907247958
30
0
40
2
0
CIRCLE
8
HOLES
10
30
20
74.35382907247958
30
0
40
2
0
CIRCLE
8
HOLES
10
36
20
74.35382907247958
30
0
40
2
0
CIRCLE
8
HOLES
10
42
20
74.35382907247958
30
0
40
2
0
CIRCLE
8
HOLES
10
48
20
74.35382907247958
30
0
40
2
0
CIRCLE
8
HOLES
10
54
20
74.35382907247958
30
0
40
2
0
CIRCLE
8
HOLES
10
60
20
74.35382907247958
30
0
40
2
0
CIRCLE
8
HOLES
10
66
20
74.35382907247958
30
0
40
2
0
CIRCLE
8
HOLES
10
72
20
74.35382907247958
30
0
40
2
0
CIRCLE
8
HOLES
10
78
20
74.35382907247958
30
0
40
2
0
CIRCLE
8
HOLES
10
84
20
74.35382907247958
30
0
40
2
0
CIRCLE
8
HOLES
10
90
20
74.35382907247958
30
0
40
2
0
CIRCLE
8
HOLES
10
96
20
74.35382907247958
30
0
40
2
0
CIRCLE
8
HOLES
10
102
20
74.35382907247958
30
0
40
2
0
CIRCLE
8
HOLES
10
108
20
74.35382907247958
30
0
40
2
0
CIRCLE
8
HOLES
10
114
20
74.35382907247958
30
0
40
2
0
CIRCLE
8
HOLES
10
120
20
74.35382907247958
30
0
40
2
0
CIRCLE
8
HOLES
10
126
20
74.35382907247958
30
0
40
2
0
CIRCLE
8
HOLES
10
132
20
74.35382907247958
30
0
40
2
0
CIRCLE
8
HOLES
10
138
20
74.35382907247958
30
0
40
2
0
CIRCLE
8
HOLES
10
144
20
74.35382907247958
30
0
40
2
0
CIRCLE
8
HOLES
10
150
20
74.35382907247958
30
0
40
2
0
CIRCLE
8
HOLES
10
156
20
74.35382907247958
30
0
40
2
0
CIRCLE
8
HOLES
10
162
20
74.35382907247958
30
0
40
2
0
CIRCLE
8
HOLES
10
168
20
74.35382907247958
30
0
40
2
0
CIRCLE
8
HOLES
10
174
20
74.35382907247958
30
0
40
2
0
CIRCLE
8
HOLES
10
180
20
74.35382907247958
30
0
40
2
0
CIRCLE
8
HOLES
10
186
20
74.35382907247958
30
0
40
2
0
CIRCLE
8
HOLES
10
192
20
74.35382907247958
30
0
40
2
0
CIRCLE
8
HOLES
10
198
20
74.35382907247958
30
0
40
2
0
CIRCLE
8
HOLES
10
204
20
74.35382907247958
30
0
40
2
0
CIRCLE
8
HOLES
10
210
20
74.35382907247958
30
0
40
2
0
CIRCLE
8
HOLES
10
216
20
74.35382907247958
30
0
40
2
0
CIRCLE
8
HOLES
10
222
20
74.35382907247958
30
0
40
2
0
CIRCLE
8
HOLES
10
228
20
74.35382907247958
30
0
40
2
0
CIRCLE
8
HOLES
10
234
20
74.35382907247958
30
0
40
2
0
CIRCLE
8
HOLES
10
240
20
74.35382907247958
30
0
40
2
0
CIRCLE
8
HOLES
10
246
20
74.35382907247958
30
0
40
2
0
CIRCLE
8
HOLES
10
252
20
74.35382907247958
30
0
40
2
0
CIRCLE
8
HOLES
10
258
20
74.35382907247958
30
0
40
2
0
CIRCLE
8
HOLES
10
264
20
74.35382907247958
30
0
40
2
0
CIRCLE
8
HOLES
10
270
20
74.35382907247958
30
0
40
2
0
CIRCLE
8
HOLES
10
276
20
74.35382907247958
30
0
40
2
0
CIRCLE
8
HOLES
10
282
20
74.35382907247958
30
0
40
2
0
CIRCLE
8
HOLES
10
288
20
74.35382907247958
30
0
40
2
0
CIRCLE
8
HOLES
10
294
20
74.35382907247958
30
0
40
2
0
CIRCLE
8
HOLES
10
300
20
74.35382907247958
30
0
40
2
0
CIRCLE
8
HOLES
10
306
20
74.35382907247958
30
0
40
2
0
CIRCLE
8
HOLES
10
15
20
79.54998149518622
30
0
40
2
0
CIRCLE
8
HOLES
10
21
20
79.54998149518622
30
0
40
2
0
CIRCLE
8
HOLES
10
27
20
79.54998149518622
30
0
40
2
0
CIRCLE
8
HOLES
10
33
20
79.54998149518622
30
0
40
2
0
CIRCLE
8
HOLES
10
39
20
79.54998149518622
30
0
40
2
0
CIRCLE
8
HOLES
10
45
20
79.54998149518622
30
0
40
2
0
CIRCLE
8
HOLES
10
51
20
79.54998149518622
30
0
40
2
0
CIRCLE
8
HOLES
10
57
20
79.54998149518622
30
0
40
2
0
CIRCLE
8
HOLES
10
63
20
79.54998149518622
30
0
40
2
0
CIRCLE
8
HOLES
10
69
20
79.54998149518622
30
0
40
2
0
CIRCLE
8
HOLES
10
75
20
79.54998149518622
30
0
40
2
0
CIRCLE
8
HOLES
10
81
20
79.54998149518622
30
0
40
2
0
CIRCLE
8
HOLES
10
87
20
79.54998149518622
30
0
40
2
0
CIRCLE
8
HOLES
10
93
20
79.54998149518622
30
0
40
2
0
CIRCLE
8
HOLES
10
99
20
79.54998149518622
30
0
40
2
0
CIRCLE
8
HOLES
10
105
20
79.54998149518622
30
0
40
2
0
CIRCLE
8
HOLES
10
111
20
79.54998149518622
30
0
40
2
0
CIRCLE
8
HOLES
10
117
20
79.54998149518622
30
0
40
2
0
CIRCLE
8
HOLES
10
123
20
79.54998149518622
30
0
40
2
0
CIRCLE
8
HOLES
10
129
20
79.54998149518622
30
0
40
2
0
CIRCLE
8
HOLES
10
135
20
79.54998149518622
30
0
40
2
0
CIRCLE
8
HOLES
10
141
20
79.54998149518622
30
0
40
2
0
CIRCLE
8
HOLES
10
147
20
79.54998149518622
30
0
40
2
0
CIRCLE
8
HOLES
10
153
20
79.54998149518622
30
0
40
2
0
CIRCLE
8
HOLES
10
159
20
79.54998149518622
30
0
40
2
0
CIRCLE
8
HOLES
10
165
20
79.54998149518622
30
0
40
2
0
CIRCLE
8
HOLES
10
171
20
79.54998149518622
30
0
40
2
0
CIRCLE
8
HOLES
10
177
20
79.54998149518622
30
0
40
2
0
CIRCLE
8
HOLES
10
183
20
79.54998149518622
30
0
40
2
0
CIRCLE
8
HOLES
10
189
20
79.54998149518622
30
0
40
2
0
CIRCLE
8
HOLES
10
195
20
79.54998149518622
30
0
40
2
0
CIRCLE
8
HOLES
10
201
20
79.54998149518622
30
0
40
2
0
CIRCLE
8
HOLES
10
207
20
79.54998149518622
30
0
40
2
0
CIRCLE
8
HOLES
10
213
20
79.54998149518622
30
0
40
2
0
CIRCLE
8
HOLES
10
219
20
79.54998149518622
30
0
40
2
0
CIRCLE
8
HOLES
10
225
20
79.54998149518622
30
0
40
2
0
CIRCLE
8
HOLES
10
231
20
79.54998149518622
30
0
40
2
0
CIRCLE
8
HOLES
10
237
20
79.54998149518622
30
0
40
2
0
CIRCLE
8
HOLES
10
243
20
79.54998149518622
30
0
40
2
0
CIRCLE
8
HOLES
10
249
20
79.54998149518622
30
0
40
2
0
CIRCLE
8
HOLES
10
255
20
79.54998149518622
30
0
40
2
0
CIRCLE
8
HOLES
10
261
20
79.54998149518622
30
0
40
2
0
CIRCLE
8
HOLES
10
267
20
79.54998149518622
30
0
40
2
0
CIRCLE
8
HOLES
10
273
20
79.54998149518622
30
0
40
2
0
CIRCLE
8
HOLES
10
279
20
79.54998149518622
30
0
40
2
0
CIRCLE
8
HOLES
10
285
20
79.54998149518622
30
0
40
2
0
CIRCLE
8
HOLES
10
291
20
79.54998149518622
30
0
40
2
0
CIRCLE
8
HOLES
10
297
20
79.54998149518622
30
0
40
2
0
CIRCLE
8
HOLES
10
303
20
79.54998149518622
30
0
40
2
0
CIRCLE
8
HOLES
10
12
20
84.74613391789285
30
0
40
2
0
CIRCLE
8
HOLES
10
18
20
84.74613391789285
30
0
40
2
0
CIRCLE
8
HOLES
10
24
20
84.74613391789285
30
0
40
2
0
CIRCLE
8
HOLES
10
30
20
84.74613391789285
30
0
40
2
0
CIRCLE
8
HOLES
10
36
20
84.74613391789285
30
0
40
2
0
CIRCLE
8
HOLES
10
42
20
84.74613391789285
30
0
40
2
0
CIRCLE
8
HOLES
10
48
20
84.74613391789285
30
0
40
2
0
CIRCLE
8
HOLES
10
54
20
84.74613391789285
30
0
40
2
0
CIRCLE
8
HOLES
10
60
20
84.74613391789285
30
0
40
2
0
CIRCLE
8
HOLES
10
66
20
84.74613391789285
30
0
40
2
0
CIRCLE
8
HOLES
10
72
20
84.74613391789285
30
0
40
2
0
CIRCLE
8
HOLES
10
78
20
84.74613391789285
30
0
40
2
0
CIRCLE
8
HOLES
10
84
20
84.74613391789285
30
0
40
2
0
CIRCLE
8
HOLES
10
90
20
84.74613391789285
30
0
40
2
0
CIRCLE
8
HOLES
10
96
20
84.74613391789285
30
0
40
2
0
CIRCLE
8
HOLES
10
102
20
84.74613391789285
30
0
40
2
0
CIRCLE
8
HOLES
10
108
20
84.74613391789285
30
0
40
2
0
CIRCLE
8
HOLES
10
114
20
84.74613391789285
30
0
40
2
0
CIRCLE
8
HOLES
10
120
20
84.74613391789285
30
0
40
2
0
CIRCLE
8
HOLES
10
126
20
84.74613391789285
30
0
40
2
0
CIRCLE
8
HOLES
10
132
20
84.74613391789285
30
0
40
2
0
CIRCLE
8
HOLES
10
138
20
84.74613391789285
30
0
40
2
0
CIRCLE
8
HOLES
10
144
20
84.74613391789285
30
0
40
2
0
CIRCLE
8
HOLES
10
150
20
84.74613391789285
30
0
40
2
0
CIRCLE
8
HOLES
10
156
20
84.74613391789285
30
0
40
2
0
CIRCLE
8
HOLES
10
162
20
84.74613391789285
30
0
40
2
0
CIRCLE
8
HOLES
10
168
20
84.74613391789285
30
0
40
2
0
CIRCLE
8
HOLES
10
174
20
84.74613391789285
30
0
40
2
0
CIRCLE
8
HOLES
10
180
20
84.74613391789285
30
0
40
2
0
CIRCLE
8
HOLES
10
186
20
84.74613391789285
30
0
40
2
0
CIRCLE
8
HOLES
10
192
20
84.74613391789285
30
0
40
2
0
CIRCLE
8
HOLES
10
198
20
84.74613391789285
30
0
40
2
0
CIRCLE
8
HOLES
10
204
20
84.74613391789285
30
0
40
2
0
CIRCLE
8
HOLES
10
210
20
84.74613391789285
30
0
40
2
0
CIRCLE
8
HOLES
10
216
20
84.74613391789285
30
0
40
2
0
CIRCLE
8
HOLES
10
222
20
84.74613391789285
30
0
40
2
0
CIRCLE
8
HOLES
10
228
20
84.74613391789285
30
0
40
2
0
CIRCLE
8
HOLES
10
234
20
84.74613391789285
30
0
40
2
0
CIRCLE
8
HOLES
10
240
20
84.74613391789285
30
0
40
2
0
CIRCLE
8
HOLES
10
246
20
84.74613391789285
30
0
40
2
0
CIRCLE
8
HOLES
10
252
20
84.74613391789285
30
0
40
2
0
CIRCLE
8
HOLES
10
258
20
84.74613391789285
30
0
40
2
0
CIRCLE
8
HOLES
10
264
20
84.74613391789285
30
0
40
2
0
CIRCLE
8
HOLES
10
270
20
84.74613391789285
30
0
40
2
0
CIRCLE
8
HOLES
10
276
20
84.74613391789285
30
0
40
2
0
CIRCLE
8
HOLES
10
282
20
84.74613391789285
30
0
40
2
0
CIRCLE
8
HOLES
10
288
20
84.74613391789285
30
0
40
2
0
CIRCLE
8
HOLES
10
294
20
84.74613391789285
30
0
40
2
0
CIRCLE
8
HOLES
10
300
20
84.74613391789285
30
0
40
2
0
CIRCLE
8
HOLES
10
306
20
84.74613391789285
30
0
40
2
0
CIRCLE
8
HOLES
10
15
20
89.94228634059948
30
0
40
2
0
CIRCLE
8
HOLES
10
21
20
89.94228634059948
30
0
40
2
0
CIRCLE
8
HOLES
10
27
20
89.94228634059948
30
0
40
2
0
CIRCLE
8
HOLES
10
33
20
89.94228634059948
30
0
40
2
0
CIRCLE
8
HOLES
10
39
20
89.94228634059948
30
0
40
2
0
CIRCLE
8
HOLES
10
45
20
89.94228634059948
30
0
40
2
0
CIRCLE
8
HOLES
10
51
20
89.94228634059948
30
0
40
2
0
CIRCLE
8
HOLES
10
57
20
89.94228634059948
30
0
40
2
0
CIRCLE
8
HOLES
10
63
20
89.94228634059948
30
0
40
2
0
CIRCLE
8
HOLES
10
69
20
89.94228634059948
30
0
40
2
0
CIRCLE
8
HOLES
10
75
20
89.94228634059948
30
0
40
2
0
CIRCLE
8
HOLES
10
81
20
89.94228634059948
30
0
40
2
0
CIRCLE
8
HOLES
10
87
20
89.94228634059948
30
0
40
2
0
CIRCLE
8
HOLES
10
93
20
89.94228634059948
30
0
40
2
0
CIRCLE
8
HOLES
10
99
20
89.94228634059948
30
0
40
2
0
CIRCLE
8
HOLES
10
105
20
89.94228634059948
30
0
40
2
0
CIRCLE
8
HOLES
10
111
20
89.94228634059948
30
0
40
2
0
CIRCLE
8
HOLES
10
117
20
89.94228634059948
30
0
40
2
0
CIRCLE
8
HOLES
10
123
20
89.94228634059948
30
0
40
2
0
CIRCLE
8
HOLES
10
129
20
89.94228634059948
30
0
40
2
0
CIRCLE
8
HOLES
10
135
20
89.94228634059948
30
0
40
2
0
CIRCLE
8
HOLES
10
141
20
89.94228634059948
30
0
40
2
0
CIRCLE
8
HOLES
10
147
20
89.94228634059948
30
0
40
2
0
CIRCLE
8
HOLES
10
153
20
89.94228634059948
30
0
40
2
0
CIRCLE
8
HOLES
10
159
20
89.94228634059948
30
0
40
2
0
CIRCLE
8
HOLES
10
165
20
89.94228634059948
30
0
40
2
0
CIRCLE
8
HOLES
10
171
20
89.94228634059948
30
0
40
2
0
CIRCLE
8
HOLES
10
177
20
89.94228634059948
30
0
40
2
0
CIRCLE
8
HOLES
10
183
20
89.94228634059948
30
0
40
2
0
CIRCLE
8
HOLES
10
189
20
89.94228634059948
30
0
40
2
0
CIRCLE
8
HOLES
10
195
20
89.94228634059948
30
0
40
2
0
CIRCLE
8
HOLES
10
201
20
89.94228634059948
30
0
40
2
0
CIRCLE
8
HOLES
10
207
20
89.94228634059948
30
0
40
2
0
CIRCLE
8
HOLES
10
213
20
89.94228634059948
30
0
40
2
0
CIRCLE
8
HOLES
10
219
20
89.94228634059948
30
0
40
2
0
CIRCLE
8
HOLES
10
225
20
89.94228634059948
30
0
40
2
0
CIRCLE
8
HOLES
10
231
20
89.94228634059948
30
0
40
2
0
CIRCLE
8
HOLES
10
237
20
89.94228634059948
30
0
40
2
0
CIRCLE
8
HOLES
10
243
20
89.94228634059948
30
0
40
2
0
CIRCLE
8
HOLES
10
249
20
89.94228634059948
30
0
40
2
0
CIRCLE
8
HOLES
10
255
20
89.94228634059948
30
0
40
2
0
CIRCLE
8
HOLES
10
261
20
89.94228634059948
30
0
40
2
0
CIRCLE
8
HOLES
10
267
20
89.94228634059948
30
0
40
2
0
CIRCLE
8
HOLES
10
273
20
89.94228634059948
30
0
40
2
0
CIRCLE
8
HOLES
10
279
20
89.94228634059948
30
0
40
2
0
CIRCLE
8
HOLES
10
285
20
89.94228634059948
30
0
40
2
0
CIRCLE
8
HOLES
10
291
20
89.94228634059948
30
0
40
2
0
CIRCLE
8
HOLES
10
297
20
89.94228634059948
30
0
40
2
0
CIRCLE
8
HOLES
10
303
20
89.94228634059948
30
0
40
2
0
CIRCLE
8
HOLES
10
12
20
95.13843876330611
30
0
40
2
0
CIRCLE
8
HOLES
10
18
20
95.13843876330611
30
0
40
2
0
CIRCLE
8
HOLES
10
24
20
95.13843876330611
30
0
40
2
0
CIRCLE
8
HOLES
10
30
20
95.13843876330611
30
0
40
2
0
CIRCLE
8
HOLES
10
36
20
95.13843876330611
30
0
40
2
0
CIRCLE
8
HOLES
10
42
20
95.13843876330611
30
0
40
2
0
CIRCLE
8
HOLES
10
48
20
95.13843876330611
30
0
40
2
0
CIRCLE
8
HOLES
10
54
20
95.13843876330611
30
0
40
2
0
CIRCLE
8
HOLES
10
60
20
95.13843876330611
30
0
40
2
0
CIRCLE
8
HOLES
10
66
20
95.13843876330611
30
0
40
2
0
CIRCLE
8
HOLES
10
72
20
95.13843876330611
30
0
40
2
0
CIRCLE
8
HOLES
10
78
20
95.13843876330611
30
0
40
2
0
CIRCLE
8
HOLES
10
84
20
95.13843876330611
30
0
40
2
0
CIRCLE
8
HOLES
10
90
20
95.13843876330611
30
0
40
2
0
CIRCLE
8
HOLES
10
96
20
95.13843876330611
30
0
40
2
0
CIRCLE
8
HOLES
10
102
20
95.13843876330611
30
0
40
2
0
CIRCLE
8
HOLES
10
108
20
95.13843876330611
30
0
40
2
0
CIRCLE
8
HOLES
10
114
20
95.13843876330611
30
0
40
2
0
CIRCLE
8
HOLES
10
120
20
95.13843876330611
30
0
40
2
0
CIRCLE
8
HOLES
10
126
20
95.13843876330611
30
0
40
2
0
CIRCLE
8
HOLES
10
132
20
95.13843876330611
30
0
40
2
0
CIRCLE
8
HOLES
10
138
20
95.13843876330611
30
0
40
2
0
CIRCLE
8
HOLES
10
144
20
95.13843876330611
30
0
40
2
0
CIRCLE
8
HOLES
10
150
20
95.13843876330611
30
0
40
2
0
CIRCLE
8
HOLES
10
156
20
95.13843876330611
30
0
40
2
0
CIRCLE
8
HOLES
10
162
20
95.13843876330611
30
0
40
2
0
CIRCLE
8
HOLES
10
168
20
95.13843876330611
30
0
40
2
0
CIRCLE
8
HOLES
10
174
20
95.13843876330611
30
0
40
2
0
CIRCLE
8
HOLES
10
180
20
95.13843876330611
30
0
40
2
0
CIRCLE
8
HOLES
10
186
20
95.13843876330611
30
0
40
2
0
CIRCLE
8
HOLES
10
192
20
95.13843876330611
30
0
40
2
0
CIRCLE
8
HOLES
10
198
20
95.13843876330611
30
0
40
2
0
CIRCLE
8
HOLES
10
204
20
95.13843876330611
30
0
40
2
0
CIRCLE
8
HOLES
10
210
20
95.13843876330611
30
0
40
2
0
CIRCLE
8
HOLES
10
216
20
95.13843876330611
30
0
40
2
0
CIRCLE
8
HOLES
10
222
20
95.13843876330611
30
0
40
2
0
CIRCLE
8
HOLES
10
228
20
95.13843876330611
30
0
40
2
0
CIRCLE
8
HOLES
10
234
20
95.13843876330611
30
0
40
2
0
CIRCLE
8
HOLES
10
240
20
95.13843876330611
30
0
40
2
0
CIRCLE
8
HOLES
10
246
20
95.13843876330611
30
0
40
2
0
CIRCLE
8
HOLES
10
252
20
95.13843876330611
30
0
40
2
0
CIRCLE
8
HOLES
10
258
20
95.13843876330611
30
0
40
2
0
CIRCLE
8
HOLES
10
264
20
95.13843876330611
30
0
40
2
0
CIRCLE
8
HOLES
10
270
20
95.13843876330611
30
0
40
2
0
CIRCLE
8
HOLES
10
276
20
95.13843876330611
30
0
40
2
0
CIRCLE
8
HOLES
10
282
20
95.13843876330611
30
0
40
2
0
CIRCLE
8
HOLES
10
288
20
95.13843876330611
30
0
40
2
0
CIRCLE
8
HOLES
10
294
20
95.13843876330611
30
0
40
2
0
CIRCLE
8
HOLES
10
300
20
95.13843876330611
30
0
40
2
0
CIRCLE
8
HOLES
10
306
20
95.13843876330611
30
0
40
2
0
CIRCLE
8
HOLES
10
15
20
100.33459118601273
30
0
40
2
0
CIRCLE
8
HOLES
10
21
20
100.33459118601273
30
0
40
2
0
CIRCLE
8
HOLES
10
27
20
100.33459118601273
30
0
40
2
0
CIRCLE
8
HOLES
10
33
20
100.33459118601273
30
0
40
2
0
CIRCLE
8
HOLES
10
39
20
100.33459118601273
30
0
40
2
0
CIRCLE
8
HOLES
10
45
20
100.33459118601273
30
0
40
2
0
CIRCLE
8
HOLES
10
51
20
100.33459118601273
30
0
40
2
0
CIRCLE
8
HOLES
10
57
20
100.33459118601273
30
0
40
2
0
CIRCLE
8
HOLES
10
63
20
100.33459118601273
30
0
40
2
0
CIRCLE
8
HOLES
10
69
20
100.33459118601273
30
0
40
2
0
CIRCLE
8
HOLES
10
75
20
100.33459118601273
30
0
40
2
0
CIRCLE
8
HOLES
10
81
20
100.33459118601273
30
0
40
2
0
CIRCLE
8
HOLES
10
87
20
100.33459118601273
30
0
40
2
0
CIRCLE
8
HOLES
10
93
20
100.33459118601273
30
0
40
2
0
CIRCLE
8
HOLES
10
99
20
100.33459118601273
30
0
40
2
0
CIRCLE
8
HOLES
10
105
20
100.33459118601273
30
0
40
2
0
CIRCLE
8
HOLES
10
111
20
100.33459118601273
30
0
40
2
0
CIRCLE
8
HOLES
10
117
20
100.33459118601273
30
0
40
2
0
CIRCLE
8
HOLES
10
123
20
100.33459118601273
30
0
40
2
0
CIRCLE
8
HOLES
10
129
20
100.33459118601273
30
0
40
2
0
CIRCLE
8
HOLES
10
135
20
100.33459118601273
30
0
40
2
0
CIRCLE
8
HOLES
10
141
20
100.33459118601273
30
0
40
2
0
CIRCLE
8
HOLES
10
147
20
100.33459118601273
30
0
40
2
0
CIRCLE
8
HOLES
10
153
20
100.33459118601273
30
0
40
2
0
CIRCLE
8
HOLES
10
159
20
100.33459118601273
30
0
40
2
0
CIRCLE
8
HOLES
10
165
20
100.33459118601273
30
0
40
2
0
CIRCLE
8
HOLES
10
171
20
100.33459118601273
30
0
40
2
0
CIRCLE
8
HOLES
10
177
20
100.33459118601273
30
0
40
2
0
CIRCLE
8
HOLES
10
183
20
100.33459118601273
30
0
40
2
0
CIRCLE
8
HOLES
10
189
20
100.33459118601273
30
0
40
2
0
CIRCLE
8
HOLES
10
195
20
100.33459118601273
30
0
40
2
0
CIRCLE
8
HOLES
10
201
20
100.33459118601273
30
0
40
2
0
CIRCLE
8
HOLES
10
207
20
100.33459118601273
30
0
40
2
0
CIRCLE
8
HOLES
10
213
20
100.33459118601273
30
0
40
2
0
CIRCLE
8
HOLES
10
219
20
100.33459118601273
30
0
40
2
0
CIRCLE
8
HOLES
10
225
20
100.33459118601273
30
0
40
2
0
CIRCLE
8
HOLES
10
231
20
100.33459118601273
30
0
40
2
0
CIRCLE
8
HOLES
10
237
20
100.33459118601273
30
0
40
2
0
CIRCLE
8
HOLES
10
243
20
100.33459118601273
30
0
40
2
0
CIRCLE
8
HOLES
10
249
20
100.33459118601273
30
0
40
2
0
CIRCLE
8
HOLES
10
255
20
100.33459118601273
30
0
40
2
0
CIRCLE
8
HOLES
10
261
20
100.33459118601273
30
0
40
2
0
CIRCLE
8
HOLES
10
267
20
100.33459118601273
30
0
40
2
0
CIRCLE
8
HOLES
10
273
20
100.33459118601273
30
0
40
2
0
CIRCLE
8
HOLES
10
279
20
100.33459118601273
30
0
40
2
0
CIRCLE
8
HOLES
10
285
20
100.33459118601273
30
0
40
2
0
CIRCLE
8
HOLES
10
291
20
100.33459118601273
30
0
40
2
0
CIRCLE
8
HOLES
10
297
20
100.33459118601273
30
0
40
2
0
CIRCLE
8
HOLES
10
303
20
100.33459118601273
30
0
40
2
0
CIRCLE
8
HOLES
10
12
20
105.53074360871936
30
0
40
2
0
CIRCLE
8
HOLES
10
18
20
105.53074360871936
30
0
40
2
0
CIRCLE
8
HOLES
10
24
20
105.53074360871936
30
0
40
2
0
CIRCLE
8
HOLES
10
30
20
105.53074360871936
30
0
40
2
0
CIRCLE
8
HOLES
10
36
20
105.53074360871936
30
0
40
2
0
CIRCLE
8
HOLES
10
42
20
105.53074360871936
30
0
40
2
0
CIRCLE
8
HOLES
10
48
20
105.53074360871936
30
0
40
2
0
CIRCLE
8
HOLES
10
54
20
105.53074360871936
30
0
40
2
0
CIRCLE
8
HOLES
10
60
20
105.53074360871936
30
0
40
2
0
CIRCLE
8
HOLES
10
66
20
105.53074360871936
30
0
40
2
0
CIRCLE
8
HOLES
10
72
20
105.53074360871936
30
0
40
2
0
CIRCLE
8
HOLES
10
78
20
105.53074360871936
30
0
40
2
0
CIRCLE
8
HOLES
10
84
20
105.53074360871936
30
0
40
2
0
CIRCLE
8
HOLES
10
90
20
105.53074360871936
30
0
40
2
0
CIRCLE
8
HOLES
10
96
20
105.53074360871936
30
0
40
2
0
CIRCLE
8
HOLES
10
102
20
105.53074360871936
30
0
40
2
0
CIRCLE
8
HOLES
10
108
20
105.53074360871936
30
0
40
2
0
CIRCLE
8
HOLES
10
114
20
105.53074360871936
30
0
40
2
0
CIRCLE
8
HOLES
10
120
20
105.53074360871936
30
0
40
2
0
CIRCLE
8
HOLES
10
126
20
105.53074360871936
30
0
40
2
0
CIRCLE
8
HOLES
10
132
20
105.53074360871936
30
0
40
2
0
CIRCLE
8
HOLES
10
138
20
105.53074360871936
30
0
40
2
0
CIRCLE
8
HOLES
10
144
20
105.53074360871936
30
0
40
2
0
CIRCLE
8
HOLES
10
150
20
105.53074360871936
30
0
40
2
0
CIRCLE
8
HOLES
10
156
20
105.53074360871936
30
0
40
2
0
CIRCLE
8
HOLES
10
162
20
105.53074360871936
30
0
40
2
0
CIRCLE
8
HOLES
10
168
20
105.53074360871936
30
0
40
2
0
CIRCLE
8
HOLES
10
174
20
105.53074360871936
30
0
40
2
0
CIRCLE
8
HOLES
10
180
20
105.53074360871936
30
0
40
2
0
CIRCLE
8
HOLES
10
186
20
105.53074360871936
30
0
40
2
0
CIRCLE
8
HOLES
10
192
20
105.53074360871936
30
0
40
2
0
CIRCLE
8
HOLES
10
198
20
105.53074360871936
30
0
40
2
0
CIRCLE
8
HOLES
10
204
20
105.53074360871936
30
0
40
2
0
CIRCLE
8
HOLES
10
210
20
105.53074360871936
30
0
40
2
0
CIRCLE
8
HOLES
10
216
20
105.53074360871936
30
0
40
2
0
CIRCLE
8
HOLES
10
222
20
105.53074360871936
30
0
40
2
0
CIRCLE
8
HOLES
10
228
20
105.53074360871936
30
0
40
2
0
CIRCLE
8
HOLES
10
234
20
105.53074360871936
30
0
40
2
0
CIRCLE
8
HOLES
10
240
20
105.53074360871936
30
0
40
2
0
CIRCLE
8
HOLES
10
246
20
105.53074360871936
30
0
40
2
0
CIRCLE
8
HOLES
10
252
20
105.53074360871936
30
0
40
2
0
CIRCLE
8
HOLES
10
258
20
105.53074360871936
30
0
40
2
0
CIRCLE
8
HOLES
10
264
20
105.53074360871936
30
0
40
2
0
CIRCLE
8
HOLES
10
270
20
105.53074360871936
30
0
40
2
0
CIRCLE
8
HOLES
10
276
20
105.53074360871936
30
0
40
2
0
CIRCLE
8
HOLES
10
282
20
105.53074360871936
30
0
40
2
0
CIRCLE
8
HOLES
10
288
20
105.53074360871936
30
0
40
2
0
CIRCLE
8
HOLES
10
294
20
105.53074360871936
30
0
40
2
0
CIRCLE
8
HOLES
10
300
20
105.53074360871936
30
0
40
2
0
CIRCLE
8
HOLES
10
306
20
105.53074360871936
30
0
40
2
0
CIRCLE
8
HOLES
10
15
20
110.726896031426
30
0
40
2
0
CIRCLE
8
HOLES
10
21
20
110.726896031426
30
0
40
2
0
CIRCLE
8
HOLES
10
27
20
110.726896031426
30
0
40
2
0
CIRCLE
8
HOLES
10
33
20
110.726896031426
30
0
40
2
0
CIRCLE
8
HOLES
10
39
20
110.726896031426
30
0
40
2
0
CIRCLE
8
HOLES
10
45
20
110.726896031426
30
0
40
2
0
CIRCLE
8
HOLES
10
51
20
110.726896031426
30
0
40
2
0
CIRCLE
8
HOLES
10
57
20
110.726896031426
30
0
40
2
0
CIRCLE
8
HOLES
10
63
20
110.726896031426
30
0
40
2
0
CIRCLE
8
HOLES
10
69
20
110.726896031426
30
0
40
2
0
CIRCLE
8
HOLES
10
75
20
110.726896031426
30
0
40
2
0
CIRCLE
8
HOLES
10
81
20
110.726896031426
30
0
40
2
0
CIRCLE
8
HOLES
10
87
20
110.726896031426
30
0
40
2
0
CIRCLE
8
HOLES
10
93
20
110.726896031426
30
0
40
2
0
CIRCLE
8
HOLES
10
99
20
110.726896031426
30
0
40
2
0
CIRCLE
8
HOLES
10
105
20
110.726896031426
30
0
40
2
0
CIRCLE
8
HOLES
10
111
20
110.726896031426
30
0
40
2
0
CIRCLE
8
HOLES
10
117
20
110.726896031426
30
0
40
2
0
CIRCLE
8
HOLES
10
123
20
110.726896031426
30
0
40
2
0
CIRCLE
8
HOLES
10
129
20
110.726896031426
30
0
40
2
0
CIRCLE
8
HOLES
10
135
20
110.726896031426
30
0
40
2
0
CIRCLE
8
HOLES
10
141
20
110.726896031426
30
0
40
2
0
CIRCLE
8
HOLES
10
147
20
110.726896031426
30
0
40
2
0
CIRCLE
8
HOLES
10
153
20
110.726896031426
30
0
40
2
0
CIRCLE
8
HOLES
10
159
20
110.726896031426
30
0
40
2
0
CIRCLE
8
HOLES
10
165
20
110.726896031426
30
0
40
2
0
CIRCLE
8
HOLES
10
171
20
110.726896031426
30
0
40
2
0
CIRCLE
8
HOLES
10
177
20
110.726896031426
30
0
40
2
0
CIRCLE
8
HOLES
10
183
20
110.726896031426
30
0
40
2
0
CIRCLE
8
HOLES
10
189
20
110.726896031426
30
0
40
2
0
CIRCLE
8
HOLES
10
195
20
110.726896031426
30
0
40
2
0
CIRCLE
8
HOLES
10
201
20
110.726896031426
30
0
40
2
0
CIRCLE
8
HOLES
10
207
20
110.726896031426
30
0
40
2
0
CIRCLE
8
HOLES
10
213
20
110.726896031426
30
0
40
2
0
CIRCLE
8
HOLES
10
219
20
110.726896031426
30
0
40
2
0
CIRCLE
8
HOLES
10
225
20
110.726896031426
30
0
40
2
0
CIRCLE
8
HOLES
10
231
20
110.726896031426
30
0
40
2
0
CIRCLE
8
HOLES
10
237
20
110.726896031426
30
0
40
2
0
CIRCLE
8
HOLES
10
243
20
110.726896031426
30
0
40
2
0
CIRCLE
8
HOLES
10
249
20
110.726896031426
30
0
40
2
0
CIRCLE
8
HOLES
10
255
20
110.726896031426
30
0
40
2
0
CIRCLE
8
HOLES
10
261
20
110.726896031426
30
0
40
2
0
CIRCLE
8
HOLES
10
267
20
110.726896031426
30
0
40
2
0
CIRCLE
8
HOLES
10
273
20
110.726896031426
30
0
40
2
0
CIRCLE
8
HOLES
10
279
20
110.726896031426
30
0
40
2
0
CIRCLE
8
HOLES
10
285
20
110.726896031426
30
0
40
2
0
CIRCLE
8
HOLES
10
291
20
110.726896031426
30
0
40
2
0
CIRCLE
8
HOLES
10
297
20
110.726896031426
30
0
40
2
0
CIRCLE
8
HOLES
10
303
20
110.726896031426
30
0
40
2
0
CIRCLE
8
HOLES
10
12
20
115.92304845413263
30
0
40
2
0
CIRCLE
8
HOLES
10
18
20
115.92304845413263
30
0
40
2
0
CIRCLE
8
HOLES
10
24
20
115.92304845413263
30
0
40
2
0
CIRCLE
8
HOLES
10
30
20
115.92304845413263
30
0
40
2
0
CIRCLE
8
HOLES
10
36
20
115.92304845413263
30
0
40
2
0
CIRCLE
8
HOLES
10
42
20
115.92304845413263
30
0
40
2
0
CIRCLE
8
HOLES
10
48
20
115.92304845413263
30
0
40
2
0
CIRCLE
8
HOLES
10
54
20
115.92304845413263
30
0
40
2
0
CIRCLE
8
HOLES
10
60
20
115.92304845413263
30
0
40
2
0
CIRCLE
8
HOLES
10
66
20
115.92304845413263
30
0
40
2
0
CIRCLE
8
HOLES
10
72
20
115.92304845413263
30
0
40
2
0
CIRCLE
8
HOLES
10
78
20
115.92304845413263
30
0
40
2
0
CIRCLE
8
HOLES
10
84
20
115.92304845413263
30
0
40
2
0
CIRCLE
8
HOLES
10
90
20
115.92304845413263
30
0
40
2
0
CIRCLE
8
HOLES
10
96
20
115.92304845413263
30
0
40
2
0
CIRCLE
8
HOLES
10
102
20
115.92304845413263
30
0
40
2
0
CIRCLE
8
HOLES
10
108
20
115.92304845413263
30
0
40
2
0
CIRCLE
8
HOLES
10
114
20
115.92304845413263
30
0
40
2
0
CIRCLE
8
HOLES
10
120
20
115.92304845413263
30
0
40
2
0
CIRCLE
8
HOLES
10
126
20
115.92304845413263
30
0
40
2
0
CIRCLE
8
HOLES
10
132
20
115.92304845413263
30
0
40
2
0
CIRCLE
8
HOLES
10
138
20
115.92304845413263
30
0
40
2
0
CIRCLE
8
HOLES
10
144
20
115.92304845413263
30
0
40
2
0
CIRCLE
8
HOLES
10
150
20
115.92304845413263
30
0
40
2
0
CIRCLE
8
HOLES
10
156
20
115.92304845413263
30
0
40
2
0
CIRCLE
8
HOLES
10
162
20
115.92304845413263
30
0
40
2
0
CIRCLE
8
HOLES
10
168
20
115.92304845413263
30
0
40
2
0
CIRCLE
8
HOLES
10
174
20
115.92304845413263
30
0
40
2
0
CIRCLE
8
HOLES
10
180
20
115.92304845413263
30
0
40
2
0
CIRCLE
8
HOLES
10
186
20
115.92304845413263
30
0
40
2
0
CIRCLE
8
HOLES
10
192
20
115.92304845413263
30
0
40
2
0
CIRCLE
8
HOLES
10
198
20
115.92304845413263
30
0
40
2
0
CIRCLE
8
HOLES
10
204
20
115.92304845413263
30
0
40
2
0
CIRCLE
8
HOLES
10
210
20
115.92304845413263
30
0
40
2
0
CIRCLE
8
HOLES
10
216
20
115.92304845413263
30
0
40
2
0
CIRCLE
8
HOLES
10
222
20
115.92304845413263
30
0
40
2
0
CIRCLE
8
HOLES
10
228
20
115.92304845413263
30
0
40
2
0
CIRCLE
8
HOLES
10
234
20
115.92304845413263
30
0
40
2
0
CIRCLE
8
HOLES
10
240
20
115.92304845413263
30
0
40
2
0
CIRCLE
8
HOLES
10
246
20
115.92304845413263
30
0
40
2
0
CIRCLE
8
HOLES
10
252
20
115.92304845413263
30
0
40
2
0
CIRCLE
8
HOLES
10
258
20
115.92304845413263
30
0
40
2
0
CIRCLE
8
HOLES
10
264
20
115.92304845413263
30
0
40
2
0
CIRCLE
8
HOLES
10
270
20
115.92304845413263
30
0
40
2
0
CIRCLE
8
HOLES
10
276
20
115.92304845413263
30
0
40
2
0
CIRCLE
8
HOLES
10
282
20
115.92304845413263
30
0
40
2
0
CIRCLE
8
HOLES
10
288
20
115.92304845413263
30
0
40
2
0
CIRCLE
8
HOLES
10
294
20
115.92304845413263
30
0
40
2
0
CIRCLE
8
HOLES
10
300
20
115.92304845413263
30
0
40
2
0
CIRCLE
8
HOLES
10
306
20
115.92304845413263
30
0
40
2
0
CIRCLE
8
HOLES
10
15
20
121.11920087683926
30
0
40
2
0
CIRCLE
8
HOLES
10
21
20
121.11920087683926
30
0
40
2
0
CIRCLE
8
HOLES
10
27
20
121.11920087683926
30
0
40
2
0
CIRCLE
8
HOLES
10
33
20
121.11920087683926
30
0
40
2
0
CIRCLE
8
HOLES
10
39
20
121.11920087683926
30
0
40
2
0
CIRCLE
8
HOLES
10
45
20
121.11920087683926
30
0
40
2
0
CIRCLE
8
HOLES
10
51
20
121.11920087683926
30
0
40
2
0
CIRCLE
8
HOLES
10
57
20
121.11920087683926
30
0
40
2
0
CIRCLE
8
HOLES
10
63
20
121.11920087683926
30
0
40
2
0
CIRCLE
8
HOLES
10
69
20
121.11920087683926
30
0
40
2
0
CIRCLE
8
HOLES
10
75
20
121.11920087683926
30
0
40
2
0
CIRCLE
8
HOLES
10
81
20
121.11920087683926
30
0
40
2
0
CIRCLE
8
HOLES
10
87
20
121.11920087683926
30
0
40
2
0
CIRCLE
8
HOLES
10
93
20
121.11920087683926
30
0
40
2
0
CIRCLE
8
HOLES
10
99
20
121.11920087683926
30
0
40
2
0
CIRCLE
8
HOLES
10
105
20
121.11920087683926
30
0
40
2
0
CIRCLE
8
HOLES
10
111
20
121.11920087683926
30
0
40
2
0
CIRCLE
8
HOLES
10
117
20
121.11920087683926
30
0
40
2
0
CIRCLE
8
HOLES
10
123
20
121.11920087683926
30
0
40
2
0
CIRCLE
8
HOLES
10
129
20
121.11920087683926
30
0
40
2
0
CIRCLE
8
HOLES
10
135
20
121.11920087683926
30
0
40
2
0
CIRCLE
8
HOLES
10
141
20
121.11920087683926
30
0
40
2
0
CIRCLE
8
HOLES
10
147
20
121.11920087683926
30
0
40
2
0
CIRCLE
8
HOLES
10
153
20
121.11920087683926
30
0
40
2
0
CIRCLE
8
HOLES
10
159
20
121.11920087683926
30
0
40
2
0
CIRCLE
8
HOLES
10
165
20
121.11920087683926
30
0
40
2
0
CIRCLE
8
HOLES
10
171
20
121.11920087683926
30
0
40
2
0
CIRCLE
8
HOLES
10
177
20
121.11920087683926
30
0
40
2
0
CIRCLE
8
HOLES
10
183
20
121.11920087683926
30
0
40
2
0
CIRCLE
8
HOLES
10
189
20
121.11920087683926
30
0
40
2
0
CIRCLE
8
HOLES
10
195
20
121.11920087683926
30
0
40
2
0
CIRCLE
8
HOLES
10
201
20
121.11920087683926
30
0
40
2
0
CIRCLE
8
HOLES
10
207
20
121.11920087683926
30
0
40
2
0
CIRCLE
8
HOLES
10
213
20
121.11920087683926
30
0
40
2
0
CIRCLE
8
HOLES
10
219
20
121.11920087683926
30
0
40
2
0
CIRCLE
8
HOLES
10
225
20
121.11920087683926
30
0
40
2
0
CIRCLE
8
HOLES
10
231
20
121.11920087683926
30
0
40
2
0
CIRCLE
8
HOLES
10
237
20
121.11920087683926
30
0
40
2
0
CIRCLE
8
HOLES
10
243
20
121.11920087683926
30
0
40
2
0
CIRCLE
8
HOLES
10
249
20
121.11920087683926
30
0
40
2
0
CIRCLE
8
HOLES
10
255
20
121.11920087683926
30
0
40
2
0
CIRCLE
8
HOLES
10
261
20
121.11920087683926
30
0
40
2
0
CIRCLE
8
HOLES
10
267
20
121.11920087683926
30
0
40
2
0
CIRCLE
8
HOLES
10
273
20
121.11920087683926
30
0
40
2
0
CIRCLE
8
HOLES
10
279
20
121.11920087683926
30
0
40
2
0
CIRCLE
8
HOLES
10
285
20
121.11920087683926
30
0
40
2
0
CIRCLE
8
HOLES
10
291
20
121.11920087683926
30
0
40
2
0
CIRCLE
8
HOLES
10
297
20
121.11920087683926
30
0
40
2
0
CIRCLE
8
HOLES
10
303
20
121.11920087683926
30
0
40
2
0
CIRCLE
8
HOLES
10
12
20
126.31535329954589
30
0
40
2
0
CIRCLE
8
HOLES
10
18
20
126.31535329954589
30
0
40
2
0
CIRCLE
8
HOLES
10
24
20
126.31535329954589
30
0
40
2
0
CIRCLE
8
HOLES
10
30
20
126.31535329954589
30
0
40
2
0
CIRCLE
8
HOLES
10
36
20
126.31535329954589
30
0
40
2
0
CIRCLE
8
HOLES
10
42
20
126.31535329954589
30
0
40
2
0
CIRCLE
8
HOLES
10
48
20
126.31535329954589
30
0
40
2
0
CIRCLE
8
HOLES
10
54
20
126.31535329954589
30
0
40
2
0
CIRCLE
8
HOLES
10
60
20
126.31535329954589
30
0
40
2
0
CIRCLE
8
HOLES
10
66
20
126.31535329954589
30
0
40
2
0
CIRCLE
8
HOLES
10
72
20
126.31535329954589
30
0
40
2
0
CIRCLE
8
HOLES
10
78
20
126.31535329954589
30
0
40
2
0
CIRCLE
8
HOLES
10
84
20
126.31535329954589
30
0
40
2
0
CIRCLE
8
HOLES
10
90
20
126.31535329954589
30
0
40
2
0
CIRCLE
8
HOLES
10
96
20
126.31535329954589
30
0
40
2
0
CIRCLE
8
HOLES
10
102
20
126.31535329954589
30
0
40
2
0
CIRCLE
8
HOLES
10
108
20
126.31535329954589
30
0
40
2
0
CIRCLE
8
HOLES
10
114
20
126.31535329954589
30
0
40
2
0
CIRCLE
8
HOLES
10
120
20
126.31535329954589
30
0
40
2
0
CIRCLE
8
HOLES
10
126
20
126.31535329954589
30
0
40
2
0
CIRCLE
8
HOLES
10
132
20
126.31535329954589
30
0
40
2
0
CIRCLE
8
HOLES
10
138
20
126.31535329954589
30
0
40
2
0
CIRCLE
8
HOLES
10
144
20
126.31535329954589
30
0
40
2
0
CIRCLE
8
HOLES
10
150
20
126.31535329954589
30
0
40
2
0
CIRCLE
8
HOLES
10
156
20
126.31535329954589
30
0
40
2
0
CIRCLE
8
HOLES
10
162
20
126.31535329954589
30
0
40
2
0
CIRCLE
8
HOLES
10
168
20
126.31535329954589
30
0
40
2
0
CIRCLE
8
HOLES
10
174
20
126.31535329954589
30
0
40
2
0
CIRCLE
8
HOLES
10
180
20
126.31535329954589
30
0
40
2
0
CIRCLE
8
HOLES
10
186
20
126.31535329954589
30
0
40
2
0
CIRCLE
8
HOLES
10
192
20
126.31535329954589
30
0
40
2
0
CIRCLE
8
HOLES
10
198
20
126.31535329954589
30
0
40
2
0
CIRCLE
8
HOLES
10
204
20
126.31535329954589
30
0
40
2
0
CIRCLE
8
HOLES
10
210
20
126.31535329954589
30
0
40
2
0
CIRCLE
8
HOLES
10
216
20
126.31535329954589
30
0
40
2
0
CIRCLE
8
HOLES
10
222
20
126.31535329954589
30
0
40
2
0
CIRCLE
8
HOLES
10
228
20
126.31535329954589
30
0
40
2
0
CIRCLE
8
HOLES
10
234
20
126.31535329954589
30
0
40
2
0
CIRCLE
8
HOLES
10
240
20
126.31535329954589
30
0
40
2
0
CIRCLE
8
HOLES
10
246
20
126.31535329954589
30
0
40
2
0
CIRCLE
8
HOLES
10
252
20
126.31535329954589
30
0
40
2
0
CIRCLE
8
HOLES
10
258
20
126.31535329954589
30
0
40
2
0
CIRCLE
8
HOLES
10
264
20
126.31535329954589
30
0
40
2
0
CIRCLE
8
HOLES
10
270
20
126.31535329954589
30
0
40
2
0
CIRCLE
8
HOLES
10
276
20
126.31535329954589
30
0
40
2
0
CIRCLE
8
HOLES
10
282
20
126.31535329954589
30
0
40
2
0
CIRCLE
8
HOLES
10
288
20
126.31535329954589
30
0
40
2
0
CIRCLE
8
HOLES
10
294
20
126.31535329954589
30
0
40
2
0
CIRCLE
8
HOLES
10
300
20
126.31535329954589
30
0
40
2
0
CIRCLE
8
HOLES
10
306
20
126.31535329954589
30
0
40
2
0
CIRCLE
8
HOLES
10
15
20
131.51150572225254
30
0
40
2
0
CIRCLE
8
HOLES
10
21
20
131.51150572225254
30
0
40
2
0
CIRCLE
8
HOLES
10
27
20
131.51150572225254
30
0
40
2
0
CIRCLE
8
HOLES
10
33
20
131.51150572225254
30
0
40
2
0
CIRCLE
8
HOLES
10
39
20
131.51150572225254
30
0
40
2
0
CIRCLE
8
HOLES
10
45
20
131.51150572225254
30
0
40
2
0
CIRCLE
8
HOLES
10
51
20
131.51150572225254
30
0
40
2
0
CIRCLE
8
HOLES
10
57
20
131.51150572225254
30
0
40
2
0
CIRCLE
8
HOLES
10
63
20
131.51150572225254
30
0
40
2
0
CIRCLE
8
HOLES
10
69
20
131.51150572225254
30
0
40
2
0
CIRCLE
8
HOLES
10
75
20
131.51150572225254
30
0
40
2
0
CIRCLE
8
HOLES
10
81
20
131.51150572225254
30
0
40
2
0
CIRCLE
8
HOLES
10
87
20
131.51150572225254
30
0
40
2
0
CIRCLE
8
HOLES
10
93
20
131.51150572225254
30
0
40
2
0
CIRCLE
8
HOLES
10
99
20
131.51150572225254
30
0
40
2
0
CIRCLE
8
HOLES
10
105
20
131.51150572225254
30
0
40
2
0
CIRCLE
8
HOLES
10
111
20
131.51150572225254
30
0
40
2
0
CIRCLE
8
HOLES
10
117
20
131.51150572225254
30
0
40
2
0
CIRCLE
8
HOLES
10
123
20
131.51150572225254
30
0
40
2
0
CIRCLE
8
HOLES
10
129
20
131.51150572225254
30
0
40
2
0
CIRCLE
8
HOLES
10
135
20
131.51150572225254
30
0
40
2
0
CIRCLE
8
HOLES
10
141
20
131.51150572225254
30
0
40
2
0
CIRCLE
8
HOLES
10
147
20
131.51150572225254
30
0
40
2
0
CIRCLE
8
HOLES
10
153
20
131.51150572225254
30
0
40
2
0
CIRCLE
8
HOLES
10
159
20
131.51150572225254
30
0
40
2
0
CIRCLE
8
HOLES
10
165
20
131.51150572225254
30
0
40
2
0
CIRCLE
8
HOLES
10
171
20
131.51150572225254
30
0
40
2
0
CIRCLE
8
HOLES
10
177
20
131.51150572225254
30
0
40
2
0
CIRCLE
8
HOLES
10
183
20
131.51150572225254
30
0
40
2
0
CIRCLE
8
HOLES
10
189
20
131.51150572225254
30
0
40
2
0
CIRCLE
8
HOLES
10
195
20
131.51150572225254
30
0
40
2
0
CIRCLE
8
HOLES
10
201
20
131.51150572225254
30
0
40
2
0
CIRCLE
8
HOLES
10
207
20
131.51150572225254
30
0
40
2
0
CIRCLE
8
HOLES
10
213
20
131.51150572225254
30
0
40
2
0
CIRCLE
8
HOLES
10
219
20
131.51150572225254
30
0
40
2
0
CIRCLE
8
HOLES
10
225
20
131.51150572225254
30
0
40
2
0
CIRCLE
8
HOLES
10
231
20
131.51150572225254
30
0
40
2
0
CIRCLE
8
HOLES
10
237
20
131.51150572225254
30
0
40
2
0
CIRCLE
8
HOLES
10
243
20
131.51150572225254
30
0
40
2
0
CIRCLE
8
HOLES
10
249
20
131.51150572225254
30
0
40
2
0
CIRCLE
8
HOLES
10
255
20
131.51150572225254
30
0
40
2
0
CIRCLE
8
HOLES
10
261
20
131.51150572225254
30
0
40
2
0
CIRCLE
8
HOLES
10
267
20
131.51150572225254
30
0
40
2
0
CIRCLE
8
HOLES
10
273
20
131.51150572225254
30
0
40
2
0
CIRCLE
8
HOLES
10
279
20
131.51150572225254
30
0
40
2
0
CIRCLE
8
HOLES
10
285
20
131.51150572225254
30
0
40
2
0
CIRCLE
8
HOLES
10
291
20
131.51150572225254
30
0
40
2
0
CIRCLE
8
HOLES
10
297
20
131.51150572225254
30
0
40
2
0
CIRCLE
8
HOLES
10
303
20
131.51150572225254
30
0
40
2
0
CIRCLE
8
HOLES
10
12
20
136.70765814495917
30
0
40
2
0
CIRCLE
8
HOLES
10
18
20
136.70765814495917
30
0
40
2
0
CIRCLE
8
HOLES
10
24
20
136.70765814495917
30
0
40
2
0
CIRCLE
8
HOLES
10
30
20
136.70765814495917
30
0
40
2
0
CIRCLE
8
HOLES
10
36
20
136.70765814495917
30
0
40
2
0
CIRCLE
8
HOLES
10
42
20
136.70765814495917
30
0
40
2
0
CIRCLE
8
HOLES
10
48
20
136.70765814495917
30
0
40
2
0
CIRCLE
8
HOLES
10
54
20
136.70765814495917
30
0
40
2
0
CIRCLE
8
HOLES
10
60
20
136.70765814495917
30
0
40
2
0
CIRCLE
8
HOLES
10
66
20
136.70765814495917
30
0
40
2
0
CIRCLE
8
HOLES
10
72
20
136.70765814495917
30
0
40
2
0
CIRCLE
8
HOLES
10
78
20
136.70765814495917
30
0
40
2
0
CIRCLE
8
HOLES
10
84
20
136.70765814495917
30
0
40
2
0
CIRCLE
8
HOLES
10
90
20
136.70765814495917
30
0
40
2
0
CIRCLE
8
HOLES
10
96
20
136.70765814495917
30
0
40
2
0
CIRCLE
8
HOLES
10
102
20
136.70765814495917
30
0
40
2
0
CIRCLE
8
HOLES
10
108
20
136.70765814495917
30
0
40
2
0
CIRCLE
8
HOLES
10
114
20
136.70765814495917
30
0
40
2
0
CIRCLE
8
HOLES
10
120
20
136.70765814495917
30
0
40
2
0
CIRCLE
8
HOLES
10
126
20
136.70765814495917
30
0
40
2
0
CIRCLE
8
HOLES
10
132
20
136.70765814495917
30
0
40
2
0
CIRCLE
8
HOLES
10
138
20
136.70765814495917
30
0
40
2
0
CIRCLE
8
HOLES
10
144
20
136.70765814495917
30
0
40
2
0
CIRCLE
8
HOLES
10
150
20
136.70765814495917
30
0
40
2
0
CIRCLE
8
HOLES
10
156
20
136.70765814495917
30
0
40
2
0
CIRCLE
8
HOLES
10
162
20
136.70765814495917
30
0
40
2
0
CIRCLE
8
HOLES
10
168
20
136.70765814495917
30
0
40
2
0
CIRCLE
8
HOLES
10
174
20
136.70765814495917
30
0
40
2
0
CIRCLE
8
HOLES
10
180
20
136.70765814495917
30
0
40
2
0
CIRCLE
8
HOLES
10
186
20
136.70765814495917
30
0
40
2
0
CIRCLE
8
HOLES
10
192
20
136.70765814495917
30
0
40
2
0
CIRCLE
8
HOLES
10
198
20
136.70765814495917
30
0
40
2
0
CIRCLE
8
HOLES
10
204
20
136.70765814495917
30
0
40
2
0
CIRCLE
8
HOLES
10
210
20
136.70765814495917
30
0
40
2
0
CIRCLE
8
HOLES
10
216
20
136.70765814495917
30
0
40
2
0
CIRCLE
8
HOLES
10
222
20
136.70765814495917
30
0
40
2
0
CIRCLE
8
HOLES
10
228
20
136.70765814495917
30
0
40
2
0
CIRCLE
8
HOLES
10
234
20
136.70765814495917
30
0
40
2
0
CIRCLE
8
HOLES
10
240
20
136.70765814495917
30
0
40
2
0
CIRCLE
8
HOLES
10
246
20
136.70765814495917
30
0
40
2
0
CIRCLE
8
HOLES
10
252
20
136.70765814495917
30
0
40
2
0
CIRCLE
8
HOLES
10
258
20
136.70765814495917
30
0
40
2
0
CIRCLE
8
HOLES
10
264
20
136.70765814495917
30
0
40
2
0
CIRCLE
8
HOLES
10
270
20
136.70765814495917
30
0
40
2
0
CIRCLE
8
HOLES
10
276
20
136.70765814495917
30
0
40
2
0
CIRCLE
8
HOLES
10
282
20
136.70765814495917
30
0
40
2
0
CIRCLE
8
HOLES
10
288
20
136.70765814495917
30
0
40
2
0
CIRCLE
8
HOLES
10
294
20
136.70765814495917
30
0
40
2
0
CIRCLE
8
HOLES
10
300
20
136.70765814495917
30
0
40
2
0
CIRCLE
8
HOLES
10
306
20
136.70765814495917
30
0
40
2
0
CIRCLE
8
HOLES
10
15
20
141.9038105676658
30
0
40
2
0
CIRCLE
8
HOLES
10
21
20
141.9038105676658
30
0
40
2
0
CIRCLE
8
HOLES
10
27
20
141.9038105676658
30
0
40
2
0
CIRCLE
8
HOLES
10
33
20
141.9038105676658
30
0
40
2
0
CIRCLE
8
HOLES
10
39
20
141.9038105676658
30
0
40
2
0
CIRCLE
8
HOLES
10
45
20
141.9038105676658
30
0
40
2
0
CIRCLE
8
HOLES
10
51
20
141.9038105676658
30
0
40
2
0
CIRCLE
8
HOLES
10
57
20
141.9038105676658
30
0
40
2
0
CIRCLE
8
HOLES
10
63
20
141.9038105676658
30
0
40
2
0
CIRCLE
8
HOLES
10
69
20
141.9038105676658
30
0
40
2
0
CIRCLE
8
HOLES
10
75
20
141.9038105676658
30
0
40
2
0
CIRCLE
8
HOLES
10
81
20
141.9038105676658
30
0
40
2
0
CIRCLE
8
HOLES
10
87
20
141.9038105676658
30
0
40
2
0
CIRCLE
8
HOLES
10
93
20
141.9038105676658
30
0
40
2
0
CIRCLE
8
HOLES
10
99
20
141.9038105676658
30
0
40
2
0
CIRCLE
8
HOLES
10
105
20
141.9038105676658
30
0
40
2
0
CIRCLE
8
HOLES
10
111
20
141.9038105676658
30
0
40
2
0
CIRCLE
8
HOLES
10
117
20
141.9038105676658
30
0
40
2
0
CIRCLE
8
HOLES
10
123
20
141.9038105676658
30
0
40
2
0
CIRCLE
8
HOLES
10
129
20
141.9038105676658
30
0
40
2
0
CIRCLE
8
HOLES
10
135
20
141.9038105676658
30
0
40
2
0
CIRCLE
8
HOLES
10
141
20
141.9038105676658
30
0
40
2
0
CIRCLE
8
HOLES
10
147
20
141.9038105676658
30
0
40
2
0
CIRCLE
8
HOLES
10
153
20
141.9038105676658
30
0
40
2
0
CIRCLE
8
HOLES
10
159
20
141.9038105676658
30
0
40
2
0
CIRCLE
8
HOLES
10
165
20
141.9038105676658
30
0
40
2
0
CIRCLE
8
HOLES
10
171
20
141.9038105676658
30
0
40
2
0
CIRCLE
8
HOLES
10
177
20
141.9038105676658
30
0
40
2
0
CIRCLE
8
HOLES
10
183
20
141.9038105676658
30
0
40
2
0
CIRCLE
8
HOLES
10
189
20
141.9038105676658
30
0
40
2
0
CIRCLE
8
HOLES
10
195
20
141.9038105676658
30
0
40
2
0
CIRCLE
8
HOLES
10
201
20
141.9038105676658
30
0
40
2
0
CIRCLE
8
HOLES
10
207
20
141.9038105676658
30
0
40
2
0
CIRCLE
8
HOLES
10
213
20
141.9038105676658
30
0
40
2
0
CIRCLE
8
HOLES
10
219
20
141.9038105676658
30
0
40
2
0
CIRCLE
8
HOLES
10
225
20
141.9038105676658
30
0
40
2
0
CIRCLE
8
HOLES
10
231
20
141.9038105676658
30
0
40
2
0
CIRCLE
8
HOLES
10
237
20
141.9038105676658
30
0
40
2
0
CIRCLE
8
HOLES
10
243
20
141.9038105676658
30
0
40
2
0
CIRCLE
8
HOLES
10
249
20
141.9038105676658
30
0
40
2
0
CIRCLE
8
HOLES
10
255
20
141.9038105676658
30
0
40
2
0
CIRCLE
8
HOLES
10
261
20
141.9038105676658
30
0
40
2
0
CIRCLE
8
HOLES
10
267
20
141.9038105676658
30
0
40
2
0
CIRCLE
8
HOLES
10
273
20
141.9038105676658
30
0
40
2
0
CIRCLE
8
HOLES
10
279
20
141.9038105676658
30
0
40
2
0
CIRCLE
8
HOLES
10
285
20
141.9038105676658
30
0
40
2
0
CIRCLE
8
HOLES
10
291
20
141.9038105676658
30
0
40
2
0
CIRCLE
8
HOLES
10
297
20
141.9038105676658
30
0
40
2
0
CIRCLE
8
HOLES
10
303
20
141.9038105676658
30
0
40
2
0
CIRCLE
8
HOLES
10
12
20
147.09996299037243
30
0
40
2
0
CIRCLE
8
HOLES
10
18
20
147.09996299037243
30
0
40
2
0
CIRCLE
8
HOLES
10
24
20
147.09996299037243
30
0
40
2
0
CIRCLE
8
HOLES
10
30
20
147.09996299037243
30
0
40
2
0
CIRCLE
8
HOLES
10
36
20
147.09996299037243
30
0
40
2
0
CIRCLE
8
HOLES
10
42
20
147.09996299037243
30
0
40
2
0
CIRCLE
8
HOLES
10
48
20
147.09996299037243
30
0
40
2
0
CIRCLE
8
HOLES
10
54
20
147.09996299037243
30
0
40
2
0
CIRCLE
8
HOLES
10
60
20
147.09996299037243
30
0
40
2
0
CIRCLE
8
HOLES
10
66
20
147.09996299037243
30
0
40
2
0
CIRCLE
8
HOLES
10
72
20
147.09996299037243
30
0
40
2
0
CIRCLE
8
HOLES
10
78
20
147.09996299037243
30
0
40
2
0
CIRCLE
8
HOLES
10
84
20
147.09996299037243
30
0
40
2
0
CIRCLE
8
HOLES
10
90
20
147.09996299037243
30
0
40
2
0
CIRCLE
8
HOLES
10
96
20
147.09996299037243
30
0
40
2
0
CIRCLE
8
HOLES
10
102
20
147.09996299037243
30
0
40
2
0
CIRCLE
8
HOLES
10
108
20
147.09996299037243
30
0
40
2
0
CIRCLE
8
HOLES
10
114
20
147.09996299037243
30
0
40
2
0
CIRCLE
8
HOLES
10
120
20
147.09996299037243
30
0
40
2
0
CIRCLE
8
HOLES
10
126
20
147.09996299037243
30
0
40
2
0
CIRCLE
8
HOLES
10
132
20
147.09996299037243
30
0
40
2
0
CIRCLE
8
HOLES
10
138
20
147.09996299037243
30
0
40
2
0
CIRCLE
8
HOLES
10
144
20
147.09996299037243
30
0
40
2
0
CIRCLE
8
HOLES
10
150
20
147.09996299037243
30
0
40
2
0
CIRCLE
8
HOLES
10
156
20
147.09996299037243
30
0
40
2
0
CIRCLE
8
HOLES
10
162
20
147.09996299037243
30
0
40
2
0
CIRCLE
8
HOLES
10
168
20
147.09996299037243
30
0
40
2
0
CIRCLE
8
HOLES
10
174
20
147.09996299037243
30
0
40
2
0
CIRCLE
8
HOLES
10
180
20
147.09996299037243
30
0
40
2
0
CIRCLE
8
HOLES
10
186
20
147.09996299037243
30
0
40
2
0
CIRCLE
8
HOLES
10
192
20
147.09996299037243
30
0
40
2
0
CIRCLE
8
HOLES
10
198
20
147.09996299037243
30
0
40
2
0
CIRCLE
8
HOLES
10
204
20
147.09996299037243
30
0
40
2
0
CIRCLE
8
HOLES
10
210
20
147.09996299037243
30
0
40
2
0
CIRCLE
8
HOLES
10
216
20
147.09996299037243
30
0
40
2
0
CIRCLE
8
HOLES
10
222
20
147.09996299037243
30
0
40
2
0
CIRCLE
8
HOLES
10
228
20
147.09996299037243
30
0
40
2
0
CIRCLE
8
HOLES
10
234
20
147.09996299037243
30
0
40
2
0
CIRCLE
8
HOLES
10
240
20
147.09996299037243
30
0
40
2
0
CIRCLE
8
HOLES
10
246
20
147.09996299037243
30
0
40
2
0
CIRCLE
8
HOLES
10
252
20
147.09996299037243
30
0
40
2
0
CIRCLE
8
HOLES
10
258
20
147.09996299037243
30
0
40
2
0
CIRCLE
8
HOLES
10
264
20
147.09996299037243
30
0
40
2
0
CIRCLE
8
HOLES
10
270
20
147.09996299037243
30
0
40
2
0
CIRCLE
8
HOLES
10
276
20
147.09996299037243
30
0
40
2
0
CIRCLE
8
HOLES
10
282
20
147.09996299037243
30
0
40
2
0
CIRCLE
8
HOLES
10
288
20
147.09996299037243
30
0
40
2
0
CIRCLE
8
HOLES
10
294
20
147.09996299037243
30
0
40
2
0
CIRCLE
8
HOLES
10
300
20
147.09996299037243
30
0
40
2
0
CIRCLE
8
HOLES
10
306
20
147.09996299037243
30
0
40
2
0
CIRCLE
8
HOLES
10
15
20
152.29611541307906
30
0
40
2
0
CIRCLE
8
HOLES
10
21
20
152.29611541307906
30
0
40
2
0
CIRCLE
8
HOLES
10
27
20
152.29611541307906
30
0
40
2
0
CIRCLE
8
HOLES
10
33
20
152.29611541307906
30
0
40
2
0
CIRCLE
8
HOLES
10
39
20
152.29611541307906
30
0
40
2
0
CIRCLE
8
HOLES
10
45
20
152.29611541307906
30
0
40
2
0
CIRCLE
8
HOLES
10
51
20
152.29611541307906
30
0
40
2
0
CIRCLE
8
HOLES
10
57
20
152.29611541307906
30
0
40
2
0
CIRCLE
8
HOLES
10
63
20
152.29611541307906
30
0
40
2
0
CIRCLE
8
HOLES
10
69
20
152.29611541307906
30
0
40
2
0
CIRCLE
8
HOLES
10
75
20
152.29611541307906
30
0
40
2
0
CIRCLE
8
HOLES
10
81
20
152.29611541307906
30
0
40
2
0
CIRCLE
8
HOLES
10
87
20
152.29611541307906
30
0
40
2
0
CIRCLE
8
HOLES
10
93
20
152.29611541307906
30
0
40
2
0
CIRCLE
8
HOLES
10
99
20
152.29611541307906
30
0
40
2
0
CIRCLE
8
HOLES
10
105
20
152.29611541307906
30
0
40
2
0
CIRCLE
8
HOLES
10
111
20
152.29611541307906
30
0
40
2
0
CIRCLE
8
HOLES
10
117
20
152.29611541307906
30
0
40
2
0
CIRCLE
8
HOLES
10
123
20
152.29611541307906
30
0
40
2
0
CIRCLE
8
HOLES
10
129
20
152.29611541307906
30
0
40
2
0
CIRCLE
8
HOLES
10
135
20
152.29611541307906
30
0
40
2
0
CIRCLE
8
HOLES
10
141
20
152.29611541307906
30
0
40
2
0
CIRCLE
8
HOLES
10
147
20
152.29611541307906
30
0
40
2
0
CIRCLE
8
HOLES
10
153
20
152.29611541307906
30
0
40
2
0
CIRCLE
8
HOLES
10
159
20
152.29611541307906
30
0
40
2
0
CIRCLE
8
HOLES
10
165
20
152.29611541307906
30
0
40
2
0
CIRCLE
8
HOLES
10
171
20
152.29611541307906
30
0
40
2
0
CIRCLE
8
HOLES
10
177
20
152.29611541307906
30
0
40
2
0
CIRCLE
8
HOLES
10
183
20
152.29611541307906
30
0
40
2
0
CIRCLE
8
HOLES
10
189
20
152.29611541307906
30
0
40
2
0
CIRCLE
8
HOLES
10
195
20
152.29611541307906
30
0
40
2
0
CIRCLE
8
HOLES
10
201
20
152.29611541307906
30
0
40
2
0
CIRCLE
8
HOLES
10
207
20
152.29611541307906
30
0
40
2
0
CIRCLE
8
HOLES
10
213
20
152.29611541307906
30
0
40
2
0
CIRCLE
8
HOLES
10
219
20
152.29611541307906
30
0
40
2
0
CIRCLE
8
HOLES
10
225
20
152.29611541307906
30
0
40
2
0
CIRCLE
8
HOLES
10
231
20
152.29611541307906
30
0
40
2
0
CIRCLE
8
HOLES
10
237
20
152.29611541307906
30
0
40
2
0
CIRCLE
8
HOLES
10
243
20
152.29611541307906
30
0
40
2
0
CIRCLE
8
HOLES
10
249
20
152.29611541307906
30
0
40
2
0
CIRCLE
8
HOLES
10
255
20
152.29611541307906
30
0
40
2
0
CIRCLE
8
HOLES
10
261
20
152.29611541307906
30
0
40
2
0
CIRCLE
8
HOLES
10
267
20
152.29611541307906
30
0
40
2
0
CIRCLE
8
HOLES
10
273
20
152.29611541307906
30
0
40
2
0
CIRCLE
8
HOLES
10
279
20
152.29611541307906
30
0
40
2
0
CIRCLE
8
HOLES
10
285
20
152.29611541307906
30
0
40
2
0
CIRCLE
8
HOLES
10
291
20
152.29611541307906
30
0
40
2
0
CIRCLE
8
HOLES
10
297
20
152.29611541307906
30
0
40
2
0
CIRCLE
8
HOLES
10
303
20
152.29611541307906
30
0
40
2
0
CIRCLE
8
HOLES
10
12
20
157.4922678357857
30
0
40
2
0
CIRCLE
8
HOLES
10
18
20
157.4922678357857
30
0
40
2
0
CIRCLE
8
HOLES
10
24
20
157.4922678357857
30
0
40
2
0
CIRCLE
8
HOLES
10
30
20
157.4922678357857
30
0
40
2
0
CIRCLE
8
HOLES
10
36
20
157.4922678357857
30
0
40
2
0
CIRCLE
8
HOLES
10
42
20
157.4922678357857
30
0
40
2
0
CIRCLE
8
HOLES
10
48
20
157.4922678357857
30
0
40
2
0
CIRCLE
8
HOLES
10
54
20
157.4922678357857
30
0
40
2
0
CIRCLE
8
HOLES
10
60
20
157.4922678357857
30
0
40
2
0
CIRCLE
8
HOLES
10
66
20
157.4922678357857
30
0
40
2
0
CIRCLE
8
HOLES
10
72
20
157.4922678357857
30
0
40
2
0
CIRCLE
8
HOLES
10
78
20
157.4922678357857
30
0
40
2
0
CIRCLE
8
HOLES
10
84
20
157.4922678357857
30
0
40
2
0
CIRCLE
8
HOLES
10
90
20
157.4922678357857
30
0
40
2
0
CIRCLE
8
HOLES
10
96
20
157.4922678357857
30
0
40
2
0
CIRCLE
8
HOLES
10
102
20
157.4922678357857
30
0
40
2
0
CIRCLE
8
HOLES
10
108
20
157.4922678357857
30
0
40
2
0
CIRCLE
8
HOLES
10
114
20
157.4922678357857
30
0
40
2
0
CIRCLE
8
HOLES
10
120
20
157.4922678357857
30
0
40
2
0
CIRCLE
8
HOLES
10
126
20
157.4922678357857
30
0
40
2
0
CIRCLE
8
HOLES
10
132
20
157.4922678357857
30
0
40
2
0
CIRCLE
8
HOLES
10
138
20
157.4922678357857
30
0
40
2
0
CIRCLE
8
HOLES
10
144
20
157.4922678357857
30
0
40
2
0
CIRCLE
8
HOLES
10
150
20
157.4922678357857
30
0
40
2
0
CIRCLE
8
HOLES
10
156
20
157.4922678357857
30
0
40
2
0
CIRCLE
8
HOLES
10
162
20
157.4922678357857
30
0
40
2
0
CIRCLE
8
HOLES
10
168
20
157.4922678357857
30
0
40
2
0
CIRCLE
8
HOLES
10
174
20
157.4922678357857
30
0
40
2
0
CIRCLE
8
HOLES
10
180
20
157.4922678357857
30
0
40
2
0
CIRCLE
8
HOLES
10
186
20
157.4922678357857
30
0
40
2
0
CIRCLE
8
HOLES
10
192
20
157.4922678357857
30
0
40
2
0
CIRCLE
8
HOLES
10
198
20
157.4922678357857
30
0
40
2
0
CIRCLE
8
HOLES
10
204
20
157.4922678357857
30
0
40
2
0
CIRCLE
8
HOLES
10
210
20
157.4922678357857
30
0
40
2
0
CIRCLE
8
HOLES
10
216
20
157.4922678357857
30
0
40
2
0
CIRCLE
8
HOLES
10
222
20
157.4922678357857
30
0
40
2
0
CIRCLE
8
HOLES
10
228
20
157.4922678357857
30
0
40
2
0
CIRCLE
8
HOLES
10
234
20
157.4922678357857
30
0
40
2
0
CIRCLE
8
HOLES
10
240
20
157.4922678357857
30
0
40
2
0
CIRCLE
8
HOLES
10
246
20
157.4922678357857
30
0
40
2
0
CIRCLE
8
HOLES
10
252
20
157.4922678357857
30
0
40
2
0
CIRCLE
8
HOLES
10
258
20
157.4922678357857
30
0
40
2
0
CIRCLE
8
HOLES
10
264
20
157.4922678357857
30
0
40
2
0
CIRCLE
8
HOLES
10
270
20
157.4922678357857
30
0
40
2
0
CIRCLE
8
HOLES
10
276
20
157.4922678357857
30
0
40
2
0
CIRCLE
8
HOLES
10
282
20
157.4922678357857
30
0
40
2
0
CIRCLE
8
HOLES
10
288
20
157.4922678357857
30
0
40
2
0
CIRCLE
8
HOLES
10
294
20
157.4922678357857
30
0
40
2
0
CIRCLE
8
HOLES
10
300
20
157.4922678357857
30
0
40
2
0
CIRCLE
8
HOLES
10
306
20
157.4922678357857
30
0
40
2
0
CIRCLE
8
HOLES
10
15
20
162.68842025849233
30
0
40
2
0
CIRCLE
8
HOLES
10
21
20
162.68842025849233
30
0
40
2
0
CIRCLE
8
HOLES
10
27
20
162.68842025849233
30
0
40
2
0
CIRCLE
8
HOLES
10
33
20
162.68842025849233
30
0
40
2
0
CIRCLE
8
HOLES
10
39
20
162.68842025849233
30
0
40
2
0
CIRCLE
8
HOLES
10
45
20
162.68842025849233
30
0
40
2
0
CIRCLE
8
HOLES
10
51
20
162.68842025849233
30
0
40
2
0
CIRCLE
8
HOLES
10
57
20
162.68842025849233
30
0
40
2
0
CIRCLE
8
HOLES
10
63
20
162.68842025849233
30
0
40
2
0
CIRCLE
8
HOLES
10
69
20
162.68842025849233
30
0
40
2
0
CIRCLE
8
HOLES
10
75
20
162.68842025849233
30
0
40
2
0
CIRCLE
8
HOLES
10
81
20
162.68842025849233
30
0
40
2
0
CIRCLE
8
HOLES
10
87
20
162.68842025849233
30
0
40
2
0
CIRCLE
8
HOLES
10
93
20
162.68842025849233
30
0
40
2
0
CIRCLE
8
HOLES
10
99
20
162.68842025849233
30
0
40
2
0
CIRCLE
8
HOLES
10
105
20
162.68842025849233
30
0
40
2
0
CIRCLE
8
HOLES
10
111
20
162.68842025849233
30
0
40
2
0
CIRCLE
8
HOLES
10
117
20
162.68842025849233
30
0
40
2
0
CIRCLE
8
HOLES
10
123
20
162.68842025849233
30
0
40
2
0
CIRCLE
8
HOLES
10
129
20
162.68842025849233
30
0
40
2
0
CIRCLE
8
HOLES
10
135
20
162.68842025849233
30
0
40
2
0
CIRCLE
8
HOLES
10
141
20
162.68842025849233
30
0
40
2
0
CIRCLE
8
HOLES
10
147
20
162.68842025849233
30
0
40
2
0
CIRCLE
8
HOLES
10
153
20
162.68842025849233
30
0
40
2
0
CIRCLE
8
HOLES
10
159
20
162.68842025849233
30
0
40
2
0
CIRCLE
8
HOLES
10
165
20
162.68842025849233
30
0
40
2
0
CIRCLE
8
HOLES
10
171
20
162.68842025849233
30
0
40
2
0
CIRCLE
8
HOLES
10
177
20
162.68842025849233
30
0
40
2
0
CIRCLE
8
HOLES
10
183
20
162.68842025849233
30
0
40
2
0
CIRCLE
8
HOLES
10
189
20
162.68842025849233
30
0
40
2
0
CIRCLE
8
HOLES
10
195
20
162.68842025849233
30
0
40
2
0
CIRCLE
8
HOLES
10
201
20
162.68842025849233
30
0
40
2
0
CIRCLE
8
HOLES
10
207
20
162.68842025849233
30
0
40
2
0
CIRCLE
8
HOLES
10
213
20
162.68842025849233
30
0
40
2
0
CIRCLE
8
HOLES
10
219
20
162.68842025849233
30
0
40
2
0
CIRCLE
8
HOLES
10
225
20
162.68842025849233
30
0
40
2
0
CIRCLE
8
HOLES
10
231
20
162.68842025849233
30
0
40
2
0
CIRCLE
8
HOLES
10
237
20
162.68842025849233
30
0
40
2
0
CIRCLE
8
HOLES
10
243
20
162.68842025849233
30
0
40
2
0
CIRCLE
8
HOLES
10
249
20
162.68842025849233
30
0
40
2
0
CIRCLE
8
HOLES
10
255
20
162.68842025849233
30
0
40
2
0
CIRCLE
8
HOLES
10
261
20
162.68842025849233
30
0
40
2
0
CIRCLE
8
HOLES
10
267
20
162.68842025849233
30
0
40
2
0
CIRCLE
8
HOLES
10
273
20
162.68842025849233
30
0
40
2
0
CIRCLE
8
HOLES
10
279
20
162.68842025849233
30
0
40
2
0
CIRCLE
8
HOLES
10
285
20
162.68842025849233
30
0
40
2
0
CIRCLE
8
HOLES
10
291
20
162.68842025849233
30
0
40
2
0
CIRCLE
8
HOLES
10
297
20
162.68842025849233
30
0
40
2
0
CIRCLE
8
HOLES
10
303
20
162.68842025849233
30
0
40
2
0
CIRCLE
8
HOLES
10
12
20
167.88457268119896
30
0
40
2
0
CIRCLE
8
HOLES
10
18
20
167.88457268119896
30
0
40
2
0
CIRCLE
8
HOLES
10
24
20
167.88457268119896
30
0
40
2
0
CIRCLE
8
HOLES
10
30
20
167.88457268119896
30
0
40
2
0
CIRCLE
8
HOLES
10
36
20
167.88457268119896
30
0
40
2
0
CIRCLE
8
HOLES
10
42
20
167.88457268119896
30
0
40
2
0
CIRCLE
8
HOLES
10
48
20
167.88457268119896
30
0
40
2
0
CIRCLE
8
HOLES
10
54
20
167.88457268119896
30
0
40
2
0
CIRCLE
8
HOLES
10
60
20
167.88457268119896
30
0
40
2
0
CIRCLE
8
HOLES
10
66
20
167.88457268119896
30
0
40
2
0
CIRCLE
8
HOLES
10
72
20
167.88457268119896
30
0
40
2
0
CIRCLE
8
HOLES
10
78
20
167.88457268119896
30
0
40
2
0
CIRCLE
8
HOLES
10
84
20
167.88457268119896
30
0
40
2
0
CIRCLE
8
HOLES
10
90
20
167.88457268119896
30
0
40
2
0
CIRCLE
8
HOLES
10
96
20
167.88457268119896
30
0
40
2
0
CIRCLE
8
HOLES
10
102
20
167.88457268119896
30
0
40
2
0
CIRCLE
8
HOLES
10
108
20
167.88457268119896
30
0
40
2
0
CIRCLE
8
HOLES
10
114
20
167.88457268119896
30
0
40
2
0
CIRCLE
8
HOLES
10
120
20
167.88457268119896
30
0
40
2
0
CIRCLE
8
HOLES
10
126
20
167.88457268119896
30
0
40
2
0
CIRCLE
8
HOLES
10
132
20
167.88457268119896
30
0
40
2
0
CIRCLE
8
HOLES
10
138
20
167.88457268119896
30
0
40
2
0
CIRCLE
8
HOLES
10
144
20
167.88457268119896
30
0
40
2
0
CIRCLE
8
HOLES
10
150
20
167.88457268119896
30
0
40
2
0
CIRCLE
8
HOLES
10
156
20
167.88457268119896
30
0
40
2
0
CIRCLE
8
HOLES
10
162
20
167.88457268119896
30
0
40
2
0
CIRCLE
8
HOLES
10
168
20
167.88457268119896
30
0
40
2
0
CIRCLE
8
HOLES
10
174
20
167.88457268119896
30
0
40
2
0
CIRCLE
8
HOLES
10
180
20
167.88457268119896
30
0
40
2
0
CIRCLE
8
HOLES
10
186
20
167.88457268119896
30
0
40
2
0
CIRCLE
8
HOLES
10
192
20
167.88457268119896
30
0
40
2
0
CIRCLE
8
HOLES
10
198
20
167.88457268119896
30
0
40
2
0
CIRCLE
8
HOLES
10
204
20
167.88457268119896
30
0
40
2
0
CIRCLE
8
HOLES
10
210
20
167.88457268119896
30
0
40
2
0
CIRCLE
8
HOLES
10
216
20
167.88457268119896
30
0
40
2
0
CIRCLE
8
HOLES
10
222
20
167.88457268119896
30
0
40
2
0
CIRCLE
8
HOLES
10
228
20
167.88457268119896
30
0
40
2
0
CIRCLE
8
HOLES
10
234
20
167.88457268119896
30
0
40
2
0
CIRCLE
8
HOLES
10
240
20
167.88457268119896
30
0
40
2
0
CIRCLE
8
HOLES
10
246
20
167.88457268119896
30
0
40
2
0
CIRCLE
8
HOLES
10
252
20
167.88457268119896
30
0
40
2
0
CIRCLE
8
HOLES
10
258
20
167.88457268119896
30
0
40
2
0
CIRCLE
8
HOLES
10
264
20
167.88457268119896
30
0
40
2
0
CIRCLE
8
HOLES
10
270
20
167.88457268119896
30
0
40
2
0
CIRCLE
8
HOLES
10
276
20
167.88457268119896
30
0
40
2
0
CIRCLE
8
HOLES
10
282
20
167.88457268119896
30
0
40
2
0
CIRCLE
8
HOLES
10
288
20
167.88457268119896
30
0
40
2
0
CIRCLE
8
HOLES
10
294
20
167.88457268119896
30
0
40
2
0
CIRCLE
8
HOLES
10
300
20
167.88457268119896
30
0
40
2
0
CIRCLE
8
HOLES
10
306
20
167.88457268119896
30
0
40
2
0
CIRCLE
8
HOLES
10
15
20
173.0807251039056
30
0
40
2
0
CIRCLE
8
HOLES
10
21
20
173.0807251039056
30
0
40
2
0
CIRCLE
8
HOLES
10
27
20
173.0807251039056
30
0
40
2
0
CIRCLE
8
HOLES
10
33
20
173.0807251039056
30
0
40
2
0
CIRCLE
8
HOLES
10
39
20
173.0807251039056
30
0
40
2
0
CIRCLE
8
HOLES
10
45
20
173.0807251039056
30
0
40
2
0
CIRCLE
8
HOLES
10
51
20
173.0807251039056
30
0
40
2
0
CIRCLE
8
HOLES
10
57
20
173.0807251039056
30
0
40
2
0
CIRCLE
8
HOLES
10
63
20
173.0807251039056
30
0
40
2
0
CIRCLE
8
HOLES
10
69
20
173.0807251039056
30
0
40
2
0
CIRCLE
8
HOLES
10
75
20
173.0807251039056
30
0
40
2
0
CIRCLE
8
HOLES
10
81
20
173.0807251039056
30
0
40
2
0
CIRCLE
8
HOLES
10
87
20
173.0807251039056
30
0
40
2
0
CIRCLE
8
HOLES
10
93
20
173.0807251039056
30
0
40
2
0
CIRCLE
8
HOLES
10
99
20
173.0807251039056
30
0
40
2
0
CIRCLE
8
HOLES
10
105
20
173.0807251039056
30
0
40
2
0
CIRCLE
8
HOLES
10
111
20
173.0807251039056
30
0
40
2
0
CIRCLE
8
HOLES
10
117
20
173.0807251039056
30
0
40
2
0
CIRCLE
8
HOLES
10
123
20
173.0807251039056
30
0
40
2
0
CIRCLE
8
HOLES
10
129
20
173.0807251039056
30
0
40
2
0
CIRCLE
8
HOLES
10
135
20
173.0807251039056
30
0
40
2
0
CIRCLE
8
HOLES
10
141
20
173.0807251039056
30
0
40
2
0
CIRCLE
8
HOLES
10
147
20
173.0807251039056
30
0
40
2
0
CIRCLE
8
HOLES
10
153
20
173.0807251039056
30
0
40
2
0
CIRCLE
8
HOLES
10
159
20
173.0807251039056
30
0
40
2
0
CIRCLE
8
HOLES
10
165
20
173.0807251039056
30
0
40
2
0
CIRCLE
8
HOLES
10
171
20
173.0807251039056
30
0
40
2
0
CIRCLE
8
HOLES
10
177
20
173.0807251039056
30
0
40
2
0
CIRCLE
8
HOLES
10
183
20
173.0807251039056
30
0
40
2
0
CIRCLE
8
HOLES
10
189
20
173.0807251039056
30
0
40
2
0
CIRCLE
8
HOLES
10
195
20
173.0807251039056
30
0
40
2
0
CIRCLE
8
HOLES
10
201
20
173.0807251039056
30
0
40
2
0
CIRCLE
8
HOLES
10
207
20
173.0807251039056
30
0
40
2
0
CIRCLE
8
HOLES
10
213
20
173.0807251039056
30
0
40
2
0
CIRCLE
8
HOLES
10
219
20
173.0807251039056
30
0
40
2
0
CIRCLE
8
HOLES
10
225
20
173.0807251039056
30
0
40
2
0
CIRCLE
8
HOLES
10
231
20
173.0807251039056
30
0
40
2
0
CIRCLE
8
HOLES
10
237
20
173.0807251039056
30
0
40
2
0
CIRCLE
8
HOLES
10
243
20
173.0807251039056
30
0
40
2
0
CIRCLE
8
HOLES
10
249
20
173.0807251039056
30
0
40
2
0
CIRCLE
8
HOLES
10
255
20
173.0807251039056
30
0
40
2
0
CIRCLE
8
HOLES
10
261
20
173.0807251039056
30
0
40
2
0
CIRCLE
8
HOLES
10
267
20
173.0807251039056
30
0
40
2
0
CIRCLE
8
HOLES
10
273
20
173.0807251039056
30
0
40
2
0
CIRCLE
8
HOLES
10
279
20
173.0807251039056
30
0
40
2
0
CIRCLE
8
HOLES
10
285
20
173.0807251039056
30
0
40
2
0
CIRCLE
8
HOLES
10
291
20
173.0807251039056
30
0
40
2
0
CIRCLE
8
HOLES
10
297
20
173.0807251039056
30
0
40
2
0
CIRCLE
8
HOLES
10
303
20
173.0807251039056
30
0
40
2
0
CIRCLE
8
HOLES
10
12
20
178.27687752661222
30
0
40
2
0
CIRCLE
8
HOLES
10
18
20
178.27687752661222
30
0
40
2
0
CIRCLE
8
HOLES
10
24
20
178.27687752661222
30
0
40
2
0
CIRCLE
8
HOLES
10
30
20
178.27687752661222
30
0
40
2
0
CIRCLE
8
HOLES
10
36
20
178.27687752661222
30
0
40
2
0
CIRCLE
8
HOLES
10
42
20
178.27687752661222
30
0
40
2
0
CIRCLE
8
HOLES
10
48
20
178.27687752661222
30
0
40
2
0
CIRCLE
8
HOLES
10
54
20
178.27687752661222
30
0
40
2
0
CIRCLE
8
HOLES
10
60
20
178.27687752661222
30
0
40
2
0
CIRCLE
8
HOLES
10
66
20
178.27687752661222
30
0
40
2
0
CIRCLE
8
HOLES
10
72
20
178.27687752661222
30
0
40
2
0
CIRCLE
8
HOLES
10
78
20
178.27687752661222
30
0
40
2
0
CIRCLE
8
HOLES
10
84
20
178.27687752661222
30
0
40
2
0
CIRCLE
8
HOLES
10
90
20
178.27687752661222
30
0
40
2
0
CIRCLE
8
HOLES
10
96
20
178.27687752661222
30
0
40
2
0
CIRCLE
8
HOLES
10
102
20
178.27687752661222
30
0
40
2
0
CIRCLE
8
HOLES
10
108
20
178.27687752661222
30
0
40
2
0
CIRCLE
8
HOLES
10
114
20
178.27687752661222
30
0
40
2
0
CIRCLE
8
HOLES
10
120
20
178.27687752661222
30
0
40
2
0
CIRCLE
8
HOLES
10
126
20
178.27687752661222
30
0
40
2
0
CIRCLE
8
HOLES
10
132
20
178.27687752661222
30
0
40
2
0
CIRCLE
8
HOLES
10
138
20
178.27687752661222
30
0
40
2
0
CIRCLE
8
HOLES
10
144
20
178.27687752661222
30
0
40
2
0
CIRCLE
8
HOLES
10
150
20
178.27687752661222
30
0
40
2
0
CIRCLE
8
HOLES
10
156
20
178.27687752661222
30
0
40
2
0
CIRCLE
8
HOLES
10
162
20
178.27687752661222
30
0
40
2
0
CIRCLE
8
HOLES
10
168
20
178.27687752661222
30
0
40
2
0
CIRCLE
8
HOLES
10
174
20
178.27687752661222
30
0
40
2
0
CIRCLE
8
HOLES
10
180
20
178.27687752661222
30
0
40
2
0
CIRCLE
8
HOLES
10
186
20
178.27687752661222
30
0
40
2
0
CIRCLE
8
HOLES
10
192
20
178.27687752661222
30
0
40
2
0
CIRCLE
8
HOLES
10
198
20
178.27687752661222
30
0
40
2
0
CIRCLE
8
HOLES
10
204
20
178.27687752661222
30
0
40
2
0
CIRCLE
8
HOLES
10
210
20
178.27687752661222
30
0
40
2
0
CIRCLE
8
HOLES
10
216
20
178.27687752661222
30
0
40
2
0
CIRCLE
8
HOLES
10
222
20
178.27687752661222
30
0
40
2
0
CIRCLE
8
HOLES
10
228
20
178.27687752661222
30
0
40
2
0
CIRCLE
8
HOLES
10
234
20
178.27687752661222
30
0
40
2
0
CIRCLE
8
HOLES
10
240
20
178.27687752661222
30
0
40
2
0
CIRCLE
8
HOLES
10
246
20
178.27687752661222
30
0
40
2
0
CIRCLE
8
HOLES
10
252
20
178.27687752661222
30
0
40
2
0
CIRCLE
8
HOLES
10
258
20
178.27687752661222
30
0
40
2
0
CIRCLE
8
HOLES
10
264
20
178.27687752661222
30
0
40
2
0
CIRCLE
8
HOLES
10
270
20
178.27687752661222
30
0
40
2
0
CIRCLE
8
HOLES
10
276
20
178.27687752661222
30
0
40
2
0
CIRCLE
8
HOLES
10
282
20
178.27687752661222
30
0
40
2
0
CIRCLE
8
HOLES
10
288
20
178.27687752661222
30
0
40
2
0
CIRCLE
8
HOLES
10
294
20
178.27687752661222
30
0
40
2
0
CIRCLE
8
HOLES
10
300
20
178.27687752661222
30
0
40
2
0
CIRCLE
8
HOLES
10
306
20
178.27687752661222
30
0
40
2
0
CIRCLE
8
HOLES
10
15
20
183.47302994931883
30
0
40
2
0
CIRCLE
8
HOLES
10
21
20
183.47302994931883
30
0
40
2
0
CIRCLE
8
HOLES
10
27
20
183.47302994931883
30
0
40
2
0
CIRCLE
8
HOLES
10
33
20
183.47302994931883
30
0
40
2
0
CIRCLE
8
HOLES
10
39
20
183.47302994931883
30
0
40
2
0
CIRCLE
8
HOLES
10
45
20
183.47302994931883
30
0
40
2
0
CIRCLE
8
HOLES
10
51
20
183.47302994931883
30
0
40
2
0
CIRCLE
8
HOLES
10
57
20
183.47302994931883
30
0
40
2
0
CIRCLE
8
HOLES
10
63
20
183.47302994931883
30
0
40
2
0
CIRCLE
8
HOLES
10
69
20
183.47302994931883
30
0
40
2
0
CIRCLE
8
HOLES
10
75
20
183.47302994931883
30
0
40
2
0
CIRCLE
8
HOLES
10
81
20
183.47302994931883
30
0
40
2
0
CIRCLE
8
HOLES
10
87
20
183.47302994931883
30
0
40
2
0
CIRCLE
8
HOLES
10
93
20
183.47302994931883
30
0
40
2
0
CIRCLE
8
HOLES
10
99
20
183.47302994931883
30
0
40
2
0
CIRCLE
8
HOLES
10
105
20
183.47302994931883
30
0
40
2
0
CIRCLE
8
HOLES
10
111
20
183.47302994931883
30
0
40
2
0
CIRCLE
8
HOLES
10
117
20
183.47302994931883
30
0
40
2
0
CIRCLE
8
HOLES
10
123
20
183.47302994931883
30
0
40
2
0
CIRCLE
8
HOLES
10
129
20
183.47302994931883
30
0
40
2
0
CIRCLE
8
HOLES
10
135
20
183.47302994931883
30
0
40
2
0
CIRCLE
8
HOLES
10
141
20
183.47302994931883
30
0
40
2
0
CIRCLE
8
HOLES
10
147
20
183.47302994931883
30
0
40
2
0
CIRCLE
8
HOLES
10
153
20
183.47302994931883
30
0
40
2
0
CIRCLE
8
HOLES
10
159
20
183.47302994931883
30
0
40
2
0
CIRCLE
8
HOLES
10
165
20
183.47302994931883
30
0
40
2
0
CIRCLE
8
HOLES
10
171
20
183.47302994931883
30
0
40
2
0
CIRCLE
8
HOLES
10
177
20
183.47302994931883
30
0
40
2
0
CIRCLE
8
HOLES
10
183
20
183.47302994931883
30
0
40
2
0
CIRCLE
8
HOLES
10
189
20
183.47302994931883
30
0
40
2
0
CIRCLE
8
HOLES
10
195
20
183.47302994931883
30
0
40
2
0
CIRCLE
8
HOLES
10
201
20
183.47302994931883
30
0
40
2
0
CIRCLE
8
HOLES
10
207
20
183.47302994931883
30
0
40
2
0
CIRCLE
8
HOLES
10
213
20
183.47302994931883
30
0
40
2
0
CIRCLE
8
HOLES
10
219
20
183.47302994931883
30
0
40
2
0
CIRCLE
8
HOLES
10
225
20
183.47302994931883
30
0
40
2
0
CIRCLE
8
HOLES
10
231
20
183.47302994931883
30
0
40
2
0
CIRCLE
8
HOLES
10
237
20
183.47302994931883
30
0
40
2
0
CIRCLE
8
HOLES
10
243
20
183.47302994931883
30
0
40
2
0
CIRCLE
8
HOLES
10
249
20
183.47302994931883
30
0
40
2
0
CIRCLE
8
HOLES
10
255
20
183.47302994931883
30
0
40
2
0
CIRCLE
8
HOLES
10
261
20
183.47302994931883
30
0
40
2
0
CIRCLE
8
HOLES
10
267
20
183.47302994931883
30
0
40
2
0
CIRCLE
8
HOLES
10
273
20
183.47302994931883
30
0
40
2
0
CIRCLE
8
HOLES
10
279
20
183.47302994931883
30
0
40
2
0
CIRCLE
8
HOLES
10
285
20
183.47302994931883
30
0
40
2
0
CIRCLE
8
HOLES
10
291
20
183.47302994931883
30
0
40
2
0
CIRCLE
8
HOLES
10
297
20
183.47302994931883
30
0
40
2
0
CIRCLE
8
HOLES
10
303
20
183.47302994931883
30
0
40
2
0
CIRCLE
8
HOLES
10
12
20
188.66918237202546
30
0
40
2
0
CIRCLE
8
HOLES
10
18
20
188.66918237202546
30
0
40
2
0
CIRCLE
8
HOLES
10
24
20
188.66918237202546
30
0
40
2
0
CIRCLE
8
HOLES
10
30
20
188.66918237202546
30
0
40
2
0
CIRCLE
8
HOLES
10
36
20
188.66918237202546
30
0
40
2
0
CIRCLE
8
HOLES
10
42
20
188.66918237202546
30
0
40
2
0
CIRCLE
8
HOLES
10
48
20
188.66918237202546
30
0
40
2
0
CIRCLE
8
HOLES
10
54
20
188.66918237202546
30
0
40
2
0
CIRCLE
8
HOLES
10
60
20
188.66918237202546
30
0
40
2
0
CIRCLE
8
HOLES
10
66
20
188.66918237202546
30
0
40
2
0
CIRCLE
8
HOLES
10
72
20
188.66918237202546
30
0
40
2
0
CIRCLE
8
HOLES
10
78
20
188.66918237202546
30
0
40
2
0
CIRCLE
8
HOLES
10
84
20
188.66918237202546
30
0
40
2
0
CIRCLE
8
HOLES
10
90
20
188.66918237202546
30
0
40
2
0
CIRCLE
8
HOLES
10
96
20
188.66918237202546
30
0
40
2
0
CIRCLE
8
HOLES
10
102
20
188.66918237202546
30
0
40
2
0
CIRCLE
8
HOLES
10
108
20
188.66918237202546
30
0
40
2
0
CIRCLE
8
HOLES
10
114
20
188.66918237202546
30
0
40
2
0
CIRCLE
8
HOLES
10
120
20
188.66918237202546
30
0
40
2
0
CIRCLE
8
HOLES
10
126
20
188.66918237202546
30
0
40
2
0
CIRCLE
8
HOLES
10
132
20
188.66918237202546
30
0
40
2
0
CIRCLE
8
HOLES
10
138
20
188.66918237202546
30
0
40
2
0
CIRCLE
8
HOLES
10
144
20
188.66918237202546
30
0
40
2
0
CIRCLE
8
HOLES
10
150
20
188.66918237202546
30
0
40
2
0
CIRCLE
8
HOLES
10
156
20
188.66918237202546
30
0
40
2
0
CIRCLE
8
HOLES
10
162
20
188.66918237202546
30
0
40
2
0
CIRCLE
8
HOLES
10
168
20
188.66918237202546
30
0
40
2
0
CIRCLE
8
HOLES
10
174
20
188.66918237202546
30
0
40
2
0
CIRCLE
8
HOLES
10
180
20
188.66918237202546
30
0
40
2
0
CIRCLE
8
HOLES
10
186
20
188.66918237202546
30
0
40
2
0
CIRCLE
8
HOLES
10
192
20
188.66918237202546
30
0
40
2
0
CIRCLE
8
HOLES
10
198
20
188.66918237202546
30
0
40
2
0
CIRCLE
8
HOLES
10
204
20
188.66918237202546
30
0
40
2
0
CIRCLE
8
HOLES
10
210
20
188.66918237202546
30
0
40
2
0
CIRCLE
8
HOLES
10
216
20
188.66918237202546
30
0
40
2
0
CIRCLE
8
HOLES
10
222
20
188.66918237202546
30
0
40
2
0
CIRCLE
8
HOLES
10
228
20
188.66918237202546
30
0
40
2
0
CIRCLE
8
HOLES
10
234
20
188.66918237202546
30
0
40
2
0
CIRCLE
8
HOLES
10
240
20
188.66918237202546
30
0
40
2
0
CIRCLE
8
HOLES
10
246
20
188.66918237202546
30
0
40
2
0
CIRCLE
8
HOLES
10
252
20
188.66918237202546
30
0
40
2
0
CIRCLE
8
HOLES
10
258
20
188.66918237202546
30
0
40
2
0
CIRCLE
8
HOLES
10
264
20
188.66918237202546
30
0
40
2
0
CIRCLE
8
HOLES
10
270
20
188.66918237202546
30
0
40
2
0
CIRCLE
8
HOLES
10
276
20
188.66918237202546
30
0
40
2
0
CIRCLE
8
HOLES
10
282
20
188.66918237202546
30
0
40
2
0
CIRCLE
8
HOLES
10
288
20
188.66918237202546
30
0
40
2
0
CIRCLE
8
HOLES
10
294
20
188.66918237202546
30
0
40
2
0
CIRCLE
8
HOLES
10
300
20
188.66918237202546
30
0
40
2
0
CIRCLE
8
HOLES
10
306
20
188.66918237202546
30
0
40
2
0
CIRCLE
8
HOLES
10
15
20
193.8653347947321
30
0
40
2
0
CIRCLE
8
HOLES
10
21
20
193.8653347947321
30
0
40
2
0
CIRCLE
8
HOLES
10
27
20
193.8653347947321
30
0
40
2
0
CIRCLE
8
HOLES
10
33
20
193.8653347947321
30
0
40
2
0
CIRCLE
8
HOLES
10
39
20
193.8653347947321
30
0
40
2
0
CIRCLE
8
HOLES
10
45
20
193.8653347947321
30
0
40
2
0
CIRCLE
8
HOLES
10
51
20
193.8653347947321
30
0
40
2
0
CIRCLE
8
HOLES
10
57
20
193.8653347947321
30
0
40
2
0
CIRCLE
8
HOLES
10
63
20
193.8653347947321
30
0
40
2
0
CIRCLE
8
HOLES
10
69
20
193.8653347947321
30
0
40
2
0
CIRCLE
8
HOLES
10
75
20
193.8653347947321
30
0
40
2
0
CIRCLE
8
HOLES
10
81
20
193.8653347947321
30
0
40
2
0
CIRCLE
8
HOLES
10
87
20
193.8653347947321
30
0
40
2
0
CIRCLE
8
HOLES
10
93
20
193.8653347947321
30
0
40
2
0
CIRCLE
8
HOLES
10
99
20
193.8653347947321
30
0
40
2
0
CIRCLE
8
HOLES
10
105
20
193.8653347947321
30
0
40
2
0
CIRCLE
8
HOLES
10
111
20
193.8653347947321
30
0
40
2
0
CIRCLE
8
HOLES
10
117
20
193.8653347947321
30
0
40
2
0
CIRCLE
8
HOLES
10
123
20
193.8653347947321
30
0
40
2
0
CIRCLE
8
HOLES
10
129
20
193.8653347947321
30
0
40
2
0
CIRCLE
8
HOLES
10
135
20
193.8653347947321
30
0
40
2
0
CIRCLE
8
HOLES
10
141
20
193.8653347947321
30
0
40
2
0
CIRCLE
8
HOLES
10
147
20
193.8653347947321
30
0
40
2
0
CIRCLE
8
HOLES
10
153
20
193.8653347947321
30
0
40
2
0
CIRCLE
8
HOLES
10
159
20
193.8653347947321
30
0
40
2
0
CIRCLE
8
HOLES
10
165
20
193.8653347947321
30
0
40
2
0
CIRCLE
8
HOLES
10
171
20
193.8653347947321
30
0
40
2
0
CIRCLE
8
HOLES
10
177
20
193.8653347947321
30
0
40
2
0
CIRCLE
8
HOLES
10
183
20
193.8653347947321
30
0
40
2
0
CIRCLE
8
HOLES
10
189
20
193.8653347947321
30
0
40
2
0
CIRCLE
8
HOLES
10
195
20
193.8653347947321
30
0
40
2
0
CIRCLE
8
HOLES
10
201
20
193.8653347947321
30
0
40
2
0
CIRCLE
8
HOLES
10
207
20
193.8653347947321
30
0
40
2
0
CIRCLE
8
HOLES
10
213
20
193.8653347947321
30
0
40
2
0
CIRCLE
8
HOLES
10
219
20
193.8653347947321
30
0
40
2
0
CIRCLE
8
HOLES
10
225
20
193.8653347947321
30
0
40
2
0
CIRCLE
8
HOLES
10
231
20
193.8653347947321
30
0
40
2
0
CIRCLE
8
HOLES
10
237
20
193.8653347947321
30
0
40
2
0
CIRCLE
8
HOLES
10
243
20
193.8653347947321
30
0
40
2
0
CIRCLE
8
HOLES
10
249
20
193.8653347947321
30
0
40
2
0
CIRCLE
8
HOLES
10
255
20
193.8653347947321
30
0
40
2
0
CIRCLE
8
HOLES
10
261
20
193.8653347947321
30
0
40
2
0
CIRCLE
8
HOLES
10
267
20
193.8653347947321
30
0
40
2
0
CIRCLE
8
HOLES
10
273
20
193.8653347947321
30
0
40
2
0
CIRCLE
8
HOLES
10
279
20
193.8653347947321
30
0
40
2
0
CIRCLE
8
HOLES
10
285
20
193.8653347947321
30
0
40
2
0
CIRCLE
8
HOLES
10
291
20
193.8653347947321
30
0
40
2
0
CIRCLE
8
HOLES
10
297
20
193.8653347947321
30
0
40
2
0
CIRCLE
8
HOLES
10
303
20
193.8653347947321
30
0
40
2
0
CIRCLE
8
HOLES
10
12
20
199.06148721743872
30
0
40
2
0
CIRCLE
8
HOLES
10
18
20
199.06148721743872
30
0
40
2
0
CIRCLE
8
HOLES
10
24
20
199.06148721743872
30
0
40
2
0
CIRCLE
8
HOLES
10
30
20
199.06148721743872
30
0
40
2
0
CIRCLE
8
HOLES
10
36
20
199.06148721743872
30
0
40
2
0
CIRCLE
8
HOLES
10
42
20
199.06148721743872
30
0
40
2
0
CIRCLE
8
HOLES
10
48
20
199.06148721743872
30
0
40
2
0
CIRCLE
8
HOLES
10
54
20
199.06148721743872
30
0
40
2
0
CIRCLE
8
HOLES
10
60
20
199.06148721743872
30
0
40
2
0
CIRCLE
8
HOLES
10
66
20
199.06148721743872
30
0
40
2
0
CIRCLE
8
HOLES
10
72
20
199.06148721743872
30
0
40
2
0
CIRCLE
8
HOLES
10
78
20
199.06148721743872
30
0
40
2
0
CIRCLE
8
HOLES
10
84
20
199.06148721743872
30
0
40
2
0
CIRCLE
8
HOLES
10
90
20
199.06148721743872
30
0
40
2
0
CIRCLE
8
HOLES
10
96
20
199.06148721743872
30
0
40
2
0
CIRCLE
8
HOLES
10
102
20
199.06148721743872
30
0
40
2
0
CIRCLE
8
HOLES
10
108
20
199.06148721743872
30
0
40
2
0
CIRCLE
8
HOLES
10
114
20
199.06148721743872
30
0
40
2
0
CIRCLE
8
HOLES
10
120
20
199.06148721743872
30
0
40
2
0
CIRCLE
8
HOLES
10
126
20
199.06148721743872
30
0
40
2
0
CIRCLE
8
HOLES
10
132
20
199.06148721743872
30
0
40
2
0
CIRCLE
8
HOLES
10
138
20
199.06148721743872
30
0
40
2
0
CIRCLE
8
HOLES
10
144
20
199.06148721743872
30
0
40
2
0
CIRCLE
8
HOLES
10
150
20
199.06148721743872
30
0
40
2
0
CIRCLE
8
HOLES
10
156
20
199.06148721743872
30
0
40
2
0
CIRCLE
8
HOLES
10
162
20
199.06148721743872
30
0
40
2
0
CIRCLE
8
HOLES
10
168
20
199.06148721743872
30
0
40
2
0
CIRCLE
8
HOLES
10
174
20
199.06148721743872
30
0
40
2
0
CIRCLE
8
HOLES
10
180
20
199.06148721743872
30
0
40
2
0
CIRCLE
8
HOLES
10
186
20
199.06148721743872
30
0
40
2
0
CIRCLE
8
HOLES
10
192
20
199.06148721743872
30
0
40
2
0
CIRCLE
8
HOLES
10
198
20
199.06148721743872
30
0
40
2
0
CIRCLE
8
HOLES
10
204
20
199.06148721743872
30
0
40
2
0
CIRCLE
8
HOLES
10
210
20
199.06148721743872
30
0
40
2
0
CIRCLE
8
HOLES
10
216
20
199.06148721743872
30
0
40
2
0
CIRCLE
8
HOLES
10
222
20
199.06148721743872
30
0
40
2
0
CIRCLE
8
HOLES
10
228
20
199.06148721743872
30
0
40
2
0
CIRCLE
8
HOLES
10
234
20
199.06148721743872
30
0
40
2
0
CIRCLE
8
HOLES
10
240
20
199.06148721743872
30
0
40
2
0
CIRCLE
8
HOLES
10
246
20
199.06148721743872
30
0
40
2
0
CIRCLE
8
HOLES
10
252
20
199.06148721743872
30
0
40
2
0
CIRCLE
8
HOLES
10
258
20
199.06148721743872
30
0
40
2
0
CIRCLE
8
HOLES
10
264
20
199.06148721743872
30
0
40
2
0
CIRCLE
8
HOLES
10
270
20
199.06148721743872
30
0
40
2
0
CIRCLE
8
HOLES
10
276
20
199.06148721743872
30
0
40
2
0
CIRCLE
8
HOLES
10
282
20
199.06148721743872
30
0
40
2
0
CIRCLE
8
HOLES
10
288
20
199.06148721743872
30
0
40
2
0
CIRCLE
8
HOLES
10
294
20
199.06148721743872
30
0
40
2
0
CIRCLE
8
HOLES
10
300
20
199.06148721743872
30
0
40
2
0
CIRCLE
8
HOLES
10
306
20
199.06148721743872
30
0
40
2
0
CIRCLE
8
HOLES
10
15
20
204.25763964014536
30
0
40
2
0
CIRCLE
8
HOLES
10
21
20
204.25763964014536
30
0
40
2
0
CIRCLE
8
HOLES
10
27
20
204.25763964014536
30
0
40
2
0
CIRCLE
8
HOLES
10
33
20
204.25763964014536
30
0
40
2
0
CIRCLE
8
HOLES
10
39
20
204.25763964014536
30
0
40
2
0
CIRCLE
8
HOLES
10
45
20
204.25763964014536
30
0
40
2
0
CIRCLE
8
HOLES
10
51
20
204.25763964014536
30
0
40
2
0
CIRCLE
8
HOLES
10
57
20
204.25763964014536
30
0
40
2
0
CIRCLE
8
HOLES
10
63
20
204.25763964014536
30
0
40
2
0
CIRCLE
8
HOLES
10
69
20
204.25763964014536
30
0
40
2
0
CIRCLE
8
HOLES
10
75
20
204.25763964014536
30
0
40
2
0
CIRCLE
8
HOLES
10
81
20
204.25763964014536
30
0
40
2
0
CIRCLE
8
HOLES
10
87
20
204.25763964014536
30
0
40
2
0
CIRCLE
8
HOLES
10
93
20
204.25763964014536
30
0
40
2
0
CIRCLE
8
HOLES
10
99
20
204.25763964014536
30
0
40
2
0
CIRCLE
8
HOLES
10
105
20
204.25763964014536
30
0
40
2
0
CIRCLE
8
HOLES
10
111
20
204.25763964014536
30
0
40
2
0
CIRCLE
8
HOLES
10
117
20
204.25763964014536
30
0
40
2
0
CIRCLE
8
HOLES
10
123
20
204.25763964014536
30
0
40
2
0
CIRCLE
8
HOLES
10
129
20
204.25763964014536
30
0
40
2
0
CIRCLE
8
HOLES
10
135
20
204.25763964014536
30
0
40
2
0
CIRCLE
8
HOLES
10
141
20
204.25763964014536
30
0
40
2
0
CIRCLE
8
HOLES
10
147
20
204.25763964014536
30
0
40
2
0
CIRCLE
8
HOLES
10
153
20
204.25763964014536
30
0
40
2
0
CIRCLE
8
HOLES
10
159
20
204.25763964014536
30
0
40
2
0
CIRCLE
8
HOLES
10
165
20
204.25763964014536
30
0
40
2
0
CIRCLE
8
HOLES
10
171
20
204.25763964014536
30
0
40
2
0
CIRCLE
8
HOLES
10
177
20
204.25763964014536
30
0
40
2
0
CIRCLE
8
HOLES
10
183
20
204.25763964014536
30
0
40
2
0
CIRCLE
8
HOLES
10
189
20
204.25763964014536
30
0
40
2
0
CIRCLE
8
HOLES
10
195
20
204.25763964014536
30
0
40
2
0
CIRCLE
8
HOLES
10
201
20
204.25763964014536
30
0
40
2
0
CIRCLE
8
HOLES
10
207
20
204.25763964014536
30
0
40
2
0
CIRCLE
8
HOLES
10
213
20
204.25763964014536
30
0
40
2
0
CIRCLE
8
HOLES
10
219
20
204.25763964014536
30
0
40
2
0
CIRCLE
8
HOLES
10
225
20
204.25763964014536
30
0
40
2
0
CIRCLE
8
HOLES
10
231
20
204.25763964014536
30
0
40
2
0
CIRCLE
8
HOLES
10
237
20
204.25763964014536
30
0
40
2
0
CIRCLE
8
HOLES
10
243
20
204.25763964014536
30
0
40
2
0
CIRCLE
8
HOLES
10
249
20
204.25763964014536
30
0
40
2
0
CIRCLE
8
HOLES
10
255
20
204.25763964014536
30
0
40
2
0
CIRCLE
8
HOLES
10
261
20
204.25763964014536
30
0
40
2
0
CIRCLE
8
HOLES
10
267
20
204.25763964014536
30
0
40
2
0
CIRCLE
8
HOLES
10
273
20
204.25763964014536
30
0
40
2
0
CIRCLE
8
HOLES
10
279
20
204.25763964014536
30
0
40
2
0
CIRCLE
8
HOLES
10
285
20
204.25763964014536
30
0
40
2
0
CIRCLE
8
HOLES
10
291
20
204.25763964014536
30
0
40
2
0
CIRCLE
8
HOLES
10
297
20
204.25763964014536
30
0
40
2
0
CIRCLE
8
HOLES
10
303
20
204.25763964014536
30
0
40
2
0
CIRCLE
8
HOLES
10
12
20
209.453792062852
30
0
40
2
0
CIRCLE
8
HOLES
10
18
20
209.453792062852
30
0
40
2
0
CIRCLE
8
HOLES
10
24
20
209.453792062852
30
0
40
2
0
CIRCLE
8
HOLES
10
30
20
209.453792062852
30
0
40
2
0
CIRCLE
8
HOLES
10
36
20
209.453792062852
30
0
40
2
0
CIRCLE
8
HOLES
10
42
20
209.453792062852
30
0
40
2
0
CIRCLE
8
HOLES
10
48
20
209.453792062852
30
0
40
2
0
CIRCLE
8
HOLES
10
54
20
209.453792062852
30
0
40
2
0
CIRCLE
8
HOLES
10
60
20
209.453792062852
30
0
40
2
0
CIRCLE
8
HOLES
10
66
20
209.453792062852
30
0
40
2
0
CIRCLE
8
HOLES
10
72
20
209.453792062852
30
0
40
2
0
CIRCLE
8
HOLES
10
78
20
209.453792062852
30
0
40
2
0
CIRCLE
8
HOLES
10
84
20
209.453792062852
30
0
40
2
0
CIRCLE
8
HOLES
10
90
20
209.453792062852
30
0
40
2
0
CIRCLE
8
HOLES
10
96
20
209.453792062852
30
0
40
2
0
CIRCLE
8
HOLES
10
102
20
209.453792062852
30
0
40
2
0
CIRCLE
8
HOLES
10
108
20
209.453792062852
30
0
40
2
0
CIRCLE
8
HOLES
10
114
20
209.453792062852
30
0
40
2
0
CIRCLE
8
HOLES
10
120
20
209.453792062852
30
0
40
2
0
CIRCLE
8
HOLES
10
126
20
209.453792062852
30
0
40
2
0
CIRCLE
8
HOLES
10
132
20
209.453792062852
30
0
40
2
0
CIRCLE
8
HOLES
10
138
20
209.453792062852
30
0
40
2
0
CIRCLE
8
HOLES
10
144
20
209.453792062852
30
0
40
2
0
CIRCLE
8
HOLES
10
150
20
209.453792062852
30
0
40
2
0
CIRCLE
8
HOLES
10
156
20
209.453792062852
30
0
40
2
0
CIRCLE
8
HOLES
10
162
20
209.453792062852
30
0
40
2
0
CIRCLE
8
HOLES
10
168
20
209.453792062852
30
0
40
2
0
CIRCLE
8
HOLES
10
174
20
209.453792062852
30
0
40
2
0
CIRCLE
8
HOLES
10
180
20
209.453792062852
30
0
40
2
0
CIRCLE
8
HOLES
10
186
20
209.453792062852
30
0
40
2
0
CIRCLE
8
HOLES
10
192
20
209.453792062852
30
0
40
2
0
CIRCLE
8
HOLES
10
198
20
209.453792062852
30
0
40
2
0
CIRCLE
8
HOLES
10
204
20
209.453792062852
30
0
40
2
0
CIRCLE
8
HOLES
10
210
20
209.453792062852
30
0
40
2
0
CIRCLE
8
HOLES
10
216
20
209.453792062852
30
0
40
2
0
CIRCLE
8
HOLES
10
222
20
209.453792062852
30
0
40
2
0
CIRCLE
8
HOLES
10
228
20
209.453792062852
30
0
40
2
0
CIRCLE
8
HOLES
10
234
20
209.453792062852
30
0
40
2
0
CIRCLE
8
HOLES
10
240
20
209.453792062852
30
0
40
2
0
CIRCLE
8
HOLES
10
246
20
209.453792062852
30
0
40
2
0
CIRCLE
8
HOLES
10
252
20
209.453792062852
30
0
40
2
0
CIRCLE
8
HOLES
10
258
20
209.453792062852
30
0
40
2
0
CIRCLE
8
HOLES
10
264
20
209.453792062852
30
0
40
2
0
CIRCLE
8
HOLES
10
270
20
209.453792062852
30
0
40
2
0
CIRCLE
8
HOLES
10
276
20
209.453792062852
30
0
40
2
0
CIRCLE
8
HOLES
10
282
20
209.453792062852
30
0
40
2
0
CIRCLE
8
HOLES
10
288
20
209.453792062852
30
0
40
2
0
CIRCLE
8
HOLES
10
294
20
209.453792062852
30
0
40
2
0
CIRCLE
8
HOLES
10
300
20
209.453792062852
30
0
40
2
0
CIRCLE
8
HOLES
10
306
20
209.453792062852
30
0
40
2
0
CIRCLE
8
HOLES
10
15
20
214.64994448555862
30
0
40
2
0
CIRCLE
8
HOLES
10
21
20
214.64994448555862
30
0
40
2
0
CIRCLE
8
HOLES
10
27
20
214.64994448555862
30
0
40
2
0
CIRCLE
8
HOLES
10
33
20
214.64994448555862
30
0
40
2
0
CIRCLE
8
HOLES
10
39
20
214.64994448555862
30
0
40
2
0
CIRCLE
8
HOLES
10
45
20
214.64994448555862
30
0
40
2
0
CIRCLE
8
HOLES
10
51
20
214.64994448555862
30
0
40
2
0
CIRCLE
8
HOLES
10
57
20
214.64994448555862
30
0
40
2
0
CIRCLE
8
HOLES
10
63
20
214.64994448555862
30
0
40
2
0
CIRCLE
8
HOLES
10
69
20
214.64994448555862
30
0
40
2
0
CIRCLE
8
HOLES
10
75
20
214.64994448555862
30
0
40
2
0
CIRCLE
8
HOLES
10
81
20
214.64994448555862
30
0
40
2
0
CIRCLE
8
HOLES
10
87
20
214.64994448555862
30
0
40
2
0
CIRCLE
8
HOLES
10
93
20
214.64994448555862
30
0
40
2
0
CIRCLE
8
HOLES
10
99
20
214.64994448555862
30
0
40
2
0
CIRCLE
8
HOLES
10
105
20
214.64994448555862
30
0
40
2
0
CIRCLE
8
HOLES
10
111
20
214.64994448555862
30
0
40
2
0
CIRCLE
8
HOLES
10
117
20
214.64994448555862
30
0
40
2
0
CIRCLE
8
HOLES
10
123
20
214.64994448555862
30
0
40
2
0
CIRCLE
8
HOLES
10
129
20
214.64994448555862
30
0
40
2
0
CIRCLE
8
HOLES
10
135
20
214.64994448555862
30
0
40
2
0
CIRCLE
8
HOLES
10
141
20
214.64994448555862
30
0
40
2
0
CIRCLE
8
HOLES
10
147
20
214.64994448555862
30
0
40
2
0
CIRCLE
8
HOLES
10
153
20
214.64994448555862
30
0
40
2
0
CIRCLE
8
HOLES
10
159
20
214.64994448555862
30
0
40
2
0
CIRCLE
8
HOLES
10
165
20
214.64994448555862
30
0
40
2
0
CIRCLE
8
HOLES
10
171
20
214.64994448555862
30
0
40
2
0
CIRCLE
8
HOLES
10
177
20
214.64994448555862
30
0
40
2
0
CIRCLE
8
HOLES
10
183
20
214.64994448555862
30
0
40
2
0
CIRCLE
8
HOLES
10
189
20
214.64994448555862
30
0
40
2
0
CIRCLE
8
HOLES
10
195
20
214.64994448555862
30
0
40
2
0
CIRCLE
8
HOLES
10
201
20
214.64994448555862
30
0
40
2
0
CIRCLE
8
HOLES
10
207
20
214.64994448555862
30
0
40
2
0
CIRCLE
8
HOLES
10
213
20
214.64994448555862
30
0
40
2
0
CIRCLE
8
HOLES
10
219
20
214.64994448555862
30
0
40
2
0
CIRCLE
8
HOLES
10
225
20
214.64994448555862
30
0
40
2
0
CIRCLE
8
HOLES
10
231
20
214.64994448555862
30
0
40
2
0
CIRCLE
8
HOLES
10
237
20
214.64994448555862
30
0
40
2
0
CIRCLE
8
HOLES
10
243
20
214.64994448555862
30
0
40
2
0
CIRCLE
8
HOLES
10
249
20
214.64994448555862
30
0
40
2
0
CIRCLE
8
HOLES
10
255
20
214.64994448555862
30
0
40
2
0
CIRCLE
8
HOLES
10
261
20
214.64994448555862
30
0
40
2
0
CIRCLE
8
HOLES
10
267
20
214.64994448555862
30
0
40
2
0
CIRCLE
8
HOLES
10
273
20
214.64994448555862
30
0
40
2
0
CIRCLE
8
HOLES
10
279
20
214.64994448555862
30
0
40
2
0
CIRCLE
8
HOLES
10
285
20
214.64994448555862
30
0
40
2
0
CIRCLE
8
HOLES
10
291
20
214.64994448555862
30
0
40
2
0
CIRCLE
8
HOLES
10
297
20
214.64994448555862
30
0
40
2
0
CIRCLE
8
HOLES
10
303
20
214.64994448555862
30
0
40
2
0
CIRCLE
8
HOLES
10
12
20
219.84609690826525
30
0
40
2
0
CIRCLE
8
HOLES
10
18
20
219.84609690826525
30
0
40
2
0
CIRCLE
8
HOLES
10
24
20
219.84609690826525
30
0
40
2
0
CIRCLE
8
HOLES
10
30
20
219.84609690826525
30
0
40
2
0
CIRCLE
8
HOLES
10
36
20
219.84609690826525
30
0
40
2
0
CIRCLE
8
HOLES
10
42
20
219.84609690826525
30
0
40
2
0
CIRCLE
8
HOLES
10
48
20
219.84609690826525
30
0
40
2
0
CIRCLE
8
HOLES
10
54
20
219.84609690826525
30
0
40
2
0
CIRCLE
8
HOLES
10
60
20
219.84609690826525
30
0
40
2
0
CIRCLE
8
HOLES
10
66
20
219.84609690826525
30
0
40
2
0
CIRCLE
8
HOLES
10
72
20
219.84609690826525
30
0
40
2
0
CIRCLE
8
HOLES
10
78
20
219.84609690826525
30
0
40
2
0
CIRCLE
8
HOLES
10
84
20
219.84609690826525
30
0
40
2
0
CIRCLE
8
HOLES
10
90
20
219.84609690826525
30
0
40
2
0
CIRCLE
8
HOLES
10
96
20
219.84609690826525
30
0
40
2
0
CIRCLE
8
HOLES
10
102
20
219.84609690826525
30
0
40
2
0
CIRCLE
8
HOLES
10
108
20
219.84609690826525
30
0
40
2
0
CIRCLE
8
HOLES
10
114
20
219.84609690826525
30
0
40
2
0
CIRCLE
8
HOLES
10
120
20
219.84609690826525
30
0
40
2
0
CIRCLE
8
HOLES
10
126
20
219.84609690826525
30
0
40
2
0
CIRCLE
8
HOLES
10
132
20
219.84609690826525
30
0
40
2
0
CIRCLE
8
HOLES
10
138
20
219.84609690826525
30
0
40
2
0
CIRCLE
8
HOLES
10
144
20
219.84609690826525
30
0
40
2
0
CIRCLE
8
HOLES
10
150
20
219.84609690826525
30
0
40
2
0
CIRCLE
8
HOLES
10
156
20
219.84609690826525
30
0
40
2
0
CIRCLE
8
HOLES
10
162
20
219.84609690826525
30
0
40
2
0
CIRCLE
8
HOLES
10
168
20
219.84609690826525
30
0
40
2
0
CIRCLE
8
HOLES
10
174
20
219.84609690826525
30
0
40
2
0
CIRCLE
8
HOLES
10
180
20
219.84609690826525
30
0
40
2
0
CIRCLE
8
HOLES
10
186
20
219.84609690826525
30
0
40
2
0
CIRCLE
8
HOLES
10
192
20
219.84609690826525
30
0
40
2
0
CIRCLE
8
HOLES
10
198
20
219.84609690826525
30
0
40
2
0
CIRCLE
8
HOLES
10
204
20
219.84609690826525
30
0
40
2
0
CIRCLE
8
HOLES
10
210
20
219.84609690826525
30
0
40
2
0
CIRCLE
8
HOLES
10
216
20
219.84609690826525
30
0
40
2
0
CIRCLE
8
HOLES
10
222
20
219.84609690826525
30
0
40
2
0
CIRCLE
8
HOLES
10
228
20
219.84609690826525
30
0
40
2
0
CIRCLE
8
HOLES
10
234
20
219.84609690826525
30
0
40
2
0
CIRCLE
8
HOLES
10
240
20
219.84609690826525
30
0
40
2
0
CIRCLE
8
HOLES
10
246
20
219.84609690826525
30
0
40
2
0
CIRCLE
8
HOLES
10
252
20
219.84609690826525
30
0
40
2
0
CIRCLE
8
HOLES
10
258
20
219.84609690826525
30
0
40
2
0
CIRCLE
8
HOLES
10
264
20
219.84609690826525
30
0
40
2
0
CIRCLE
8
HOLES
10
270
20
219.84609690826525
30
0
40
2
0
CIRCLE
8
HOLES
10
276
20
219.84609690826525
30
0
40
2
0
CIRCLE
8
HOLES
10
282
20
219.84609690826525
30
0
40
2
0
CIRCLE
8
HOLES
10
288
20
219.84609690826525
30
0
40
2
0
CIRCLE
8
HOLES
10
294
20
219.84609690826525
30
0
40
2
0
CIRCLE
8
HOLES
10
300
20
219.84609690826525
30
0
40
2
0
CIRCLE
8
HOLES
10
306
20
219.84609690826525
30
0
40
2
0
CIRCLE
8
HOLES
10
15
20
225.04224933097188
30
0
40
2
0
CIRCLE
8
HOLES
10
21
20
225.04224933097188
30
0
40
2
0
CIRCLE
8
HOLES
10
27
20
225.04224933097188
30
0
40
2
0
CIRCLE
8
HOLES
10
33
20
225.04224933097188
30
0
40
2
0
CIRCLE
8
HOLES
10
39
20
225.04224933097188
30
0
40
2
0
CIRCLE
8
HOLES
10
45
20
225.04224933097188
30
0
40
2
0
CIRCLE
8
HOLES
10
51
20
225.04224933097188
30
0
40
2
0
CIRCLE
8
HOLES
10
57
20
225.04224933097188
30
0
40
2
0
CIRCLE
8
HOLES
10
63
20
225.04224933097188
30
0
40
2
0
CIRCLE
8
HOLES
10
69
20
225.04224933097188
30
0
40
2
0
CIRCLE
8
HOLES
10
75
20
225.04224933097188
30
0
40
2
0
CIRCLE
8
HOLES
10
81
20
225.04224933097188
30
0
40
2
0
CIRCLE
8
HOLES
10
87
20
225.04224933097188
30
0
40
2
0
CIRCLE
8
HOLES
10
93
20
225.04224933097188
30
0
40
2
0
CIRCLE
8
HOLES
10
99
20
225.04224933097188
30
0
40
2
0
CIRCLE
8
HOLES
10
105
20
225.04224933097188
30
0
40
2
0
CIRCLE
8
HOLES
10
111
20
225.04224933097188
30
0
40
2
0
CIRCLE
8
HOLES
10
117
20
225.04224933097188
30
0
40
2
0
CIRCLE
8
HOLES
10
123
20
225.04224933097188
30
0
40
2
0
CIRCLE
8
HOLES
10
129
20
225.04224933097188
30
0
40
2
0
CIRCLE
8
HOLES
10
135
20
225.04224933097188
30
0
40
2
0
CIRCLE
8
HOLES
10
141
20
225.04224933097188
30
0
40
2
0
CIRCLE
8
HOLES
10
147
20
225.04224933097188
30
0
40
2
0
CIRCLE
8
HOLES
10
153
20
225.04224933097188
30
0
40
2
0
CIRCLE
8
HOLES
10
159
20
225.04224933097188
30
0
40
2
0
CIRCLE
8
HOLES
10
165
20
225.04224933097188
30
0
40
2
0
CIRCLE
8
HOLES
10
171
20
225.04224933097188
30
0
40
2
0
CIRCLE
8
HOLES
10
177
20
225.04224933097188
30
0
40
2
0
CIRCLE
8
HOLES
10
183
20
225.04224933097188
30
0
40
2
0
CIRCLE
8
HOLES
10
189
20
225.04224933097188
30
0
40
2
0
CIRCLE
8
HOLES
10
195
20
225.04224933097188
30
0
40
2
0
CIRCLE
8
HOLES
10
201
20
225.04224933097188
30
0
40
2
0
CIRCLE
8
HOLES
10
207
20
225.04224933097188
30
0
40
2
0
CIRCLE
8
HOLES
10
213
20
225.04224933097188
30
0
40
2
0
CIRCLE
8
HOLES
10
219
20
225.04224933097188
30
0
40
2
0
CIRCLE
8
HOLES
10
225
20
225.04224933097188
30
0
40
2
0
CIRCLE
8
HOLES
10
231
20
225.04224933097188
30
0
40
2
0
CIRCLE
8
HOLES
10
237
20
225.04224933097188
30
0
40
2
0
CIRCLE
8
HOLES
10
243
20
225.04224933097188
30
0
40
2
0
CIRCLE
8
HOLES
10
249
20
225.04224933097188
30
0
40
2
0
CIRCLE
8
HOLES
10
255
20
225.04224933097188
30
0
40
2
0
CIRCLE
8
HOLES
10
261
20
225.04224933097188
30
0
40
2
0
CIRCLE
8
HOLES
10
267
20
225.04224933097188
30
0
40
2
0
CIRCLE
8
HOLES
10
273
20
225.04224933097188
30
0
40
2
0
CIRCLE
8
HOLES
10
279
20
225.04224933097188
30
0
40
2
0
CIRCLE
8
HOLES
10
285
20
225.04224933097188
30
0
40
2
0
CIRCLE
8
HOLES
10
291
20
225.04224933097188
30
0
40
2
0
CIRCLE
8
HOLES
10
297
20
225.04224933097188
30
0
40
2
0
CIRCLE
8
HOLES
10
303
20
225.04224933097188
30
0
40
2
0
CIRCLE
8
HOLES
10
12
20
230.23840175367852
30
0
40
2
0
CIRCLE
8
HOLES
10
18
20
230.23840175367852
30
0
40
2
0
CIRCLE
8
HOLES
10
24
20
230.23840175367852
30
0
40
2
0
CIRCLE
8
HOLES
10
30
20
230.23840175367852
30
0
40
2
0
CIRCLE
8
HOLES
10
36
20
230.23840175367852
30
0
40
2
0
CIRCLE
8
HOLES
10
42
20
230.23840175367852
30
0
40
2
0
CIRCLE
8
HOLES
10
48
20
230.23840175367852
30
0
40
2
0
CIRCLE
8
HOLES
10
54
20
230.23840175367852
30
0
40
2
0
CIRCLE
8
HOLES
10
60
20
230.23840175367852
30
0
40
2
0
CIRCLE
8
HOLES
10
66
20
230.23840175367852
30
0
40
2
0
CIRCLE
8
HOLES
10
72
20
230.23840175367852
30
0
40
2
0
CIRCLE
8
HOLES
10
78
20
230.23840175367852
30
0
40
2
0
CIRCLE
8
HOLES
10
84
20
230.23840175367852
30
0
40
2
0
CIRCLE
8
HOLES
10
90
20
230.23840175367852
30
0
40
2
0
CIRCLE
8
HOLES
10
96
20
230.23840175367852
30
0
40
2
0
CIRCLE
8
HOLES
10
102
20
230.23840175367852
30
0
40
2
0
CIRCLE
8
HOLES
10
108
20
230.23840175367852
30
0
40
2
0
CIRCLE
8
HOLES
10
114
20
230.23840175367852
30
0
40
2
0
CIRCLE
8
HOLES
10
120
20
230.23840175367852
30
0
40
2
0
CIRCLE
8
HOLES
10
126
20
230.23840175367852
30
0
40
2
0
CIRCLE
8
HOLES
10
132
20
230.23840175367852
30
0
40
2
0
CIRCLE
8
HOLES
10
138
20
230.23840175367852
30
0
40
2
0
CIRCLE
8
HOLES
10
144
20
230.23840175367852
30
0
40
2
0
CIRCLE
8
HOLES
10
150
20
230.23840175367852
30
0
40
2
0
CIRCLE
8
HOLES
10
156
20
230.23840175367852
30
0
40
2
0
CIRCLE
8
HOLES
10
162
20
230.23840175367852
30
0
40
2
0
CIRCLE
8
HOLES
10
168
20
230.23840175367852
30
0
40
2
0
CIRCLE
8
HOLES
10
174
20
230.23840175367852
30
0
40
2
0
CIRCLE
8
HOLES
10
180
20
230.23840175367852
30
0
40
2
0
CIRCLE
8
HOLES
10
186
20
230.23840175367852
30
0
40
2
0
CIRCLE
8
HOLES
10
192
20
230.23840175367852
30
0
40
2
0
CIRCLE
8
HOLES
10
198
20
230.23840175367852
30
0
40
2
0
CIRCLE
8
HOLES
10
204
20
230.23840175367852
30
0
40
2
0
CIRCLE
8
HOLES
10
210
20
230.23840175367852
30
0
40
2
0
CIRCLE
8
HOLES
10
216
20
230.23840175367852
30
0
40
2
0
CIRCLE
8
HOLES
10
222
20
230.23840175367852
30
0
40
2
0
CIRCLE
8
HOLES
10
228
20
230.23840175367852
30
0
40
2
0
CIRCLE
8
HOLES
10
234
20
230.23840175367852
30
0
40
2
0
CIRCLE
8
HOLES
10
240
20
230.23840175367852
30
0
40
2
0
CIRCLE
8
HOLES
10
246
20
230.23840175367852
30
0
40
2
0
CIRCLE
8
HOLES
10
252
20
230.23840175367852
30
0
40
2
0
CIRCLE
8
HOLES
10
258
20
230.23840175367852
30
0
40
2
0
CIRCLE
8
HOLES
10
264
20
230.23840175367852
30
0
40
2
0
CIRCLE
8
HOLES
10
270
20
230.23840175367852
30
0
40
2
0
CIRCLE
8
HOLES
10
276
20
230.23840175367852
30
0
40
2
0
CIRCLE
8
HOLES
10
282
20
230.23840175367852
30
0
40
2
0
CIRCLE
8
HOLES
10
288
20
230.23840175367852
30
0
40
2
0
CIRCLE
8
HOLES
10
294
20
230.23840175367852
30
0
40
2
0
CIRCLE
8
HOLES
10
300
20
230.23840175367852
30
0
40
2
0
CIRCLE
8
HOLES
10
306
20
230.23840175367852
30
0
40
2
0
CIRCLE
8
HOLES
10
15
20
235.43455417638515
30
0
40
2
0
CIRCLE
8
HOLES
10
21
20
235.43455417638515
30
0
40
2
0
CIRCLE
8
HOLES
10
27
20
235.43455417638515
30
0
40
2
0
CIRCLE
8
HOLES
10
33
20
235.43455417638515
30
0
40
2
0
CIRCLE
8
HOLES
10
39
20
235.43455417638515
30
0
40
2
0
CIRCLE
8
HOLES
10
45
20
235.43455417638515
30
0
40
2
0
CIRCLE
8
HOLES
10
51
20
235.43455417638515
30
0
40
2
0
CIRCLE
8
HOLES
10
57
20
235.43455417638515
30
0
40
2
0
CIRCLE
8
HOLES
10
63
20
235.43455417638515
30
0
40
2
0
CIRCLE
8
HOLES
10
69
20
235.43455417638515
30
0
40
2
0
CIRCLE
8
HOLES
10
75
20
235.43455417638515
30
0
40
2
0
CIRCLE
8
HOLES
10
81
20
235.43455417638515
30
0
40
2
0
CIRCLE
8
HOLES
10
87
20
235.43455417638515
30
0
40
2
0
CIRCLE
8
HOLES
10
93
20
235.43455417638515
30
0
40
2
0
CIRCLE
8
HOLES
10
99
20
235.43455417638515
30
0
40
2
0
CIRCLE
8
HOLES
10
105
20
235.43455417638515
30
0
40
2
0
CIRCLE
8
HOLES
10
111
20
235.43455417638515
30
0
40
2
0
CIRCLE
8
HOLES
10
117
20
235.43455417638515
30
0
40
2
0
CIRCLE
8
HOLES
10
123
20
235.43455417638515
30
0
40
2
0
CIRCLE
8
HOLES
10
129
20
235.43455417638515
30
0
40
2
0
CIRCLE
8
HOLES
10
135
20
235.43455417638515
30
0
40
2
0
CIRCLE
8
HOLES
10
141
20
235.43455417638515
30
0
40
2
0
CIRCLE
8
HOLES
10
147
20
235.43455417638515
30
0
40
2
0
CIRCLE
8
HOLES
10
153
20
235.43455417638515
30
0
40
2
0
CIRCLE
8
HOLES
10
159
20
235.43455417638515
30
0
40
2
0
CIRCLE
8
HOLES
10
165
20
235.43455417638515
30
0
40
2
0
CIRCLE
8
HOLES
10
171
20
235.43455417638515
30
0
40
2
0
CIRCLE
8
HOLES
10
177
20
235.43455417638515
30
0
40
2
0
CIRCLE
8
HOLES
10
183
20
235.43455417638515
30
0
40
2
0
CIRCLE
8
HOLES
10
189
20
235.43455417638515
30
0
40
2
0
CIRCLE
8
HOLES
10
195
20
235.43455417638515
30
0
40
2
0
CIRCLE
8
HOLES
10
201
20
235.43455417638515
30
0
40
2
0
CIRCLE
8
HOLES
10
207
20
235.43455417638515
30
0
40
2
0
CIRCLE
8
HOLES
10
213
20
235.43455417638515
30
0
40
2
0
CIRCLE
8
HOLES
10
219
20
235.43455417638515
30
0
40
2
0
CIRCLE
8
HOLES
10
225
20
235.43455417638515
30
0
40
2
0
CIRCLE
8
HOLES
10
231
20
235.43455417638515
30
0
40
2
0
CIRCLE
8
HOLES
10
237
20
235.43455417638515
30
0
40
2
0
CIRCLE
8
HOLES
10
243
20
235.43455417638515
30
0
40
2
0
CIRCLE
8
HOLES
10
249
20
235.43455417638515
30
0
40
2
0
CIRCLE
8
HOLES
10
255
20
235.43455417638515
30
0
40
2
0
CIRCLE
8
HOLES
10
261
20
235.43455417638515
30
0
40
2
0
CIRCLE
8
HOLES
10
267
20
235.43455417638515
30
0
40
2
0
CIRCLE
8
HOLES
10
273
20
235.43455417638515
30
0
40
2
0
CIRCLE
8
HOLES
10
279
20
235.43455417638515
30
0
40
2
0
CIRCLE
8
HOLES
10
285
20
235.43455417638515
30
0
40
2
0
CIRCLE
8
HOLES
10
291
20
235.43455417638515
30
0
40
2
0
CIRCLE
8
HOLES
10
297
20
235.43455417638515
30
0
40
2
0
CIRCLE
8
HOLES
10
303
20
235.43455417638515
30
0
40
2
0
CIRCLE
8
HOLES
10
12
20
240.63070659909178
30
0
40
2
0
CIRCLE
8
HOLES
10
18
20
240.63070659909178
30
0
40
2
0
CIRCLE
8
HOLES
10
24
20
240.63070659909178
30
0
40
2
0
CIRCLE
8
HOLES
10
30
20
240.63070659909178
30
0
40
2
0
CIRCLE
8
HOLES
10
36
20
240.63070659909178
30
0
40
2
0
CIRCLE
8
HOLES
10
42
20
240.63070659909178
30
0
40
2
0
CIRCLE
8
HOLES
10
48
20
240.63070659909178
30
0
40
2
0
CIRCLE
8
HOLES
10
54
20
240.63070659909178
30
0
40
2
0
CIRCLE
8
HOLES
10
60
20
240.63070659909178
30
0
40
2
0
CIRCLE
8
HOLES
10
66
20
240.63070659909178
30
0
40
2
0
CIRCLE
8
HOLES
10
72
20
240.63070659909178
30
0
40
2
0
CIRCLE
8
HOLES
10
78
20
240.63070659909178
30
0
40
2
0
CIRCLE
8
HOLES
10
84
20
240.63070659909178
30
0
40
2
0
CIRCLE
8
HOLES
10
90
20
240.63070659909178
30
0
40
2
0
CIRCLE
8
HOLES
10
96
20
240.63070659909178
30
0
40
2
0
CIRCLE
8
HOLES
10
102
20
240.63070659909178
30
0
40
2
0
CIRCLE
8
HOLES
10
108
20
240.63070659909178
30
0
40
2
0
CIRCLE
8
HOLES
10
114
20
240.63070659909178
30
0
40
2
0
CIRCLE
8
HOLES
10
120
20
240.63070659909178
30
0
40
2
0
CIRCLE
8
HOLES
10
126
20
240.63070659909178
30
0
40
2
0
CIRCLE
8
HOLES
10
132
20
240.63070659909178
30
0
40
2
0
CIRCLE
8
HOLES
10
138
20
240.63070659909178
30
0
40
2
0
CIRCLE
8
HOLES
10
144
20
240.63070659909178
30
0
40
2
0
CIRCLE
8
HOLES
10
150
20
240.63070659909178
30
0
40
2
0
CIRCLE
8
HOLES
10
156
20
240.63070659909178
30
0
40
2
0
CIRCLE
8
HOLES
10
162
20
240.63070659909178
30
0
40
2
0
CIRCLE
8
HOLES
10
168
20
240.63070659909178
30
0
40
2
0
CIRCLE
8
HOLES
10
174
20
240.63070659909178
30
0
40
2
0
CIRCLE
8
HOLES
10
180
20
240.63070659909178
30
0
40
2
0
CIRCLE
8
HOLES
10
186
20
240.63070659909178
30
0
40
2
0
CIRCLE
8
HOLES
10
192
20
240.63070659909178
30
0
40
2
0
CIRCLE
8
HOLES
10
198
20
240.63070659909178
30
0
40
2
0
CIRCLE
8
HOLES
10
204
20
240.63070659909178
30
0
40
2
0
CIRCLE
8
HOLES
10
210
20
240.63070659909178
30
0
40
2
0
CIRCLE
8
HOLES
10
216
20
240.63070659909178
30
0
40
2
0
CIRCLE
8
HOLES
10
222
20
240.63070659909178
30
0
40
2
0
CIRCLE
8
HOLES
10
228
20
240.63070659909178
30
0
40
2
0
CIRCLE
8
HOLES
10
234
20
240.63070659909178
30
0
40
2
0
CIRCLE
8
HOLES
10
240
20
240.63070659909178
30
0
40
2
0
CIRCLE
8
HOLES
10
246
20
240.63070659909178
30
0
40
2
0
CIRCLE
8
HOLES
10
252
20
240.63070659909178
30
0
40
2
0
CIRCLE
8
HOLES
10
258
20
240.63070659909178
30
0
40
2
0
CIRCLE
8
HOLES
10
264
20
240.63070659909178
30
0
40
2
0
CIRCLE
8
HOLES
10
270
20
240.63070659909178
30
0
40
2
0
CIRCLE
8
HOLES
10
276
20
240.63070659909178
30
0
40
2
0
CIRCLE
8
HOLES
10
282
20
240.63070659909178
30
0
40
2
0
CIRCLE
8
HOLES
10
288
20
240.63070659909178
30
0
40
2
0
CIRCLE
8
HOLES
10
294
20
240.63070659909178
30
0
40
2
0
CIRCLE
8
HOLES
10
300
20
240.63070659909178
30
0
40
2
0
CIRCLE
8
HOLES
10
306
20
240.63070659909178
30
0
40
2
0
CIRCLE
8
HOLES
10
15
20
245.8268590217984
30
0
40
2
0
CIRCLE
8
HOLES
10
21
20
245.8268590217984
30
0
40
2
0
CIRCLE
8
HOLES
10
27
20
245.8268590217984
30
0
40
2
0
CIRCLE
8
HOLES
10
33
20
245.8268590217984
30
0
40
2
0
CIRCLE
8
HOLES
10
39
20
245.8268590217984
30
0
40
2
0
CIRCLE
8
HOLES
10
45
20
245.8268590217984
30
0
40
2
0
CIRCLE
8
HOLES
10
51
20
245.8268590217984
30
0
40
2
0
CIRCLE
8
HOLES
10
57
20
245.8268590217984
30
0
40
2
0
CIRCLE
8
HOLES
10
63
20
245.8268590217984
30
0
40
2
0
CIRCLE
8
HOLES
10
69
20
245.8268590217984
30
0
40
2
0
CIRCLE
8
HOLES
10
75
20
245.8268590217984
30
0
40
2
0
CIRCLE
8
HOLES
10
81
20
245.8268590217984
30
0
40
2
0
CIRCLE
8
HOLES
10
87
20
245.8268590217984
30
0
40
2
0
CIRCLE
8
HOLES
10
93
20
245.8268590217984
30
0
40
2
0
CIRCLE
8
HOLES
10
99
20
245.8268590217984
30
0
40
2
0
CIRCLE
8
HOLES
10
105
20
245.8268590217984
30
0
40
2
0
CIRCLE
8
HOLES
10
111
20
245.8268590217984
30
0
40
2
0
CIRCLE
8
HOLES
10
117
20
245.8268590217984
30
0
40
2
0
CIRCLE
8
HOLES
10
123
20
245.8268590217984
30
0
40
2
0
CIRCLE
8
HOLES
10
129
20
245.8268590217984
30
0
40
2
0
CIRCLE
8
HOLES
10
135
20
245.8268590217984
30
0
40
2
0
CIRCLE
8
HOLES
10
141
20
245.8268590217984
30
0
40
2
0
CIRCLE
8
HOLES
10
147
20
245.8268590217984
30
0
40
2
0
CIRCLE
8
HOLES
10
153
20
245.8268590217984
30
0
40
2
0
CIRCLE
8
HOLES
10
159
20
245.8268590217984
30
0
40
2
0
CIRCLE
8
HOLES
10
165
20
245.8268590217984
30
0
40
2
0
CIRCLE
8
HOLES
10
171
20
245.8268590217984
30
0
40
2
0
CIRCLE
8
HOLES
10
177
20
245.8268590217984
30
0
40
2
0
CIRCLE
8
HOLES
10
183
20
245.8268590217984
30
0
40
2
0
CIRCLE
8
HOLES
10
189
20
245.8268590217984
30
0
40
2
0
CIRCLE
8
HOLES
10
195
20
245.8268590217984
30
0
40
2
0
CIRCLE
8
HOLES
10
201
20
245.8268590217984
30
0
40
2
0
CIRCLE
8
HOLES
10
207
20
245.8268590217984
30
0
40
2
0
CIRCLE
8
HOLES
10
213
20
245.8268590217984
30
0
40
2
0
CIRCLE
8
HOLES
10
219
20
245.8268590217984
30
0
40
2
0
CIRCLE
8
HOLES
10
225
20
245.8268590217984
30
0
40
2
0
CIRCLE
8
HOLES
10
231
20
245.8268590217984
30
0
40
2
0
CIRCLE
8
HOLES
10
237
20
245.8268590217984
30
0
40
2
0
CIRCLE
8
HOLES
10
243
20
245.8268590217984
30
0
40
2
0
CIRCLE
8
HOLES
10
249
20
245.8268590217984
30
0
40
2
0
CIRCLE
8
HOLES
10
255
20
245.8268590217984
30
0
40
2
0
CIRCLE
8
HOLES
10
261
20
245.8268590217984
30
0
40
2
0
CIRCLE
8
HOLES
10
267
20
245.8268590217984
30
0
40
2
0
CIRCLE
8
HOLES
10
273
20
245.8268590217984
30
0
40
2
0
CIRCLE
8
HOLES
10
279
20
245.8268590217984
30
0
40
2
0
CIRCLE
8
HOLES
10
285
20
245.8268590217984
30
0
40
2
0
CIRCLE
8
HOLES
10
291
20
245.8268590217984
30
0
40
2
0
CIRCLE
8
HOLES
10
297
20
245.8268590217984
30
0
40
2
0
CIRCLE
8
HOLES
10
303
20
245.8268590217984
30
0
40
2
0
CIRCLE
8
HOLES
10
12
20
251.02301144450504
30
0
40
2
0
CIRCLE
8
HOLES
10
18
20
251.02301144450504
30
0
40
2
0
CIRCLE
8
HOLES
10
24
20
251.02301144450504
30
0
40
2
0
CIRCLE
8
HOLES
10
30
20
251.02301144450504
30
0
40
2
0
CIRCLE
8
HOLES
10
36
20
251.02301144450504
30
0
40
2
0
CIRCLE
8
HOLES
10
42
20
251.02301144450504
30
0
40
2
0
CIRCLE
8
HOLES
10
48
20
251.02301144450504
30
0
40
2
0
CIRCLE
8
HOLES
10
54
20
251.02301144450504
30
0
40
2
0
CIRCLE
8
HOLES
10
60
20
251.02301144450504
30
0
40
2
0
CIRCLE
8
HOLES
10
66
20
251.02301144450504
30
0
40
2
0
CIRCLE
8
HOLES
10
72
20
251.02301144450504
30
0
40
2
0
CIRCLE
8
HOLES
10
78
20
251.02301144450504
30
0
40
2
0
CIRCLE
8
HOLES
10
84
20
251.02301144450504
30
0
40
2
0
CIRCLE
8
HOLES
10
90
20
251.02301144450504
30
0
40
2
0
CIRCLE
8
HOLES
10
96
20
251.02301144450504
30
0
40
2
0
CIRCLE
8
HOLES
10
102
20
251.02301144450504
30
0
40
2
0
CIRCLE
8
HOLES
10
108
20
251.02301144450504
30
0
40
2
0
CIRCLE
8
HOLES
10
114
20
251.02301144450504
30
0
40
2
0
CIRCLE
8
HOLES
10
120
20
251.02301144450504
30
0
40
2
0
CIRCLE
8
HOLES
10
126
20
251.02301144450504
30
0
40
2
0
CIRCLE
8
HOLES
10
132
20
251.02301144450504
30
0
40
2
0
CIRCLE
8
HOLES
10
138
20
251.02301144450504
30
0
40
2
0
CIRCLE
8
HOLES
10
144
20
251.02301144450504
30
0
40
2
0
CIRCLE
8
HOLES
10
150
20
251.02301144450504
30
0
40
2
0
CIRCLE
8
HOLES
10
156
20
251.02301144450504
30
0
40
2
0
CIRCLE
8
HOLES
10
162
20
251.02301144450504
30
0
40
2
0
CIRCLE
8
HOLES
10
168
20
251.02301144450504
30
0
40
2
0
CIRCLE
8
HOLES
10
174
20
251.02301144450504
30
0
40
2
0
CIRCLE
8
HOLES
10
180
20
251.02301144450504
30
0
40
2
0
CIRCLE
8
HOLES
10
186
20
251.02301144450504
30
0
40
2
0
CIRCLE
8
HOLES
10
192
20
251.02301144450504
30
0
40
2
0
CIRCLE
8
HOLES
10
198
20
251.02301144450504
30
0
40
2
0
CIRCLE
8
HOLES
10
204
20
251.02301144450504
30
0
40
2
0
CIRCLE
8
HOLES
10
210
20
251.02301144450504
30
0
40
2
0
CIRCLE
8
HOLES
10
216
20
251.02301144450504
30
0
40
2
0
CIRCLE
8
HOLES
10
222
20
251.02301144450504
30
0
40
2
0
CIRCLE
8
HOLES
10
228
20
251.02301144450504
30
0
40
2
0
CIRCLE
8
HOLES
10
234
20
251.02301144450504
30
0
40
2
0
CIRCLE
8
HOLES
10
240
20
251.02301144450504
30
0
40
2
0
CIRCLE
8
HOLES
10
246
20
251.02301144450504
30
0
40
2
0
CIRCLE
8
HOLES
10
252
20
251.02301144450504
30
0
40
2
0
CIRCLE
8
HOLES
10
258
20
251.02301144450504
30
0
40
2
0
CIRCLE
8
HOLES
10
264
20
251.02301144450504
30
0
40
2
0
CIRCLE
8
HOLES
10
270
20
251.02301144450504
30
0
40
2
0
CIRCLE
8
HOLES
10
276
20
251.02301144450504
30
0
40
2
0
CIRCLE
8
HOLES
10
282
20
251.02301144450504
30
0
40
2
0
CIRCLE
8
HOLES
10
288
20
251.02301144450504
30
0
40
2
0
CIRCLE
8
HOLES
10
294
20
251.02301144450504
30
0
40
2
0
CIRCLE
8
HOLES
10
300
20
251.02301144450504
30
0
40
2
0
CIRCLE
8
HOLES
10
306
20
251.02301144450504
30
0
40
2
0
CIRCLE
8
HOLES
10
15
20
256.2191638672117
30
0
40
2
0
CIRCLE
8
HOLES
10
21
20
256.2191638672117
30
0
40
2
0
CIRCLE
8
HOLES
10
27
20
256.2191638672117
30
0
40
2
0
CIRCLE
8
HOLES
10
33
20
256.2191638672117
30
0
40
2
0
CIRCLE
8
HOLES
10
39
20
256.2191638672117
30
0
40
2
0
CIRCLE
8
HOLES
10
45
20
256.2191638672117
30
0
40
2
0
CIRCLE
8
HOLES
10
51
20
256.2191638672117
30
0
40
2
0
CIRCLE
8
HOLES
10
57
20
256.2191638672117
30
0
40
2
0
CIRCLE
8
HOLES
10
63
20
256.2191638672117
30
0
40
2
0
CIRCLE
8
HOLES
10
69
20
256.2191638672117
30
0
40
2
0
CIRCLE
8
HOLES
10
75
20
256.2191638672117
30
0
40
2
0
CIRCLE
8
HOLES
10
81
20
256.2191638672117
30
0
40
2
0
CIRCLE
8
HOLES
10
87
20
256.2191638672117
30
0
40
2
0
CIRCLE
8
HOLES
10
93
20
256.2191638672117
30
0
40
2
0
CIRCLE
8
HOLES
10
99
20
256.2191638672117
30
0
40
2
0
CIRCLE
8
HOLES
10
105
20
256.2191638672117
30
0
40
2
0
CIRCLE
8
HOLES
10
111
20
256.2191638672117
30
0
40
2
0
CIRCLE
8
HOLES
10
117
20
256.2191638672117
30
0
40
2
0
CIRCLE
8
HOLES
10
123
20
256.2191638672117
30
0
40
2
0
CIRCLE
8
HOLES
10
129
20
256.2191638672117
30
0
40
2
0
CIRCLE
8
HOLES
10
135
20
256.2191638672117
30
0
40
2
0
CIRCLE
8
HOLES
10
141
20
256.2191638672117
30
0
40
2
0
CIRCLE
8
HOLES
10
147
20
256.2191638672117
30
0
40
2
0
CIRCLE
8
HOLES
10
153
20
256.2191638672117
30
0
40
2
0
CIRCLE
8
HOLES
10
159
20
256.2191638672117
30
0
40
2
0
CIRCLE
8
HOLES
10
165
20
256.2191638672117
30
0
40
2
0
CIRCLE
8
HOLES
10
171
20
256.2191638672117
30
0
40
2
0
CIRCLE
8
HOLES
10
177
20
256.2191638672117
30
0
40
2
0
CIRCLE
8
HOLES
10
183
20
256.2191638672117
30
0
40
2
0
CIRCLE
8
HOLES
10
189
20
256.2191638672117
30
0
40
2
0
CIRCLE
8
HOLES
10
195
20
256.2191638672117
30
0
40
2
0
CIRCLE
8
HOLES
10
201
20
256.2191638672117
30
0
40
2
0
CIRCLE
8
HOLES
10
207
20
256.2191638672117
30
0
40
2
0
CIRCLE
8
HOLES
10
213
20
256.2191638672117
30
0
40
2
0
CIRCLE
8
HOLES
10
219
20
256.2191638672117
30
0
40
2
0
CIRCLE
8
HOLES
10
225
20
256.2191638672117
30
0
40
2
0
CIRCLE
8
HOLES
10
231
20
256.2191638672117
30
0
40
2
0
CIRCLE
8
HOLES
10
237
20
256.2191638672117
30
0
40
2
0
CIRCLE
8
HOLES
10
243
20
256.2191638672117
30
0
40
2
0
CIRCLE
8
HOLES
10
249
20
256.2191638672117
30
0
40
2
0
CIRCLE
8
HOLES
10
255
20
256.2191638672117
30
0
40
2
0
CIRCLE
8
HOLES
10
261
20
256.2191638672117
30
0
40
2
0
CIRCLE
8
HOLES
10
267
20
256.2191638672117
30
0
40
2
0
CIRCLE
8
HOLES
10
273
20
256.2191638672117
30
0
40
2
0
CIRCLE
8
HOLES
10
279
20
256.2191638672117
30
0
40
2
0
CIRCLE
8
HOLES
10
285
20
256.2191638672117
30
0
40
2
0
CIRCLE
8
HOLES
10
291
20
256.2191638672117
30
0
40
2
0
CIRCLE
8
HOLES
10
297
20
256.2191638672117
30
0
40
2
0
CIRCLE
8
HOLES
10
303
20
256.2191638672117
30
0
40
2
0
CIRCLE
8
HOLES
10
12
20
261.41531628991834
30
0
40
2
0
CIRCLE
8
HOLES
10
18
20
261.41531628991834
30
0
40
2
0
CIRCLE
8
HOLES
10
24
20
261.41531628991834
30
0
40
2
0
CIRCLE
8
HOLES
10
30
20
261.41531628991834
30
0
40
2
0
CIRCLE
8
HOLES
10
36
20
261.41531628991834
30
0
40
2
0
CIRCLE
8
HOLES
10
42
20
261.41531628991834
30
0
40
2
0
CIRCLE
8
HOLES
10
48
20
261.41531628991834
30
0
40
2
0
CIRCLE
8
HOLES
10
54
20
261.41531628991834
30
0
40
2
0
CIRCLE
8
HOLES
10
60
20
261.41531628991834
30
0
40
2
0
CIRCLE
8
HOLES
10
66
20
261.41531628991834
30
0
40
2
0
CIRCLE
8
HOLES
10
72
20
261.41531628991834
30
0
40
2
0
CIRCLE
8
HOLES
10
78
20
261.41531628991834
30
0
40
2
0
CIRCLE
8
HOLES
10
84
20
261.41531628991834
30
0
40
2
0
CIRCLE
8
HOLES
10
90
20
261.41531628991834
30
0
40
2
0
CIRCLE
8
HOLES
10
96
20
261.41531628991834
30
0
40
2
0
CIRCLE
8
HOLES
10
102
20
261.41531628991834
30
0
40
2
0
CIRCLE
8
HOLES
10
108
20
261.41531628991834
30
0
40
2
0
CIRCLE
8
HOLES
10
114
20
261.41531628991834
30
0
40
2
0
CIRCLE
8
HOLES
10
120
20
261.41531628991834
30
0
40
2
0
CIRCLE
8
HOLES
10
126
20
261.41531628991834
30
0
40
2
0
CIRCLE
8
HOLES
10
132
20
261.41531628991834
30
0
40
2
0
CIRCLE
8
HOLES
10
138
20
261.41531628991834
30
0
40
2
0
CIRCLE
8
HOLES
10
144
20
261.41531628991834
30
0
40
2
0
CIRCLE
8
HOLES
10
150
20
261.41531628991834
30
0
40
2
0
CIRCLE
8
HOLES
10
156
20
261.41531628991834
30
0
40
2
0
CIRCLE
8
HOLES
10
162
20
261.41531628991834
30
0
40
2
0
CIRCLE
8
HOLES
10
168
20
261.41531628991834
30
0
40
2
0
CIRCLE
8
HOLES
10
174
20
261.41531628991834
30
0
40
2
0
CIRCLE
8
HOLES
10
180
20
261.41531628991834
30
0
40
2
0
CIRCLE
8
HOLES
10
186
20
261.41531628991834
30
0
40
2
0
CIRCLE
8
HOLES
10
192
20
261.41531628991834
30
0
40
2
0
CIRCLE
8
HOLES
10
198
20
261.41531628991834
30
0
40
2
0
CIRCLE
8
HOLES
10
204
20
261.41531628991834
30
0
40
2
0
CIRCLE
8
HOLES
10
210
20
261.41531628991834
30
0
40
2
0
CIRCLE
8
HOLES
10
216
20
261.41531628991834
30
0
40
2
0
CIRCLE
8
HOLES
10
222
20
261.41531628991834
30
0
40
2
0
CIRCLE
8
HOLES
10
228
20
261.41531628991834
30
0
40
2
0
CIRCLE
8
HOLES
10
234
20
261.41531628991834
30
0
40
2
0
CIRCLE
8
HOLES
10
240
20
261.41531628991834
30
0
40
2
0
CIRCLE
8
HOLES
10
246
20
261.41531628991834
30
0
40
2
0
CIRCLE
8
HOLES
10
252
20
261.41531628991834
30
0
40
2
0
CIRCLE
8
HOLES
10
258
20
261.41531628991834
30
0
40
2
0
CIRCLE
8
HOLES
10
264
20
261.41531628991834
30
0
40
2
0
CIRCLE
8
HOLES
10
270
20
261.41531628991834
30
0
40
2
0
CIRCLE
8
HOLES
10
276
20
261.41531628991834
30
0
40
2
0
CIRCLE
8
HOLES
10
282
20
261.41531628991834
30
0
40
2
0
CIRCLE
8
HOLES
10
288
20
261.41531628991834
30
0
40
2
0
CIRCLE
8
HOLES
10
294
20
261.41531628991834
30
0
40
2
0
CIRCLE
8
HOLES
10
300
20
261.41531628991834
30
0
40
2
0
CIRCLE
8
HOLES
10
306
20
261.41531628991834
30
0
40
2
0
CIRCLE
8
HOLES
10
15
20
266.61146871262497
30
0
40
2
0
CIRCLE
8
HOLES
10
21
20
266.61146871262497
30
0
40
2
0
CIRCLE
8
HOLES
10
27
20
266.61146871262497
30
0
40
2
0
CIRCLE
8
HOLES
10
33
20
266.61146871262497
30
0
40
2
0
CIRCLE
8
HOLES
10
39
20
266.61146871262497
30
0
40
2
0
CIRCLE
8
HOLES
10
45
20
266.61146871262497
30
0
40
2
0
CIRCLE
8
HOLES
10
51
20
266.61146871262497
30
0
40
2
0
CIRCLE
8
HOLES
10
57
20
266.61146871262497
30
0
40
2
0
CIRCLE
8
HOLES
10
63
20
266.61146871262497
30
0
40
2
0
CIRCLE
8
HOLES
10
69
20
266.61146871262497
30
0
40
2
0
CIRCLE
8
HOLES
10
75
20
266.61146871262497
30
0
40
2
0
CIRCLE
8
HOLES
10
81
20
266.61146871262497
30
0
40
2
0
CIRCLE
8
HOLES
10
87
20
266.61146871262497
30
0
40
2
0
CIRCLE
8
HOLES
10
93
20
266.61146871262497
30
0
40
2
0
CIRCLE
8
HOLES
10
99
20
266.61146871262497
30
0
40
2
0
CIRCLE
8
HOLES
10
105
20
266.61146871262497
30
0
40
2
0
CIRCLE
8
HOLES
10
111
20
266.61146871262497
30
0
40
2
0
CIRCLE
8
HOLES
10
117
20
266.61146871262497
30
0
40
2
0
CIRCLE
8
HOLES
10
123
20
266.61146871262497
30
0
40
2
0
CIRCLE
8
HOLES
10
129
20
266.61146871262497
30
0
40
2
0
CIRCLE
8
HOLES
10
135
20
266.61146871262497
30
0
40
2
0
CIRCLE
8
HOLES
10
141
20
266.61146871262497
30
0
40
2
0
CIRCLE
8
HOLES
10
147
20
266.61146871262497
30
0
40
2
0
CIRCLE
8
HOLES
10
153
20
266.61146871262497
30
0
40
2
0
CIRCLE
8
HOLES
10
159
20
266.61146871262497
30
0
40
2
0
CIRCLE
8
HOLES
10
165
20
266.61146871262497
30
0
40
2
0
CIRCLE
8
HOLES
10
171
20
266.61146871262497
30
0
40
2
0
CIRCLE
8
HOLES
10
177
20
266.61146871262497
30
0
40
2
0
CIRCLE
8
HOLES
10
183
20
266.61146871262497
30
0
40
2
0
CIRCLE
8
HOLES
10
189
20
266.61146871262497
30
0
40
2
0
CIRCLE
8
HOLES
10
195
20
266.61146871262497
30
0
40
2
0
CIRCLE
8
HOLES
10
201
20
266.61146871262497
30
0
40
2
0
CIRCLE
8
HOLES
10
207
20
266.61146871262497
30
0
40
2
0
CIRCLE
8
HOLES
10
213
20
266.61146871262497
30
0
40
2
0
CIRCLE
8
HOLES
10
219
20
266.61146871262497
30
0
40
2
0
CIRCLE
8
HOLES
10
225
20
266.61146871262497
30
0
40
2
0
CIRCLE
8
HOLES
10
231
20
266.61146871262497
30
0
40
2
0
CIRCLE
8
HOLES
10
237
20
266.61146871262497
30
0
40
2
0
CIRCLE
8
HOLES
10
243
20
266.61146871262497
30
0
40
2
0
CIRCLE
8
HOLES
10
249
20
266.61146871262497
30
0
40
2
0
CIRCLE
8
HOLES
10
255
20
266.61146871262497
30
0
40
2
0
CIRCLE
8
HOLES
10
261
20
266.61146871262497
30
0
40
2
0
CIRCLE
8
HOLES
10
267
20
266.61146871262497
30
0
40
2
0
CIRCLE
8
HOLES
10
273
20
266.61146871262497
30
0
40
2
0
CIRCLE
8
HOLES
10
279
20
266.61146871262497
30
0
40
2
0
CIRCLE
8
HOLES
10
285
20
266.61146871262497
30
0
40
2
0
CIRCLE
8
HOLES
10
291
20
266.61146871262497
30
0
40
2
0
CIRCLE
8
HOLES
10
297
20
266.61146871262497
30
0
40
2
0
CIRCLE
8
HOLES
10
303
20
266.61146871262497
30
0
40
2
0
CIRCLE
8
HOLES
10
12
20
271.8076211353316
30
0
40
2
0
CIRCLE
8
HOLES
10
18
20
271.8076211353316
30
0
40
2
0
CIRCLE
8
HOLES
10
24
20
271.8076211353316
30
0
40
2
0
CIRCLE
8
HOLES
10
30
20
271.8076211353316
30
0
40
2
0
CIRCLE
8
HOLES
10
36
20
271.8076211353316
30
0
40
2
0
CIRCLE
8
HOLES
10
42
20
271.8076211353316
30
0
40
2
0
CIRCLE
8
HOLES
10
48
20
271.8076211353316
30
0
40
2
0
CIRCLE
8
HOLES
10
54
20
271.8076211353316
30
0
40
2
0
CIRCLE
8
HOLES
10
60
20
271.8076211353316
30
0
40
2
0
CIRCLE
8
HOLES
10
66
20
271.8076211353316
30
0
40
2
0
CIRCLE
8
HOLES
10
72
20
271.8076211353316
30
0
40
2
0
CIRCLE
8
HOLES
10
78
20
271.8076211353316
30
0
40
2
0
CIRCLE
8
HOLES
10
84
20
271.8076211353316
30
0
40
2
0
CIRCLE
8
HOLES
10
90
20
271.8076211353316
30
0
40
2
0
CIRCLE
8
HOLES
10
96
20
271.8076211353316
30
0
40
2
0
CIRCLE
8
HOLES
10
102
20
271.8076211353316
30
0
40
2
0
CIRCLE
8
HOLES
10
108
20
271.8076211353316
30
0
40
2
0
CIRCLE
8
HOLES
10
114
20
271.8076211353316
30
0
40
2
0
CIRCLE
8
HOLES
10
120
20
271.8076211353316
30
0
40
2
0
CIRCLE
8
HOLES
10
126
20
271.8076211353316
30
0
40
2
0
CIRCLE
8
HOLES
10
132
20
271.8076211353316
30
0
40
2
0
CIRCLE
8
HOLES
10
138
20
271.8076211353316
30
0
40
2
0
CIRCLE
8
HOLES
10
144
20
271.8076211353316
30
0
40
2
0
CIRCLE
8
HOLES
10
150
20
271.8076211353316
30
0
40
2
0
CIRCLE
8
HOLES
10
156
20
271.8076211353316
30
0
40
2
0
CIRCLE
8
HOLES
10
162
20
271.8076211353316
30
0
40
2
0
CIRCLE
8
HOLES
10
168
20
271.8076211353316
30
0
40
2
0
CIRCLE
8
HOLES
10
174
20
271.8076211353316
30
0
40
2
0
CIRCLE
8
HOLES
10
180
20
271.8076211353316
30
0
40
2
0
CIRCLE
8
HOLES
10
186
20
271.8076211353316
30
0
40
2
0
CIRCLE
8
HOLES
10
192
20
271.8076211353316
30
0
40
2
0
CIRCLE
8
HOLES
10
198
20
271.8076211353316
30
0
40
2
0
CIRCLE
8
HOLES
10
204
20
271.8076211353316
30
0
40
2
0
CIRCLE
8
HOLES
10
210
20
271.8076211353316
30
0
40
2
0
CIRCLE
8
HOLES
10
216
20
271.8076211353316
30
0
40
2
0
CIRCLE
8
HOLES
10
222
20
271.8076211353316
30
0
40
2
0
CIRCLE
8
HOLES
10
228
20
271.8076211353316
30
0
40
2
0
CIRCLE
8
HOLES
10
234
20
271.8076211353316
30
0
40
2
0
CIRCLE
8
HOLES
10
240
20
271.8076211353316
30
0
40
2
0
CIRCLE
8
HOLES
10
246
20
271.8076211353316
30
0
40
2
0
CIRCLE
8
HOLES
10
252
20
271.8076211353316
30
0
40
2
0
CIRCLE
8
HOLES
10
258
20
271.8076211353316
30
0
40
2
0
CIRCLE
8
HOLES
10
264
20
271.8076211353316
30
0
40
2
0
CIRCLE
8
HOLES
10
270
20
271.8076211353316
30
0
40
2
0
CIRCLE
8
HOLES
10
276
20
271.8076211353316
30
0
40
2
0
CIRCLE
8
HOLES
10
282
20
271.8076211353316
30
0
40
2
0
CIRCLE
8
HOLES
10
288
20
271.8076211353316
30
0
40
2
0
CIRCLE
8
HOLES
10
294
20
271.8076211353316
30
0
40
2
0
CIRCLE
8
HOLES
10
300
20
271.8076211353316
30
0
40
2
0
CIRCLE
8
HOLES
10
306
20
271.8076211353316
30
0
40
2
0
CIRCLE
8
HOLES
10
15
20
277.00377355803823
30
0
40
2
0
CIRCLE
8
HOLES
10
21
20
277.00377355803823
30
0
40
2
0
CIRCLE
8
HOLES
10
27
20
277.00377355803823
30
0
40
2
0
CIRCLE
8
HOLES
10
33
20
277.00377355803823
30
0
40
2
0
CIRCLE
8
HOLES
10
39
20
277.00377355803823
30
0
40
2
0
CIRCLE
8
HOLES
10
45
20
277.00377355803823
30
0
40
2
0
CIRCLE
8
HOLES
10
51
20
277.00377355803823
30
0
40
2
0
CIRCLE
8
HOLES
10
57
20
277.00377355803823
30
0
40
2
0
CIRCLE
8
HOLES
10
63
20
277.00377355803823
30
0
40
2
0
CIRCLE
8
HOLES
10
69
20
277.00377355803823
30
0
40
2
0
CIRCLE
8
HOLES
10
75
20
277.00377355803823
30
0
40
2
0
CIRCLE
8
HOLES
10
81
20
277.00377355803823
30
0
40
2
0
CIRCLE
8
HOLES
10
87
20
277.00377355803823
30
0
40
2
0
CIRCLE
8
HOLES
10
93
20
277.00377355803823
30
0
40
2
0
CIRCLE
8
HOLES
10
99
20
277.00377355803823
30
0
40
2
0
CIRCLE
8
HOLES
10
105
20
277.00377355803823
30
0
40
2
0
CIRCLE
8
HOLES
10
111
20
277.00377355803823
30
0
40
2
0
CIRCLE
8
HOLES
10
117
20
277.00377355803823
30
0
40
2
0
CIRCLE
8
HOLES
10
123
20
277.00377355803823
30
0
40
2
0
CIRCLE
8
HOLES
10
129
20
277.00377355803823
30
0
40
2
0
CIRCLE
8
HOLES
10
135
20
277.00377355803823
30
0
40
2
0
CIRCLE
8
HOLES
10
141
20
277.00377355803823
30
0
40
2
0
CIRCLE
8
HOLES
10
147
20
277.00377355803823
30
0
40
2
0
CIRCLE
8
HOLES
10
153
20
277.00377355803823
30
0
40
2
0
CIRCLE
8
HOLES
10
159
20
277.00377355803823
30
0
40
2
0
CIRCLE
8
HOLES
10
165
20
277.00377355803823
30
0
40
2
0
CIRCLE
8
HOLES
10
171
20
277.00377355803823
30
0
40
2
0
CIRCLE
8
HOLES
10
177
20
277.00377355803823
30
0
40
2
0
CIRCLE
8
HOLES
10
183
20
277.00377355803823
30
0
40
2
0
CIRCLE
8
HOLES
10
189
20
277.00377355803823
30
0
40
2
0
CIRCLE
8
HOLES
10
195
20
277.00377355803823
30
0
40
2
0
CIRCLE
8
HOLES
10
201
20
277.00377355803823
30
0
40
2
0
CIRCLE
8
HOLES
10
207
20
277.00377355803823
30
0
40
2
0
CIRCLE
8
HOLES
10
213
20
277.00377355803823
30
0
40
2
0
CIRCLE
8
HOLES
10
219
20
277.00377355803823
30
0
40
2
0
CIRCLE
8
HOLES
10
225
20
277.00377355803823
30
0
40
2
0
CIRCLE
8
HOLES
10
231
20
277.00377355803823
30
0
40
2
0
CIRCLE
8
HOLES
10
237
20
277.00377355803823
30
0
40
2
0
CIRCLE
8
HOLES
10
243
20
277.00377355803823
30
0
40
2
0
CIRCLE
8
HOLES
10
249
20
277.00377355803823
30
0
40
2
0
CIRCLE
8
HOLES
10
255
20
277.00377355803823
30
0
40
2
0
CIRCLE
8
HOLES
10
261
20
277.00377355803823
30
0
40
2
0
CIRCLE
8
HOLES
10
267
20
277.00377355803823
30
0
40
2
0
CIRCLE
8
HOLES
10
273
20
277.00377355803823
30
0
40
2
0
CIRCLE
8
HOLES
10
279
20
277.00377355803823
30
0
40
2
0
CIRCLE
8
HOLES
10
285
20
277.00377355803823
30
0
40
2
0
CIRCLE
8
HOLES
10
291
20
277.00377355803823
30
0
40
2
0
CIRCLE
8
HOLES
10
297
20
277.00377355803823
30
0
40
2
0
CIRCLE
8
HOLES
10
303
20
277.00377355803823
30
0
40
2
0
CIRCLE
8
HOLES
10
12
20
282.19992598074487
30
0
40
2
0
CIRCLE
8
HOLES
10
18
20
282.19992598074487
30
0
40
2
0
CIRCLE
8
HOLES
10
24
20
282.19992598074487
30
0
40
2
0
CIRCLE
8
HOLES
10
30
20
282.19992598074487
30
0
40
2
0
CIRCLE
8
HOLES
10
36
20
282.19992598074487
30
0
40
2
0
CIRCLE
8
HOLES
10
42
20
282.19992598074487
30
0
40
2
0
CIRCLE
8
HOLES
10
48
20
282.19992598074487
30
0
40
2
0
CIRCLE
8
HOLES
10
54
20
282.19992598074487
30
0
40
2
0
CIRCLE
8
HOLES
10
60
20
282.19992598074487
30
0
40
2
0
CIRCLE
8
HOLES
10
66
20
282.19992598074487
30
0
40
2
0
CIRCLE
8
HOLES
10
72
20
282.19992598074487
30
0
40
2
0
CIRCLE
8
HOLES
10
78
20
282.19992598074487
30
0
40
2
0
CIRCLE
8
HOLES
10
84
20
282.19992598074487
30
0
40
2
0
CIRCLE
8
HOLES
10
90
20
282.19992598074487
30
0
40
2
0
CIRCLE
8
HOLES
10
96
20
282.19992598074487
30
0
40
2
0
CIRCLE
8
HOLES
10
102
20
282.19992598074487
30
0
40
2
0
CIRCLE
8
HOLES
10
108
20
282.19992598074487
30
0
40
2
0
CIRCLE
8
HOLES
10
114
20
282.19992598074487
30
0
40
2
0
CIRCLE
8
HOLES
10
120
20
282.19992598074487
30
0
40
2
0
CIRCLE
8
HOLES
10
126
20
282.19992598074487
30
0
40
2
0
CIRCLE
8
HOLES
10
132
20
282.19992598074487
30
0
40
2
0
CIRCLE
8
HOLES
10
138
20
282.19992598074487
30
0
40
2
0
CIRCLE
8
HOLES
10
144
20
282.19992598074487
30
0
40
2
0
CIRCLE
8
HOLES
10
150
20
282.19992598074487
30
0
40
2
0
CIRCLE
8
HOLES
10
156
20
282.19992598074487
30
0
40
2
0
CIRCLE
8
HOLES
10
162
20
282.19992598074487
30
0
40
2
0
CIRCLE
8
HOLES
10
168
20
282.19992598074487
30
0
40
2
0
CIRCLE
8
HOLES
10
174
20
282.19992598074487
30
0
40
2
0
CIRCLE
8
HOLES
10
180
20
282.19992598074487
30
0
40
2
0
CIRCLE
8
HOLES
10
186
20
282.19992598074487
30
0
40
2
0
CIRCLE
8
HOLES
10
192
20
282.19992598074487
30
0
40
2
0
CIRCLE
8
HOLES
10
198
20
282.19992598074487
30
0
40
2
0
CIRCLE
8
HOLES
10
204
20
282.19992598074487
30
0
40
2
0
CIRCLE
8
HOLES
10
210
20
282.19992598074487
30
0
40
2
0
CIRCLE
8
HOLES
10
216
20
282.19992598074487
30
0
40
2
0
CIRCLE
8
HOLES
10
222
20
282.19992598074487
30
0
40
2
0
CIRCLE
8
HOLES
10
228
20
282.19992598074487
30
0
40
2
0
CIRCLE
8
HOLES
10
234
20
282.19992598074487
30
0
40
2
0
CIRCLE
8
HOLES
10
240
20
282.19992598074487
30
0
40
2
0
CIRCLE
8
HOLES
10
246
20
282.19992598074487
30
0
40
2
0
CIRCLE
8
HOLES
10
252
20
282.19992598074487
30
0
40
2
0
CIRCLE
8
HOLES
10
258
20
282.19992598074487
30
0
40
2
0
CIRCLE
8
HOLES
10
264
20
282.19992598074487
30
0
40
2
0
CIRCLE
8
HOLES
10
270
20
282.19992598074487
30
0
40
2
0
CIRCLE
8
HOLES
10
276
20
282.19992598074487
30
0
40
2
0
CIRCLE
8
HOLES
10
282
20
282.19992598074487
30
0
40
2
0
CIRCLE
8
HOLES
10
288
20
282.19992598074487
30
0
40
2
0
CIRCLE
8
HOLES
10
294
20
282.19992598074487
30
0
40
2
0
CIRCLE
8
HOLES
10
300
20
282.19992598074487
30
0
40
2
0
CIRCLE
8
HOLES
10
306
20
282.19992598074487
30
0
40
2
0
CIRCLE
8
HOLES
10
15
20
287.3960784034515
30
0
40
2
0
CIRCLE
8
HOLES
10
21
20
287.3960784034515
30
0
40
2
0
CIRCLE
8
HOLES
10
27
20
287.3960784034515
30
0
40
2
0
CIRCLE
8
HOLES
10
33
20
287.3960784034515
30
0
40
2
0
CIRCLE
8
HOLES
10
39
20
287.3960784034515
30
0
40
2
0
CIRCLE
8
HOLES
10
45
20
287.3960784034515
30
0
40
2
0
CIRCLE
8
HOLES
10
51
20
287.3960784034515
30
0
40
2
0
CIRCLE
8
HOLES
10
57
20
287.3960784034515
30
0
40
2
0
CIRCLE
8
HOLES
10
63
20
287.3960784034515
30
0
40
2
0
CIRCLE
8
HOLES
10
69
20
287.3960784034515
30
0
40
2
0
CIRCLE
8
HOLES
10
75
20
287.3960784034515
30
0
40
2
0
CIRCLE
8
HOLES
10
81
20
287.3960784034515
30
0
40
2
0
CIRCLE
8
HOLES
10
87
20
287.3960784034515
30
0
40
2
0
CIRCLE
8
HOLES
10
93
20
287.3960784034515
30
0
40
2
0
CIRCLE
8
HOLES
10
99
20
287.3960784034515
30
0
40
2
0
CIRCLE
8
HOLES
10
105
20
287.3960784034515
30
0
40
2
0
CIRCLE
8
HOLES
10
111
20
287.3960784034515
30
0
40
2
0
CIRCLE
8
HOLES
10
117
20
287.3960784034515
30
0
40
2
0
CIRCLE
8
HOLES
10
123
20
287.3960784034515
30
0
40
2
0
CIRCLE
8
HOLES
10
129
20
287.3960784034515
30
0
40
2
0
CIRCLE
8
HOLES
10
135
20
287.3960784034515
30
0
40
2
0
CIRCLE
8
HOLES
10
141
20
287.3960784034515
30
0
40
2
0
CIRCLE
8
HOLES
10
147
20
287.3960784034515
30
0
40
2
0
CIRCLE
8
HOLES
10
153
20
287.3960784034515
30
0
40
2
0
CIRCLE
8
HOLES
10
159
20
287.3960784034515
30
0
40
2
0
CIRCLE
8
HOLES
10
165
20
287.3960784034515
30
0
40
2
0
CIRCLE
8
HOLES
10
171
20
287.3960784034515
30
0
40
2
0
CIRCLE
8
HOLES
10
177
20
287.3960784034515
30
0
40
2
0
CIRCLE
8
HOLES
10
183
20
287.3960784034515
30
0
40
2
0
CIRCLE
8
HOLES
10
189
20
287.3960784034515
30
0
40
2
0
CIRCLE
8
HOLES
10
195
20
287.3960784034515
30
0
40
2
0
CIRCLE
8
HOLES
10
201
20
287.3960784034515
30
0
40
2
0
CIRCLE
8
HOLES
10
207
20
287.3960784034515
30
0
40
2
0
CIRCLE
8
HOLES
10
213
20
287.3960784034515
30
0
40
2
0
CIRCLE
8
HOLES
10
219
20
287.3960784034515
30
0
40
2
0
CIRCLE
8
HOLES
10
225
20
287.3960784034515
30
0
40
2
0
CIRCLE
8
HOLES
10
231
20
287.3960784034515
30
0
40
2
0
CIRCLE
8
HOLES
10
237
20
287.3960784034515
30
0
40
2
0
CIRCLE
8
HOLES
10
243
20
287.3960784034515
30
0
40
2
0
CIRCLE
8
HOLES
10
249
20
287.3960784034515
30
0
40
2
0
CIRCLE
8
HOLES
10
255
20
287.3960784034515
30
0
40
2
0
CIRCLE
8
HOLES
10
261
20
287.3960784034515
30
0
40
2
0
CIRCLE
8
HOLES
10
267
20
287.3960784034515
30
0
40
2
0
CIRCLE
8
HOLES
10
273
20
287.3960784034515
30
0
40
2
0
CIRCLE
8
HOLES
10
279
20
287.3960784034515
30
0
40
2
0
CIRCLE
8
HOLES
10
285
20
287.3960784034515
30
0
40
2
0
CIRCLE
8
HOLES
10
291
20
287.3960784034515
30
0
40
2
0
CIRCLE
8
HOLES
10
297
20
287.3960784034515
30
0
40
2
0
CIRCLE
8
HOLES
10
303
20
287.3960784034515
30
0
40
2
0
CIRCLE
8
HOLES
10
12
20
292.59223082615813
30
0
40
2
0
CIRCLE
8
HOLES
10
18
20
292.59223082615813
30
0
40
2
0
CIRCLE
8
HOLES
10
24
20
292.59223082615813
30
0
40
2
0
CIRCLE
8
HOLES
10
30
20
292.59223082615813
30
0
40
2
0
CIRCLE
8
HOLES
10
36
20
292.59223082615813
30
0
40
2
0
CIRCLE
8
HOLES
10
42
20
292.59223082615813
30
0
40
2
0
CIRCLE
8
HOLES
10
48
20
292.59223082615813
30
0
40
2
0
CIRCLE
8
HOLES
10
54
20
292.59223082615813
30
0
40
2
0
CIRCLE
8
HOLES
10
60
20
292.59223082615813
30
0
40
2
0
CIRCLE
8
HOLES
10
66
20
292.59223082615813
30
0
40
2
0
CIRCLE
8
HOLES
10
72
20
292.59223082615813
30
0
40
2
0
CIRCLE
8
HOLES
10
78
20
292.59223082615813
30
0
40
2
0
CIRCLE
8
HOLES
10
84
20
292.59223082615813
30
0
40
2
0
CIRCLE
8
HOLES
10
90
20
292.59223082615813
30
0
40
2
0
CIRCLE
8
HOLES
10
96
20
292.59223082615813
30
0
40
2
0
CIRCLE
8
HOLES
10
102
20
292.59223082615813
30
0
40
2
0
CIRCLE
8
HOLES
10
108
20
292.59223082615813
30
0
40
2
0
CIRCLE
8
HOLES
10
114
20
292.59223082615813
30
0
40
2
0
CIRCLE
8
HOLES
10
120
20
292.59223082615813
30
0
40
2
0
CIRCLE
8
HOLES
10
126
20
292.59223082615813
30
0
40
2
0
CIRCLE
8
HOLES
10
132
20
292.59223082615813
30
0
40
2
0
CIRCLE
8
HOLES
10
138
20
292.59223082615813
30
0
40
2
0
CIRCLE
8
HOLES
10
144
20
292.59223082615813
30
0
40
2
0
CIRCLE
8
HOLES
10
150
20
292.59223082615813
30
0
40
2
0
CIRCLE
8
HOLES
10
156
20
292.59223082615813
30
0
40
2
0
CIRCLE
8
HOLES
10
162
20
292.59223082615813
30
0
40
2
0
CIRCLE
8
HOLES
10
168
20
292.59223082615813
30
0
40
2
0
CIRCLE
8
HOLES
10
174
20
292.59223082615813
30
0
40
2
0
CIRCLE
8
HOLES
10
180
20
292.59223082615813
30
0
40
2
0
CIRCLE
8
HOLES
10
186
20
292.59223082615813
30
0
40
2
0
CIRCLE
8
HOLES
10
192
20
292.59223082615813
30
0
40
2
0
CIRCLE
8
HOLES
10
198
20
292.59223082615813
30
0
40
2
0
CIRCLE
8
HOLES
10
204
20
292.59223082615813
30
0
40
2
0
CIRCLE
8
HOLES
10
210
20
292.59223082615813
30
0
40
2
0
CIRCLE
8
HOLES
10
216
20
292.59223082615813
30
0
40
2
0
CIRCLE
8
HOLES
10
222
20
292.59223082615813
30
0
40
2
0
CIRCLE
8
HOLES
10
228
20
292.59223082615813
30
0
40
2
0
CIRCLE
8
HOLES
10
234
20
292.59223082615813
30
0
40
2
0
CIRCLE
8
HOLES
10
240
20
292.59223082615813
30
0
40
2
0
CIRCLE
8
HOLES
10
246
20
292.59223082615813
30
0
40
2
0
CIRCLE
8
HOLES
10
252
20
292.59223082615813
30
0
40
2
0
CIRCLE
8
HOLES
10
258
20
292.59223082615813
30
0
40
2
0
CIRCLE
8
HOLES
10
264
20
292.59223082615813
30
0
40
2
0
CIRCLE
8
HOLES
10
270
20
292.59223082615813
30
0
40
2
0
CIRCLE
8
HOLES
10
276
20
292.59223082615813
30
0
40
2
0
CIRCLE
8
HOLES
10
282
20
292.59223082615813
30
0
40
2
0
CIRCLE
8
HOLES
10
288
20
292.59223082615813
30
0
40
2
0
CIRCLE
8
HOLES
10
294
20
292.59223082615813
30
0
40
2
0
CIRCLE
8
HOLES
10
300
20
292.59223082615813
30
0
40
2
0
CIRCLE
8
HOLES
10
306
20
292.59223082615813
30
0
40
2
0
CIRCLE
8
HOLES
10
15
20
297.78838324886476
30
0
40
2
0
CIRCLE
8
HOLES
10
21
20
297.78838324886476
30
0
40
2
0
CIRCLE
8
HOLES
10
27
20
297.78838324886476
30
0
40
2
0
CIRCLE
8
HOLES
10
33
20
297.78838324886476
30
0
40
2
0
CIRCLE
8
HOLES
10
39
20
297.78838324886476
30
0
40
2
0
CIRCLE
8
HOLES
10
45
20
297.78838324886476
30
0
40
2
0
CIRCLE
8
HOLES
10
51
20
297.78838324886476
30
0
40
2
0
CIRCLE
8
HOLES
10
57
20
297.78838324886476
30
0
40
2
0
CIRCLE
8
HOLES
10
63
20
297.78838324886476
30
0
40
2
0
CIRCLE
8
HOLES
10
69
20
297.78838324886476
30
0
40
2
0
CIRCLE
8
HOLES
10
75
20
297.78838324886476
30
0
40
2
0
CIRCLE
8
HOLES
10
81
20
297.78838324886476
30
0
40
2
0
CIRCLE
8
HOLES
10
87
20
297.78838324886476
30
0
40
2
0
CIRCLE
8
HOLES
10
93
20
297.78838324886476
30
0
40
2
0
CIRCLE
8
HOLES
10
99
20
297.78838324886476
30
0
40
2
0
CIRCLE
8
HOLES
10
105
20
297.78838324886476
30
0
40
2
0
CIRCLE
8
HOLES
10
111
20
297.78838324886476
30
0
40
2
0
CIRCLE
8
HOLES
10
117
20
297.78838324886476
30
0
40
2
0
CIRCLE
8
HOLES
10
123
20
297.78838324886476
30
0
40
2
0
CIRCLE
8
HOLES
10
129
20
297.78838324886476
30
0
40
2
0
CIRCLE
8
HOLES
10
135
20
297.78838324886476
30
0
40
2
0
CIRCLE
8
HOLES
10
141
20
297.78838324886476
30
0
40
2
0
CIRCLE
8
HOLES
10
147
20
297.78838324886476
30
0
40
2
0
CIRCLE
8
HOLES
10
153
20
297.78838324886476
30
0
40
2
0
CIRCLE
8
HOLES
10
159
20
297.78838324886476
30
0
40
2
0
CIRCLE
8
HOLES
10
165
20
297.78838324886476
30
0
40
2
0
CIRCLE
8
HOLES
10
171
20
297.78838324886476
30
0
40
2
0
CIRCLE
8
HOLES
10
177
20
297.78838324886476
30
0
40
2
0
CIRCLE
8
HOLES
10
183
20
297.78838324886476
30
0
40
2
0
CIRCLE
8
HOLES
10
189
20
297.78838324886476
30
0
40
2
0
CIRCLE
8
HOLES
10
195
20
297.78838324886476
30
0
40
2
0
CIRCLE
8
HOLES
10
201
20
297.78838324886476
30
0
40
2
0
CIRCLE
8
HOLES
10
207
20
297.78838324886476
30
0
40
2
0
CIRCLE
8
HOLES
10
213
20
297.78838324886476
30
0
40
2
0
CIRCLE
8
HOLES
10
219
20
297.78838324886476
30
0
40
2
0
CIRCLE
8
HOLES
10
225
20
297.78838324886476
30
0
40
2
0
CIRCLE
8
HOLES
10
231
20
297.78838324886476
30
0
40
2
0
CIRCLE
8
HOLES
10
237
20
297.78838324886476
30
0
40
2
0
CIRCLE
8
HOLES
10
243
20
297.78838324886476
30
0
40
2
0
CIRCLE
8
HOLES
10
249
20
297.78838324886476
30
0
40
2
0
CIRCLE
8
HOLES
10
255
20
297.78838324886476
30
0
40
2
0
CIRCLE
8
HOLES
10
261
20
297.78838324886476
30
0
40
2
0
CIRCLE
8
HOLES
10
267
20
297.78838324886476
30
0
40
2
0
CIRCLE
8
HOLES
10
273
20
297.78838324886476
30
0
40
2
0
CIRCLE
8
HOLES
10
279
20
297.78838324886476
30
0
40
2
0
CIRCLE
8
HOLES
10
285
20
297.78838324886476
30
0
40
2
0
CIRCLE
8
HOLES
10
291
20
297.78838324886476
30
0
40
2
0
CIRCLE
8
HOLES
10
297
20
297.78838324886476
30
0
40
2
0
CIRCLE
8
HOLES
10
303
20
297.78838324886476
30
0
40
2
0
CIRCLE
8
HOLES
10
12
20
302.9845356715714
30
0
40
2
0
CIRCLE
8
HOLES
10
18
20
302.9845356715714
30
0
40
2
0
CIRCLE
8
HOLES
10
24
20
302.9845356715714
30
0
40
2
0
CIRCLE
8
HOLES
10
30
20
302.9845356715714
30
0
40
2
0
CIRCLE
8
HOLES
10
36
20
302.9845356715714
30
0
40
2
0
CIRCLE
8
HOLES
10
42
20
302.9845356715714
30
0
40
2
0
CIRCLE
8
HOLES
10
48
20
302.9845356715714
30
0
40
2
0
CIRCLE
8
HOLES
10
54
20
302.9845356715714
30
0
40
2
0
CIRCLE
8
HOLES
10
60
20
302.9845356715714
30
0
40
2
0
CIRCLE
8
HOLES
10
66
20
302.9845356715714
30
0
40
2
0
CIRCLE
8
HOLES
10
72
20
302.9845356715714
30
0
40
2
0
CIRCLE
8
HOLES
10
78
20
302.9845356715714
30
0
40
2
0
CIRCLE
8
HOLES
10
84
20
302.9845356715714
30
0
40
2
0
CIRCLE
8
HOLES
10
90
20
302.9845356715714
30
0
40
2
0
CIRCLE
8
HOLES
10
96
20
302.9845356715714
30
0
40
2
0
CIRCLE
8
HOLES
10
102
20
302.9845356715714
30
0
40
2
0
CIRCLE
8
HOLES
10
108
20
302.9845356715714
30
0
40
2
0
CIRCLE
8
HOLES
10
114
20
302.9845356715714
30
0
40
2
0
CIRCLE
8
HOLES
10
120
20
302.9845356715714
30
0
40
2
0
CIRCLE
8
HOLES
10
126
20
302.9845356715714
30
0
40
2
0
CIRCLE
8
HOLES
10
132
20
302.9845356715714
30
0
40
2
0
CIRCLE
8
HOLES
10
138
20
302.9845356715714
30
0
40
2
0
CIRCLE
8
HOLES
10
144
20
302.9845356715714
30
0
40
2
0
CIRCLE
8
HOLES
10
150
20
302.9845356715714
30
0
40
2
0
CIRCLE
8
HOLES
10
156
20
302.9845356715714
30
0
40
2
0
CIRCLE
8
HOLES
10
162
20
302.9845356715714
30
0
40
2
0
CIRCLE
8
HOLES
10
168
20
302.9845356715714
30
0
40
2
0
CIRCLE
8
HOLES
10
174
20
302.9845356715714
30
0
40
2
0
CIRCLE
8
HOLES
10
180
20
302.9845356715714
30
0
40
2
0
CIRCLE
8
HOLES
10
186
20
302.9845356715714
30
0
40
2
0
CIRCLE
8
HOLES
10
192
20
302.9845356715714
30
0
40
2
0
CIRCLE
8
HOLES
10
198
20
302.9845356715714
30
0
40
2
0
CIRCLE
8
HOLES
10
204
20
302.9845356715714
30
0
40
2
0
CIRCLE
8
HOLES
10
210
20
302.9845356715714
30
0
40
2
0
CIRCLE
8
HOLES
10
216
20
302.9845356715714
30
0
40
2
0
CIRCLE
8
HOLES
10
222
20
302.9845356715714
30
0
40
2
0
CIRCLE
8
HOLES
10
228
20
302.9845356715714
30
0
40
2
0
CIRCLE
8
HOLES
10
234
20
302.9845356715714
30
0
40
2
0
CIRCLE
8
HOLES
10
240
20
302.9845356715714
30
0
40
2
0
CIRCLE
8
HOLES
10
246
20
302.9845356715714
30
0
40
2
0
CIRCLE
8
HOLES
10
252
20
302.9845356715714
30
0
40
2
0
CIRCLE
8
HOLES
10
258
20
302.9845356715714
30
0
40
2
0
CIRCLE
8
HOLES
10
264
20
302.9845356715714
30
0
40
2
0
CIRCLE
8
HOLES
10
270
20
302.9845356715714
30
0
40
2
0
CIRCLE
8
HOLES
10
276
20
302.9845356715714
30
0
40
2
0
CIRCLE
8
HOLES
10
282
20
302.9845356715714
30
0
40
2
0
CIRCLE
8
HOLES
10
288
20
302.9845356715714
30
0
40
2
0
CIRCLE
8
HOLES
10
294
20
302.9845356715714
30
0
40
2
0
CIRCLE
8
HOLES
10
300
20
302.9845356715714
30
0
40
2
0
CIRCLE
8
HOLES
10
306
20
302.9845356715714
30
0
40
2
0
ENDSEC
0
EOF
