0
SECTION
2
HEADER
9
$INSUNITS
70
4
0
ENDSEC
0
SECTION
2
ENTITIES
0
LINE
8
OUTLINE
10
0
20
0
30
0
11
360
21
0
31
0
0
LINE
8
OUTLINE
10
360
20
0
30
0
11
360
21
542
31
0
0
LINE
8
OUTLINE
10
360
20
542
30
0
11
0
21
542
31
0
0
LINE
8
OUTLINE
10
0
20
542
30
0
11
0
21
0
31
0
0
CIRCLE
8
DRILL
10
19
20
76
30
0
40
2.25
0
CIRCLE
8
DRILL
10
19
20
176
30
0
40
2.25
0
CIRCLE
8
DRILL
10
19
20
376
30
0
40
2.25
0
CIRCLE
8
DRILL
10
19
20
476
30
0
40
2.25
0
CIRCLE
8
DRILL
10
341
20
76
30
0
40
2.25
0
CIRCLE
8
DRILL
10
341
20
176
30
0
40
2.25
0
CIRCLE
8
DRILL
10
341
20
376
30
0
40
2.25
0
CIRCLE
8
DRILL
10
341
20
476
30
0
40
2.25
0
ENDSEC
0
EOF
