0
SECTION
2
HEADER
9
$INSUNITS
70
4
0
ENDSEC
0
SECTION
2
ENTITIES
0
LINE
8
OUTLINE
10
0
20
0
30
0
11
550
21
0
31
0
0
LINE
8
OUTLINE
10
550
20
0
30
0
11
550
21
360
31
0
0
LINE
8
OUTLINE
10
550
20
360
30
0
11
0
21
360
31
0
0
LINE
8
OUTLINE
10
0
20
360
30
0
11
0
21
0
31
0
0
CIRCLE
8
DRILL
10
200
20
105
30
0
40
67.1
0
CIRCLE
8
DRILL
10
137.5
20
42.5
30
0
40
2.25
0
CIRCLE
8
DRILL
10
137.5
20
167.5
30
0
40
2.25
0
CIRCLE
8
DRILL
10
262.5
20
42.5
30
0
40
2.25
0
CIRCLE
8
DRILL
10
262.5
20
167.5
30
0
40
2.25
0
CIRCLE
8
DRILL
10
350
20
105
30
0
40
67.1
0
CIRCLE
8
DRILL
10
287.5
20
42.5
30
0
40
2.25
0
CIRCLE
8
DRILL
10
287.5
20
167.5
30
0
40
2.25
0
CIRCLE
8
DRILL
10
412.5
20
42.5
30
0
40
2.25
0
CIRCLE
8
DRILL
10
412.5
20
167.5
30
0
40
2.25
0
CIRCLE
8
DRILL
10
200
20
255
30
0
40
67.1
0
CIRCLE
8
DRILL
10
137.5
20
192.5
30
0
40
2.25
0
CIRCLE
8
DRILL
10
137.5
20
317.5
30
0
40
2.25
0
CIRCLE
8
DRILL
10
262.5
20
192.5
30
0
40
2.25
0
CIRCLE
8
DRILL
10
262.5
20
317.5
30
0
40
2.25
0
CIRCLE
8
DRILL
10
350
20
255
30
0
40
67.1
0
CIRCLE
8
DRILL
10
287.5
20
192.5
30
0
40
2.25
0
CIRCLE
8
DRILL
10
287.5
20
317.5
30
0
40
2.25
0
CIRCLE
8
DRILL
10
412.5
20
192.5
30
0
40
2.25
0
CIRCLE
8
DRILL
10
412.5
20
317.5
30
0
40
2.25
0
CIRCLE
8
DRILL
10
105
20
60
30
0
40
2.25
0
CIRCLE
8
DRILL
10
105
20
300
30
0
40
2.25
0
CIRCLE
8
DRILL
10
445
20
60
30
0
40
2.25
0
CIRCLE
8
DRILL
10
445
20
300
30
0
40
2.25
0
CIRCLE
8
DRILL
10
19
20
19
30
0
40
2.25
0
CIRCLE
8
DRILL
10
19
20
341
30
0
40
2.25
0
CIRCLE
8
DRILL
10
531
20
19
30
0
40
2.25
0
CIRCLE
8
DRILL
10
531
20
341
30
0
40
2.25
0
ENDSEC
0
EOF
