ISO-10303-21;
HEADER;
FILE_DESCRIPTION(('FreeCAD Model'),'2;1');
FILE_NAME('Open CASCADE Shape Model','2026-10-02T21:39:10',('FreeCAD'),(
    'FreeCAD'),'Open CASCADE STEP processor 7.8','FreeCAD','Unknown');
FILE_SCHEMA(('AUTOMOTIVE_DESIGN { 1 0 10303 214 1 1 1 1 }'));
ENDSEC;
DATA;
#1 = APPLICATION_PROTOCOL_DEFINITION('international standard',
  'automotive_design',2000,#2);
#2 = APPLICATION_CONTEXT(
  'core data for automotive mechanical design processes');
#3 = SHAPE_DEFINITION_REPRESENTATION(#4,#10);
#4 = PRODUCT_DEFINITION_SHAPE('','',#5);
#5 = PRODUCT_DEFINITION('design','',#6,#9);
#6 = PRODUCT_DEFINITION_FORMATION('','',#7);
#7 = PRODUCT('Open CASCADE STEP translator 7.8 1',
  'Open CASCADE STEP translator 7.8 1','',(#8));
#8 = PRODUCT_CONTEXT('',#2,'mechanical');
#9 = PRODUCT_DEFINITION_CONTEXT('part definition',#2,'design');
#10 = SHAPE_REPRESENTATION('',(#11,#15,#511,#603),#695);
#11 = AXIS2_PLACEMENT_3D('',#12,#13,#14);
#12 = CARTESIAN_POINT('',(0.,0.,0.));
#13 = DIRECTION('',(0.,0.,1.));
#14 = DIRECTION('',(1.,0.,-0.));
#15 = MANIFOLD_SOLID_BREP('',#16);
#16 = CLOSED_SHELL('',(#17,#72,#153,#189,#271,#303,#335,#359,#395,#427,
    #455,#483));
#17 = ADVANCED_FACE('',(#18),#51,.T.);
#18 = FACE_BOUND('',#19,.T.);
#19 = EDGE_LOOP('',(#20,#30,#37,#46));
#20 = ORIENTED_EDGE('',*,*,#21,.T.);
#21 = EDGE_CURVE('',#22,#24,#26,.T.);
#22 = VERTEX_POINT('',#23);
#23 = CARTESIAN_POINT('',(-283.5,-283.5,965.));
#24 = VERTEX_POINT('',#25);
#25 = CARTESIAN_POINT('',(283.5,-283.5,965.));
#26 = LINE('',#27,#28);
#27 = CARTESIAN_POINT('',(-283.5,-283.5,965.));
#28 = VECTOR('',#29,1.);
#29 = DIRECTION('',(1.,0.,0.));
#30 = ORIENTED_EDGE('',*,*,#31,.T.);
#31 = EDGE_CURVE('',#24,#32,#34,.T.);
#32 = VERTEX_POINT('',#33);
#33 = CARTESIAN_POINT('',(112.78353159925,-112.7835315992,1.18E+03));
#34 = B_SPLINE_CURVE_WITH_KNOTS('',1,(#35,#36),.UNSPECIFIED.,.F.,.F.,(2,
    2),(0.,1.),.PIECEWISE_BEZIER_KNOTS.);
#35 = CARTESIAN_POINT('',(283.5,-283.5,965.));
#36 = CARTESIAN_POINT('',(112.78353159925,-112.7835315992,1.18E+03));
#37 = ORIENTED_EDGE('',*,*,#38,.F.);
#38 = EDGE_CURVE('',#39,#32,#41,.T.);
#39 = VERTEX_POINT('',#40);
#40 = CARTESIAN_POINT('',(-112.7835315992,-112.7835315992,1.18E+03));
#41 = CIRCLE('',#42,159.5);
#42 = AXIS2_PLACEMENT_3D('',#43,#44,#45);
#43 = CARTESIAN_POINT('',(0.,0.,1.18E+03));
#44 = DIRECTION('',(0.,0.,1.));
#45 = DIRECTION('',(1.,0.,0.));
#46 = ORIENTED_EDGE('',*,*,#47,.F.);
#47 = EDGE_CURVE('',#22,#39,#48,.T.);
#48 = B_SPLINE_CURVE_WITH_KNOTS('',1,(#49,#50),.UNSPECIFIED.,.F.,.F.,(2,
    2),(0.,1.),.PIECEWISE_BEZIER_KNOTS.);
#49 = CARTESIAN_POINT('',(-283.5,-283.5,965.));
#50 = CARTESIAN_POINT('',(-112.7835315992,-112.7835315992,1.18E+03));
#51 = B_SPLINE_SURFACE_WITH_KNOTS('',9,1,(
    (#52,#53)
    ,(#54,#55)
    ,(#56,#57)
    ,(#58,#59)
    ,(#60,#61)
    ,(#62,#63)
    ,(#64,#65)
    ,(#66,#67)
    ,(#68,#69)
    ,(#70,#71
    )),.UNSPECIFIED.,.F.,.F.,.F.,(10,10),(2,2),(0.,567.),(0.,1.),
  .PIECEWISE_BEZIER_KNOTS.);
#52 = CARTESIAN_POINT('',(-283.5,-283.5,965.));
#53 = CARTESIAN_POINT('',(-112.7835315992,-112.7835315992,1.18E+03));
#54 = CARTESIAN_POINT('',(-220.5,-283.5,965.));
#55 = CARTESIAN_POINT('',(-93.09909191491,-132.4679712835,1.18E+03));
#56 = CARTESIAN_POINT('',(-157.5,-283.5,965.));
#57 = CARTESIAN_POINT('',(-69.54962156705,-148.2873808685,1.18E+03));
#58 = CARTESIAN_POINT('',(-94.5,-283.5,965.));
#59 = CARTESIAN_POINT('',(-43.0024310978,-159.374444404,1.18E+03));
#60 = CARTESIAN_POINT('',(-31.5,-283.5,965.));
#61 = CARTESIAN_POINT('',(-14.5518945476,-165.0889339886,1.18E+03));
#62 = CARTESIAN_POINT('',(31.5,-283.5,965.));
#63 = CARTESIAN_POINT('',(14.551894547604,-165.0889339887,1.18E+03));
#64 = CARTESIAN_POINT('',(94.5,-283.5,965.));
#65 = CARTESIAN_POINT('',(43.002431097806,-159.374444404,1.18E+03));
#66 = CARTESIAN_POINT('',(157.5,-283.5,965.));
#67 = CARTESIAN_POINT('',(69.549621567054,-148.2873808685,1.18E+03));
#68 = CARTESIAN_POINT('',(220.5,-283.5,965.));
#69 = CARTESIAN_POINT('',(93.099091914914,-132.4679712835,1.18E+03));
#70 = CARTESIAN_POINT('',(283.5,-283.5,965.));
#71 = CARTESIAN_POINT('',(112.78353159925,-112.7835315992,1.18E+03));
#72 = ADVANCED_FACE('',(#73,#106),#148,.T.);
#73 = FACE_BOUND('',#74,.T.);
#74 = EDGE_LOOP('',(#75,#76,#84,#92,#100));
#75 = ORIENTED_EDGE('',*,*,#21,.F.);
#76 = ORIENTED_EDGE('',*,*,#77,.F.);
#77 = EDGE_CURVE('',#78,#22,#80,.T.);
#78 = VERTEX_POINT('',#79);
#79 = CARTESIAN_POINT('',(-283.5,283.5,965.));
#80 = LINE('',#81,#82);
#81 = CARTESIAN_POINT('',(-283.5,283.5,965.));
#82 = VECTOR('',#83,1.);
#83 = DIRECTION('',(0.,-1.,0.));
#84 = ORIENTED_EDGE('',*,*,#85,.F.);
#85 = EDGE_CURVE('',#86,#78,#88,.T.);
#86 = VERTEX_POINT('',#87);
#87 = CARTESIAN_POINT('',(283.5,283.5,965.));
#88 = LINE('',#89,#90);
#89 = CARTESIAN_POINT('',(283.5,283.5,965.));
#90 = VECTOR('',#91,1.);
#91 = DIRECTION('',(-1.,0.,0.));
#92 = ORIENTED_EDGE('',*,*,#93,.F.);
#93 = EDGE_CURVE('',#94,#86,#96,.T.);
#94 = VERTEX_POINT('',#95);
#95 = CARTESIAN_POINT('',(283.5,0.,965.));
#96 = LINE('',#97,#98);
#97 = CARTESIAN_POINT('',(283.5,-283.5,965.));
#98 = VECTOR('',#99,1.);
#99 = DIRECTION('',(0.,1.,0.));
#100 = ORIENTED_EDGE('',*,*,#101,.F.);
#101 = EDGE_CURVE('',#24,#94,#102,.T.);
#102 = LINE('',#103,#104);
#103 = CARTESIAN_POINT('',(283.5,-283.5,965.));
#104 = VECTOR('',#105,1.);
#105 = DIRECTION('',(0.,1.,0.));
#106 = FACE_BOUND('',#107,.T.);
#107 = EDGE_LOOP('',(#108,#118,#126,#134,#142));
#108 = ORIENTED_EDGE('',*,*,#109,.T.);
#109 = EDGE_CURVE('',#110,#112,#114,.T.);
#110 = VERTEX_POINT('',#111);
#111 = CARTESIAN_POINT('',(-281.5,281.5,965.));
#112 = VERTEX_POINT('',#113);
#113 = CARTESIAN_POINT('',(-281.5,-281.5,965.));
#114 = LINE('',#115,#116);
#115 = CARTESIAN_POINT('',(-281.5,281.5,965.));
#116 = VECTOR('',#117,1.);
#117 = DIRECTION('',(0.,-1.,0.));
#118 = ORIENTED_EDGE('',*,*,#119,.T.);
#119 = EDGE_CURVE('',#112,#120,#122,.T.);
#120 = VERTEX_POINT('',#121);
#121 = CARTESIAN_POINT('',(281.5,-281.5,965.));
#122 = LINE('',#123,#124);
#123 = CARTESIAN_POINT('',(-281.5,-281.5,965.));
#124 = VECTOR('',#125,1.);
#125 = DIRECTION('',(1.,0.,0.));
#126 = ORIENTED_EDGE('',*,*,#127,.T.);
#127 = EDGE_CURVE('',#120,#128,#130,.T.);
#128 = VERTEX_POINT('',#129);
#129 = CARTESIAN_POINT('',(281.5,0.,965.));
#130 = LINE('',#131,#132);
#131 = CARTESIAN_POINT('',(281.5,-281.5,965.));
#132 = VECTOR('',#133,1.);
#133 = DIRECTION('',(0.,1.,0.));
#134 = ORIENTED_EDGE('',*,*,#135,.T.);
#135 = EDGE_CURVE('',#128,#136,#138,.T.);
#136 = VERTEX_POINT('',#137);
#137 = CARTESIAN_POINT('',(281.5,281.5,965.));
#138 = LINE('',#139,#140);
#139 = CARTESIAN_POINT('',(281.5,-281.5,965.));
#140 = VECTOR('',#141,1.);
#141 = DIRECTION('',(0.,1.,0.));
#142 = ORIENTED_EDGE('',*,*,#143,.T.);
#143 = EDGE_CURVE('',#136,#110,#144,.T.);
#144 = LINE('',#145,#146);
#145 = CARTESIAN_POINT('',(281.5,281.5,965.));
#146 = VECTOR('',#147,1.);
#147 = DIRECTION('',(-1.,0.,0.));
#148 = PLANE('',#149);
#149 = AXIS2_PLACEMENT_3D('',#150,#151,#152);
#150 = CARTESIAN_POINT('',(-283.5,-283.5,965.));
#151 = DIRECTION('',(0.,0.,-1.));
#152 = DIRECTION('',(0.707106781187,0.707106781187,0.));
#153 = ADVANCED_FACE('',(#154),#172,.T.);
#154 = FACE_BOUND('',#155,.T.);
#155 = EDGE_LOOP('',(#156,#157,#164,#171));
#156 = ORIENTED_EDGE('',*,*,#101,.T.);
#157 = ORIENTED_EDGE('',*,*,#158,.T.);
#158 = EDGE_CURVE('',#94,#159,#161,.T.);
#159 = VERTEX_POINT('',#160);
#160 = CARTESIAN_POINT('',(159.5,0.,1.18E+03));
#161 = B_SPLINE_CURVE_WITH_KNOTS('',1,(#162,#163),.UNSPECIFIED.,.F.,.F.,
  (2,2),(0.,1.),.PIECEWISE_BEZIER_KNOTS.);
#162 = CARTESIAN_POINT('',(283.5,0.,965.));
#163 = CARTESIAN_POINT('',(159.5,-3.552713678801E-14,1.18E+03));
#164 = ORIENTED_EDGE('',*,*,#165,.F.);
#165 = EDGE_CURVE('',#32,#159,#166,.T.);
#166 = CIRCLE('',#167,159.5);
#167 = AXIS2_PLACEMENT_3D('',#168,#169,#170);
#168 = CARTESIAN_POINT('',(0.,0.,1.18E+03));
#169 = DIRECTION('',(0.,0.,1.));
#170 = DIRECTION('',(1.,0.,0.));
#171 = ORIENTED_EDGE('',*,*,#31,.F.);
#172 = B_SPLINE_SURFACE_WITH_KNOTS('',7,1,(
    (#173,#174)
    ,(#175,#176)
    ,(#177,#178)
    ,(#179,#180)
    ,(#181,#182)
    ,(#183,#184)
    ,(#185,#186)
    ,(#187,#188
    )),.UNSPECIFIED.,.F.,.F.,.F.,(8,8),(2,2),(0.,283.5),(0.,1.),
  .PIECEWISE_BEZIER_KNOTS.);
#173 = CARTESIAN_POINT('',(283.5,-283.5,965.));
#174 = CARTESIAN_POINT('',(112.78353159925,-112.7835315992,1.18E+03));
#175 = CARTESIAN_POINT('',(283.5,-243.,965.));
#176 = CARTESIAN_POINT('',(125.43781425347,-100.129248945,1.18E+03));
#177 = CARTESIAN_POINT('',(283.5,-202.5,965.));
#178 = CARTESIAN_POINT('',(136.43565423148,-85.81852413355,1.18E+03));
#179 = CARTESIAN_POINT('',(283.5,-162.,965.));
#180 = CARTESIAN_POINT('',(145.51686531228,-70.1115536992,1.18E+03));
#181 = CARTESIAN_POINT('',(283.5,-121.5,965.));
#182 = CARTESIAN_POINT('',(152.47231729956,-53.31960717909,1.18E+03));
#183 = CARTESIAN_POINT('',(283.5,-81.,965.));
#184 = CARTESIAN_POINT('',(157.15743666896,-35.79171593644,1.18E+03));
#185 = CARTESIAN_POINT('',(283.5,-40.5,965.));
#186 = CARTESIAN_POINT('',(159.5,-17.89585815169,1.18E+03));
#187 = CARTESIAN_POINT('',(283.5,0.,965.));
#188 = CARTESIAN_POINT('',(159.5,-3.552713678801E-14,1.18E+03));
#189 = ADVANCED_FACE('',(#190,#219),#266,.T.);
#190 = FACE_BOUND('',#191,.T.);
#191 = EDGE_LOOP('',(#192,#193,#194,#203,#212));
#192 = ORIENTED_EDGE('',*,*,#38,.T.);
#193 = ORIENTED_EDGE('',*,*,#165,.T.);
#194 = ORIENTED_EDGE('',*,*,#195,.T.);
#195 = EDGE_CURVE('',#159,#196,#198,.T.);
#196 = VERTEX_POINT('',#197);
#197 = CARTESIAN_POINT('',(112.78353159925,112.78353159925,1.18E+03));
#198 = CIRCLE('',#199,159.5);
#199 = AXIS2_PLACEMENT_3D('',#200,#201,#202);
#200 = CARTESIAN_POINT('',(0.,0.,1.18E+03));
#201 = DIRECTION('',(0.,0.,1.));
#202 = DIRECTION('',(1.,0.,0.));
#203 = ORIENTED_EDGE('',*,*,#204,.T.);
#204 = EDGE_CURVE('',#196,#205,#207,.T.);
#205 = VERTEX_POINT('',#206);
#206 = CARTESIAN_POINT('',(-112.7835315992,112.78353159925,1.18E+03));
#207 = CIRCLE('',#208,159.5);
#208 = AXIS2_PLACEMENT_3D('',#209,#210,#211);
#209 = CARTESIAN_POINT('',(0.,0.,1.18E+03));
#210 = DIRECTION('',(0.,0.,1.));
#211 = DIRECTION('',(1.,0.,0.));
#212 = ORIENTED_EDGE('',*,*,#213,.T.);
#213 = EDGE_CURVE('',#205,#39,#214,.T.);
#214 = CIRCLE('',#215,159.5);
#215 = AXIS2_PLACEMENT_3D('',#216,#217,#218);
#216 = CARTESIAN_POINT('',(0.,0.,1.18E+03));
#217 = DIRECTION('',(0.,0.,1.));
#218 = DIRECTION('',(1.,0.,0.));
#219 = FACE_BOUND('',#220,.T.);
#220 = EDGE_LOOP('',(#221,#232,#241,#250,#259));
#221 = ORIENTED_EDGE('',*,*,#222,.F.);
#222 = EDGE_CURVE('',#223,#225,#227,.T.);
#223 = VERTEX_POINT('',#224);
#224 = CARTESIAN_POINT('',(-111.3693180368,-111.3693180368,1.18E+03));
#225 = VERTEX_POINT('',#226);
#226 = CARTESIAN_POINT('',(111.36931803688,-111.3693180368,1.18E+03));
#227 = CIRCLE('',#228,157.5);
#228 = AXIS2_PLACEMENT_3D('',#229,#230,#231);
#229 = CARTESIAN_POINT('',(0.,0.,1.18E+03));
#230 = DIRECTION('',(0.,0.,1.));
#231 = DIRECTION('',(1.,0.,0.));
#232 = ORIENTED_EDGE('',*,*,#233,.F.);
#233 = EDGE_CURVE('',#234,#223,#236,.T.);
#234 = VERTEX_POINT('',#235);
#235 = CARTESIAN_POINT('',(-111.3693180368,111.36931803688,1.18E+03));
#236 = CIRCLE('',#237,157.5);
#237 = AXIS2_PLACEMENT_3D('',#238,#239,#240);
#238 = CARTESIAN_POINT('',(0.,0.,1.18E+03));
#239 = DIRECTION('',(0.,0.,1.));
#240 = DIRECTION('',(1.,0.,0.));
#241 = ORIENTED_EDGE('',*,*,#242,.F.);
#242 = EDGE_CURVE('',#243,#234,#245,.T.);
#243 = VERTEX_POINT('',#244);
#244 = CARTESIAN_POINT('',(111.36931803688,111.36931803688,1.18E+03));
#245 = CIRCLE('',#246,157.5);
#246 = AXIS2_PLACEMENT_3D('',#247,#248,#249);
#247 = CARTESIAN_POINT('',(0.,0.,1.18E+03));
#248 = DIRECTION('',(0.,0.,1.));
#249 = DIRECTION('',(1.,0.,0.));
#250 = ORIENTED_EDGE('',*,*,#251,.F.);
#251 = EDGE_CURVE('',#252,#243,#254,.T.);
#252 = VERTEX_POINT('',#253);
#253 = CARTESIAN_POINT('',(157.5,0.,1.18E+03));
#254 = CIRCLE('',#255,157.5);
#255 = AXIS2_PLACEMENT_3D('',#256,#257,#258);
#256 = CARTESIAN_POINT('',(0.,0.,1.18E+03));
#257 = DIRECTION('',(0.,0.,1.));
#258 = DIRECTION('',(1.,0.,0.));
#259 = ORIENTED_EDGE('',*,*,#260,.F.);
#260 = EDGE_CURVE('',#225,#252,#261,.T.);
#261 = CIRCLE('',#262,157.5);
#262 = AXIS2_PLACEMENT_3D('',#263,#264,#265);
#263 = CARTESIAN_POINT('',(0.,0.,1.18E+03));
#264 = DIRECTION('',(0.,0.,1.));
#265 = DIRECTION('',(1.,0.,0.));
#266 = PLANE('',#267);
#267 = AXIS2_PLACEMENT_3D('',#268,#269,#270);
#268 = CARTESIAN_POINT('',(0.,0.,1.18E+03));
#269 = DIRECTION('',(0.,0.,1.));
#270 = DIRECTION('',(1.,0.,0.));
#271 = ADVANCED_FACE('',(#272),#282,.T.);
#272 = FACE_BOUND('',#273,.T.);
#273 = EDGE_LOOP('',(#274,#275,#276,#277));
#274 = ORIENTED_EDGE('',*,*,#77,.T.);
#275 = ORIENTED_EDGE('',*,*,#47,.T.);
#276 = ORIENTED_EDGE('',*,*,#213,.F.);
#277 = ORIENTED_EDGE('',*,*,#278,.F.);
#278 = EDGE_CURVE('',#78,#205,#279,.T.);
#279 = B_SPLINE_CURVE_WITH_KNOTS('',1,(#280,#281),.UNSPECIFIED.,.F.,.F.,
  (2,2),(0.,1.),.PIECEWISE_BEZIER_KNOTS.);
#280 = CARTESIAN_POINT('',(-283.5,283.5,965.));
#281 = CARTESIAN_POINT('',(-112.7835315992,112.78353159925,1.18E+03));
#282 = B_SPLINE_SURFACE_WITH_KNOTS('',9,1,(
    (#283,#284)
    ,(#285,#286)
    ,(#287,#288)
    ,(#289,#290)
    ,(#291,#292)
    ,(#293,#294)
    ,(#295,#296)
    ,(#297,#298)
    ,(#299,#300)
    ,(#301,#302
    )),.UNSPECIFIED.,.F.,.F.,.F.,(10,10),(2,2),(0.,567.),(0.,1.),
  .PIECEWISE_BEZIER_KNOTS.);
#283 = CARTESIAN_POINT('',(-283.5,283.5,965.));
#284 = CARTESIAN_POINT('',(-112.7835315992,112.78353159925,1.18E+03));
#285 = CARTESIAN_POINT('',(-283.5,220.5,965.));
#286 = CARTESIAN_POINT('',(-132.4679712835,93.099091914912,1.18E+03));
#287 = CARTESIAN_POINT('',(-283.5,157.5,965.));
#288 = CARTESIAN_POINT('',(-148.2873808686,69.549621567059,1.18E+03));
#289 = CARTESIAN_POINT('',(-283.5,94.5,965.));
#290 = CARTESIAN_POINT('',(-159.3744444039,43.002431097797,1.18E+03));
#291 = CARTESIAN_POINT('',(-283.5,31.5,965.));
#292 = CARTESIAN_POINT('',(-165.0889339887,14.551894547615,1.18E+03));
#293 = CARTESIAN_POINT('',(-283.5,-31.5,965.));
#294 = CARTESIAN_POINT('',(-165.0889339886,-14.55189454761,1.18E+03));
#295 = CARTESIAN_POINT('',(-283.5,-94.5,965.));
#296 = CARTESIAN_POINT('',(-159.374444404,-43.00243109779,1.18E+03));
#297 = CARTESIAN_POINT('',(-283.5,-157.5,965.));
#298 = CARTESIAN_POINT('',(-148.2873808685,-69.54962156705,1.18E+03));
#299 = CARTESIAN_POINT('',(-283.5,-220.5,965.));
#300 = CARTESIAN_POINT('',(-132.4679712835,-93.09909191491,1.18E+03));
#301 = CARTESIAN_POINT('',(-283.5,-283.5,965.));
#302 = CARTESIAN_POINT('',(-112.7835315992,-112.7835315992,1.18E+03));
#303 = ADVANCED_FACE('',(#304),#314,.T.);
#304 = FACE_BOUND('',#305,.T.);
#305 = EDGE_LOOP('',(#306,#307,#308,#309));
#306 = ORIENTED_EDGE('',*,*,#85,.T.);
#307 = ORIENTED_EDGE('',*,*,#278,.T.);
#308 = ORIENTED_EDGE('',*,*,#204,.F.);
#309 = ORIENTED_EDGE('',*,*,#310,.F.);
#310 = EDGE_CURVE('',#86,#196,#311,.T.);
#311 = B_SPLINE_CURVE_WITH_KNOTS('',1,(#312,#313),.UNSPECIFIED.,.F.,.F.,
  (2,2),(0.,1.),.PIECEWISE_BEZIER_KNOTS.);
#312 = CARTESIAN_POINT('',(283.5,283.5,965.));
#313 = CARTESIAN_POINT('',(112.78353159925,112.78353159925,1.18E+03));
#314 = B_SPLINE_SURFACE_WITH_KNOTS('',9,1,(
    (#315,#316)
    ,(#317,#318)
    ,(#319,#320)
    ,(#321,#322)
    ,(#323,#324)
    ,(#325,#326)
    ,(#327,#328)
    ,(#329,#330)
    ,(#331,#332)
    ,(#333,#334
    )),.UNSPECIFIED.,.F.,.F.,.F.,(10,10),(2,2),(0.,567.),(0.,1.),
  .PIECEWISE_BEZIER_KNOTS.);
#315 = CARTESIAN_POINT('',(283.5,283.5,965.));
#316 = CARTESIAN_POINT('',(112.78353159925,112.78353159925,1.18E+03));
#317 = CARTESIAN_POINT('',(220.5,283.5,965.));
#318 = CARTESIAN_POINT('',(93.099091914913,132.46797128359,1.18E+03));
#319 = CARTESIAN_POINT('',(157.5,283.5,965.));
#320 = CARTESIAN_POINT('',(69.549621567058,148.28738086858,1.18E+03));
#321 = CARTESIAN_POINT('',(94.5,283.5,965.));
#322 = CARTESIAN_POINT('',(43.002431097801,159.37444440401,1.18E+03));
#323 = CARTESIAN_POINT('',(31.5,283.5,965.));
#324 = CARTESIAN_POINT('',(14.551894547608,165.08893398867,1.18E+03));
#325 = CARTESIAN_POINT('',(-31.5,283.5,965.));
#326 = CARTESIAN_POINT('',(-14.5518945476,165.0889339887,1.18E+03));
#327 = CARTESIAN_POINT('',(-94.5,283.5,965.));
#328 = CARTESIAN_POINT('',(-43.0024310978,159.37444440399,1.18E+03));
#329 = CARTESIAN_POINT('',(-157.5,283.5,965.));
#330 = CARTESIAN_POINT('',(-69.54962156705,148.28738086859,1.18E+03));
#331 = CARTESIAN_POINT('',(-220.5,283.5,965.));
#332 = CARTESIAN_POINT('',(-93.09909191491,132.46797128359,1.18E+03));
#333 = CARTESIAN_POINT('',(-283.5,283.5,965.));
#334 = CARTESIAN_POINT('',(-112.7835315992,112.78353159925,1.18E+03));
#335 = ADVANCED_FACE('',(#336),#342,.T.);
#336 = FACE_BOUND('',#337,.T.);
#337 = EDGE_LOOP('',(#338,#339,#340,#341));
#338 = ORIENTED_EDGE('',*,*,#93,.T.);
#339 = ORIENTED_EDGE('',*,*,#310,.T.);
#340 = ORIENTED_EDGE('',*,*,#195,.F.);
#341 = ORIENTED_EDGE('',*,*,#158,.F.);
#342 = B_SPLINE_SURFACE_WITH_KNOTS('',7,1,(
    (#343,#344)
    ,(#345,#346)
    ,(#347,#348)
    ,(#349,#350)
    ,(#351,#352)
    ,(#353,#354)
    ,(#355,#356)
    ,(#357,#358
    )),.UNSPECIFIED.,.F.,.F.,.F.,(8,8),(2,2),(283.5,567.),(0.,1.),
  .PIECEWISE_BEZIER_KNOTS.);
#343 = CARTESIAN_POINT('',(283.5,0.,965.));
#344 = CARTESIAN_POINT('',(159.5,7.105427357601E-15,1.18E+03));
#345 = CARTESIAN_POINT('',(283.5,40.5,965.));
#346 = CARTESIAN_POINT('',(159.5,17.895858151699,1.18E+03));
#347 = CARTESIAN_POINT('',(283.5,81.,965.));
#348 = CARTESIAN_POINT('',(157.15743666896,35.791715936448,1.18E+03));
#349 = CARTESIAN_POINT('',(283.5,121.5,965.));
#350 = CARTESIAN_POINT('',(152.47231729957,53.319607179097,1.18E+03));
#351 = CARTESIAN_POINT('',(283.5,162.,965.));
#352 = CARTESIAN_POINT('',(145.51686531228,70.111553699207,1.18E+03));
#353 = CARTESIAN_POINT('',(283.5,202.5,965.));
#354 = CARTESIAN_POINT('',(136.43565423149,85.818524133558,1.18E+03));
#355 = CARTESIAN_POINT('',(283.5,243.,965.));
#356 = CARTESIAN_POINT('',(125.43781425347,100.12924894503,1.18E+03));
#357 = CARTESIAN_POINT('',(283.5,283.5,965.));
#358 = CARTESIAN_POINT('',(112.78353159925,112.78353159925,1.18E+03));
#359 = ADVANCED_FACE('',(#360),#374,.F.);
#360 = FACE_BOUND('',#361,.F.);
#361 = EDGE_LOOP('',(#362,#363,#368,#369));
#362 = ORIENTED_EDGE('',*,*,#109,.T.);
#363 = ORIENTED_EDGE('',*,*,#364,.T.);
#364 = EDGE_CURVE('',#112,#223,#365,.T.);
#365 = B_SPLINE_CURVE_WITH_KNOTS('',1,(#366,#367),.UNSPECIFIED.,.F.,.F.,
  (2,2),(0.,1.),.PIECEWISE_BEZIER_KNOTS.);
#366 = CARTESIAN_POINT('',(-281.5,-281.5,965.));
#367 = CARTESIAN_POINT('',(-111.3693180368,-111.3693180368,1.18E+03));
#368 = ORIENTED_EDGE('',*,*,#233,.F.);
#369 = ORIENTED_EDGE('',*,*,#370,.F.);
#370 = EDGE_CURVE('',#110,#234,#371,.T.);
#371 = B_SPLINE_CURVE_WITH_KNOTS('',1,(#372,#373),.UNSPECIFIED.,.F.,.F.,
  (2,2),(0.,1.),.PIECEWISE_BEZIER_KNOTS.);
#372 = CARTESIAN_POINT('',(-281.5,281.5,965.));
#373 = CARTESIAN_POINT('',(-111.3693180368,111.36931803688,1.18E+03));
#374 = B_SPLINE_SURFACE_WITH_KNOTS('',9,1,(
    (#375,#376)
    ,(#377,#378)
    ,(#379,#380)
    ,(#381,#382)
    ,(#383,#384)
    ,(#385,#386)
    ,(#387,#388)
    ,(#389,#390)
    ,(#391,#392)
    ,(#393,#394
    )),.UNSPECIFIED.,.F.,.F.,.F.,(10,10),(2,2),(0.,563.),(0.,1.),
  .PIECEWISE_BEZIER_KNOTS.);
#375 = CARTESIAN_POINT('',(-281.5,281.5,965.));
#376 = CARTESIAN_POINT('',(-111.3693180368,111.36931803688,1.18E+03));
#377 = CARTESIAN_POINT('',(-281.5,218.94444444444,965.));
#378 = CARTESIAN_POINT('',(-130.8069308913,91.931705182437,1.18E+03));
#379 = CARTESIAN_POINT('',(-281.5,156.38888888888,965.));
#380 = CARTESIAN_POINT('',(-146.4279779736,68.677525998821,1.18E+03));
#381 = CARTESIAN_POINT('',(-281.5,93.833333333333,965.));
#382 = CARTESIAN_POINT('',(-157.3760187688,42.463215660833,1.18E+03));
#383 = CARTESIAN_POINT('',(-281.5,31.277777777778,965.));
#384 = CARTESIAN_POINT('',(-163.0188533117,14.369425650466,1.18E+03));
#385 = CARTESIAN_POINT('',(-281.5,-31.27777777777,965.));
#386 = CARTESIAN_POINT('',(-163.0188533116,-14.36942565046,1.18E+03));
#387 = CARTESIAN_POINT('',(-281.5,-93.83333333333,965.));
#388 = CARTESIAN_POINT('',(-157.3760187688,-42.46321566083,1.18E+03));
#389 = CARTESIAN_POINT('',(-281.5,-156.3888888888,965.));
#390 = CARTESIAN_POINT('',(-146.4279779736,-68.67752599881,1.18E+03));
#391 = CARTESIAN_POINT('',(-281.5,-218.9444444444,965.));
#392 = CARTESIAN_POINT('',(-130.8069308913,-91.93170518243,1.18E+03));
#393 = CARTESIAN_POINT('',(-281.5,-281.5,965.));
#394 = CARTESIAN_POINT('',(-111.3693180368,-111.3693180368,1.18E+03));
#395 = ADVANCED_FACE('',(#396),#406,.F.);
#396 = FACE_BOUND('',#397,.F.);
#397 = EDGE_LOOP('',(#398,#399,#400,#401));
#398 = ORIENTED_EDGE('',*,*,#143,.T.);
#399 = ORIENTED_EDGE('',*,*,#370,.T.);
#400 = ORIENTED_EDGE('',*,*,#242,.F.);
#401 = ORIENTED_EDGE('',*,*,#402,.F.);
#402 = EDGE_CURVE('',#136,#243,#403,.T.);
#403 = B_SPLINE_CURVE_WITH_KNOTS('',1,(#404,#405),.UNSPECIFIED.,.F.,.F.,
  (2,2),(0.,1.),.PIECEWISE_BEZIER_KNOTS.);
#404 = CARTESIAN_POINT('',(281.5,281.5,965.));
#405 = CARTESIAN_POINT('',(111.36931803688,111.36931803688,1.18E+03));
#406 = B_SPLINE_SURFACE_WITH_KNOTS('',9,1,(
    (#407,#408)
    ,(#409,#410)
    ,(#411,#412)
    ,(#413,#414)
    ,(#415,#416)
    ,(#417,#418)
    ,(#419,#420)
    ,(#421,#422)
    ,(#423,#424)
    ,(#425,#426
    )),.UNSPECIFIED.,.F.,.F.,.F.,(10,10),(2,2),(0.,563.),(0.,1.),
  .PIECEWISE_BEZIER_KNOTS.);
#407 = CARTESIAN_POINT('',(281.5,281.5,965.));
#408 = CARTESIAN_POINT('',(111.36931803688,111.36931803688,1.18E+03));
#409 = CARTESIAN_POINT('',(218.94444444444,281.5,965.));
#410 = CARTESIAN_POINT('',(91.931705182437,130.80693089132,1.18E+03));
#411 = CARTESIAN_POINT('',(156.38888888888,281.5,965.));
#412 = CARTESIAN_POINT('',(68.677525998819,146.42797797368,1.18E+03));
#413 = CARTESIAN_POINT('',(93.833333333333,281.5,965.));
#414 = CARTESIAN_POINT('',(42.463215660837,157.37601876883,1.18E+03));
#415 = CARTESIAN_POINT('',(31.277777777778,281.5,965.));
#416 = CARTESIAN_POINT('',(14.36942565046,163.01885331172,1.18E+03));
#417 = CARTESIAN_POINT('',(-31.27777777777,281.5,965.));
#418 = CARTESIAN_POINT('',(-14.36942565045,163.0188533117,1.18E+03));
#419 = CARTESIAN_POINT('',(-93.83333333333,281.5,965.));
#420 = CARTESIAN_POINT('',(-42.46321566084,157.37601876885,1.18E+03));
#421 = CARTESIAN_POINT('',(-156.3888888888,281.5,965.));
#422 = CARTESIAN_POINT('',(-68.67752599881,146.42797797367,1.18E+03));
#423 = CARTESIAN_POINT('',(-218.9444444444,281.5,965.));
#424 = CARTESIAN_POINT('',(-91.93170518243,130.80693089132,1.18E+03));
#425 = CARTESIAN_POINT('',(-281.5,281.5,965.));
#426 = CARTESIAN_POINT('',(-111.3693180368,111.36931803688,1.18E+03));
#427 = ADVANCED_FACE('',(#428),#438,.F.);
#428 = FACE_BOUND('',#429,.F.);
#429 = EDGE_LOOP('',(#430,#431,#432,#433));
#430 = ORIENTED_EDGE('',*,*,#135,.T.);
#431 = ORIENTED_EDGE('',*,*,#402,.T.);
#432 = ORIENTED_EDGE('',*,*,#251,.F.);
#433 = ORIENTED_EDGE('',*,*,#434,.F.);
#434 = EDGE_CURVE('',#128,#252,#435,.T.);
#435 = B_SPLINE_CURVE_WITH_KNOTS('',1,(#436,#437),.UNSPECIFIED.,.F.,.F.,
  (2,2),(0.,1.),.PIECEWISE_BEZIER_KNOTS.);
#436 = CARTESIAN_POINT('',(281.5,0.,965.));
#437 = CARTESIAN_POINT('',(157.5,-3.552713678801E-14,1.18E+03));
#438 = B_SPLINE_SURFACE_WITH_KNOTS('',7,1,(
    (#439,#440)
    ,(#441,#442)
    ,(#443,#444)
    ,(#445,#446)
    ,(#447,#448)
    ,(#449,#450)
    ,(#451,#452)
    ,(#453,#454
    )),.UNSPECIFIED.,.F.,.F.,.F.,(8,8),(2,2),(281.5,563.),(0.,1.),
  .PIECEWISE_BEZIER_KNOTS.);
#439 = CARTESIAN_POINT('',(281.5,0.,965.));
#440 = CARTESIAN_POINT('',(157.5,1.42108547152E-14,1.18E+03));
#441 = CARTESIAN_POINT('',(281.5,40.214285714286,965.));
#442 = CARTESIAN_POINT('',(157.5,17.671458676443,1.18E+03));
#443 = CARTESIAN_POINT('',(281.5,80.428571428571,965.));
#444 = CARTESIAN_POINT('',(155.18681050383,35.342916990536,1.18E+03));
#445 = CARTESIAN_POINT('',(281.5,120.64285714285,965.));
#446 = CARTESIAN_POINT('',(150.56043871274,52.651022763058,1.18E+03));
#447 = CARTESIAN_POINT('',(281.5,160.85714285714,965.));
#448 = CARTESIAN_POINT('',(143.69220242435,69.232411960031,1.18E+03));
#449 = CARTESIAN_POINT('',(281.5,201.07142857142,965.));
#450 = CARTESIAN_POINT('',(134.7248623289,84.742429787056,1.18E+03));
#451 = CARTESIAN_POINT('',(281.5,241.28571428571,965.));
#452 = CARTESIAN_POINT('',(123.86492630045,98.87370977331,1.18E+03));
#453 = CARTESIAN_POINT('',(281.5,281.5,965.));
#454 = CARTESIAN_POINT('',(111.36931803688,111.36931803688,1.18E+03));
#455 = ADVANCED_FACE('',(#456),#466,.F.);
#456 = FACE_BOUND('',#457,.F.);
#457 = EDGE_LOOP('',(#458,#459,#460,#461));
#458 = ORIENTED_EDGE('',*,*,#127,.T.);
#459 = ORIENTED_EDGE('',*,*,#434,.T.);
#460 = ORIENTED_EDGE('',*,*,#260,.F.);
#461 = ORIENTED_EDGE('',*,*,#462,.F.);
#462 = EDGE_CURVE('',#120,#225,#463,.T.);
#463 = B_SPLINE_CURVE_WITH_KNOTS('',1,(#464,#465),.UNSPECIFIED.,.F.,.F.,
  (2,2),(0.,1.),.PIECEWISE_BEZIER_KNOTS.);
#464 = CARTESIAN_POINT('',(281.5,-281.5,965.));
#465 = CARTESIAN_POINT('',(111.36931803688,-111.3693180368,1.18E+03));
#466 = B_SPLINE_SURFACE_WITH_KNOTS('',7,1,(
    (#467,#468)
    ,(#469,#470)
    ,(#471,#472)
    ,(#473,#474)
    ,(#475,#476)
    ,(#477,#478)
    ,(#479,#480)
    ,(#481,#482
    )),.UNSPECIFIED.,.F.,.F.,.F.,(8,8),(2,2),(0.,281.5),(0.,1.),
  .PIECEWISE_BEZIER_KNOTS.);
#467 = CARTESIAN_POINT('',(281.5,-281.5,965.));
#468 = CARTESIAN_POINT('',(111.36931803688,-111.3693180368,1.18E+03));
#469 = CARTESIAN_POINT('',(281.5,-241.2857142857,965.));
#470 = CARTESIAN_POINT('',(123.86492630045,-98.87370977331,1.18E+03));
#471 = CARTESIAN_POINT('',(281.5,-201.0714285714,965.));
#472 = CARTESIAN_POINT('',(134.7248623289,-84.74242978705,1.18E+03));
#473 = CARTESIAN_POINT('',(281.5,-160.8571428571,965.));
#474 = CARTESIAN_POINT('',(143.69220242436,-69.23241196003,1.18E+03));
#475 = CARTESIAN_POINT('',(281.5,-120.6428571428,965.));
#476 = CARTESIAN_POINT('',(150.56043871273,-52.65102276305,1.18E+03));
#477 = CARTESIAN_POINT('',(281.5,-80.42857142857,965.));
#478 = CARTESIAN_POINT('',(155.18681050383,-35.34291699053,1.18E+03));
#479 = CARTESIAN_POINT('',(281.5,-40.21428571428,965.));
#480 = CARTESIAN_POINT('',(157.5,-17.67145867644,1.18E+03));
#481 = CARTESIAN_POINT('',(281.5,0.,965.));
#482 = CARTESIAN_POINT('',(157.5,-3.552713678801E-14,1.18E+03));
#483 = ADVANCED_FACE('',(#484),#490,.F.);
#484 = FACE_BOUND('',#485,.F.);
#485 = EDGE_LOOP('',(#486,#487,#488,#489));
#486 = ORIENTED_EDGE('',*,*,#119,.T.);
#487 = ORIENTED_EDGE('',*,*,#462,.T.);
#488 = ORIENTED_EDGE('',*,*,#222,.F.);
#489 = ORIENTED_EDGE('',*,*,#364,.F.);
#490 = B_SPLINE_SURFACE_WITH_KNOTS('',9,1,(
    (#491,#492)
    ,(#493,#494)
    ,(#495,#496)
    ,(#497,#498)
    ,(#499,#500)
    ,(#501,#502)
    ,(#503,#504)
    ,(#505,#506)
    ,(#507,#508)
    ,(#509,#510
    )),.UNSPECIFIED.,.F.,.F.,.F.,(10,10),(2,2),(0.,563.),(0.,1.),
  .PIECEWISE_BEZIER_KNOTS.);
#491 = CARTESIAN_POINT('',(-281.5,-281.5,965.));
#492 = CARTESIAN_POINT('',(-111.3693180368,-111.3693180368,1.18E+03));
#493 = CARTESIAN_POINT('',(-218.9444444444,-281.5,965.));
#494 = CARTESIAN_POINT('',(-91.93170518243,-130.8069308913,1.18E+03));
#495 = CARTESIAN_POINT('',(-156.3888888888,-281.5,965.));
#496 = CARTESIAN_POINT('',(-68.67752599881,-146.4279779736,1.18E+03));
#497 = CARTESIAN_POINT('',(-93.83333333333,-281.5,965.));
#498 = CARTESIAN_POINT('',(-42.46321566084,-157.3760187688,1.18E+03));
#499 = CARTESIAN_POINT('',(-31.27777777777,-281.5,965.));
#500 = CARTESIAN_POINT('',(-14.36942565045,-163.0188533117,1.18E+03));
#501 = CARTESIAN_POINT('',(31.277777777778,-281.5,965.));
#502 = CARTESIAN_POINT('',(14.369425650454,-163.0188533117,1.18E+03));
#503 = CARTESIAN_POINT('',(93.833333333333,-281.5,965.));
#504 = CARTESIAN_POINT('',(42.463215660844,-157.3760187688,1.18E+03));
#505 = CARTESIAN_POINT('',(156.38888888888,-281.5,965.));
#506 = CARTESIAN_POINT('',(68.677525998815,-146.4279779736,1.18E+03));
#507 = CARTESIAN_POINT('',(218.94444444444,-281.5,965.));
#508 = CARTESIAN_POINT('',(91.931705182439,-130.8069308913,1.18E+03));
#509 = CARTESIAN_POINT('',(281.5,-281.5,965.));
#510 = CARTESIAN_POINT('',(111.36931803688,-111.3693180368,1.18E+03));
#511 = MANIFOLD_SOLID_BREP('',#512);
#512 = CLOSED_SHELL('',(#513,#546,#566,#586));
#513 = ADVANCED_FACE('',(#514),#541,.T.);
#514 = FACE_BOUND('',#515,.T.);
#515 = EDGE_LOOP('',(#516,#525,#533,#540));
#516 = ORIENTED_EDGE('',*,*,#517,.F.);
#517 = EDGE_CURVE('',#518,#518,#520,.T.);
#518 = VERTEX_POINT('',#519);
#519 = CARTESIAN_POINT('',(159.5,-3.90662328928E-14,1.19E+03));
#520 = CIRCLE('',#521,159.5);
#521 = AXIS2_PLACEMENT_3D('',#522,#523,#524);
#522 = CARTESIAN_POINT('',(0.,0.,1.19E+03));
#523 = DIRECTION('',(0.,0.,1.));
#524 = DIRECTION('',(1.,0.,0.));
#525 = ORIENTED_EDGE('',*,*,#526,.F.);
#526 = EDGE_CURVE('',#527,#518,#529,.T.);
#527 = VERTEX_POINT('',#528);
#528 = CARTESIAN_POINT('',(159.5,-3.90662328928E-14,1.18E+03));
#529 = LINE('',#530,#531);
#530 = CARTESIAN_POINT('',(159.5,-3.90662328928E-14,1.18E+03));
#531 = VECTOR('',#532,1.);
#532 = DIRECTION('',(0.,0.,1.));
#533 = ORIENTED_EDGE('',*,*,#534,.T.);
#534 = EDGE_CURVE('',#527,#527,#535,.T.);
#535 = CIRCLE('',#536,159.5);
#536 = AXIS2_PLACEMENT_3D('',#537,#538,#539);
#537 = CARTESIAN_POINT('',(0.,0.,1.18E+03));
#538 = DIRECTION('',(0.,0.,1.));
#539 = DIRECTION('',(1.,0.,0.));
#540 = ORIENTED_EDGE('',*,*,#526,.T.);
#541 = CYLINDRICAL_SURFACE('',#542,159.5);
#542 = AXIS2_PLACEMENT_3D('',#543,#544,#545);
#543 = CARTESIAN_POINT('',(0.,0.,1.18E+03));
#544 = DIRECTION('',(0.,0.,1.));
#545 = DIRECTION('',(1.,0.,0.));
#546 = ADVANCED_FACE('',(#547,#550),#561,.T.);
#547 = FACE_BOUND('',#548,.T.);
#548 = EDGE_LOOP('',(#549));
#549 = ORIENTED_EDGE('',*,*,#517,.T.);
#550 = FACE_BOUND('',#551,.T.);
#551 = EDGE_LOOP('',(#552));
#552 = ORIENTED_EDGE('',*,*,#553,.F.);
#553 = EDGE_CURVE('',#554,#554,#556,.T.);
#554 = VERTEX_POINT('',#555);
#555 = CARTESIAN_POINT('',(157.5,-3.857637417314E-14,1.19E+03));
#556 = CIRCLE('',#557,157.5);
#557 = AXIS2_PLACEMENT_3D('',#558,#559,#560);
#558 = CARTESIAN_POINT('',(0.,0.,1.19E+03));
#559 = DIRECTION('',(0.,0.,1.));
#560 = DIRECTION('',(1.,0.,0.));
#561 = PLANE('',#562);
#562 = AXIS2_PLACEMENT_3D('',#563,#564,#565);
#563 = CARTESIAN_POINT('',(0.,0.,1.19E+03));
#564 = DIRECTION('',(0.,0.,1.));
#565 = DIRECTION('',(1.,0.,0.));
#566 = ADVANCED_FACE('',(#567,#570),#581,.F.);
#567 = FACE_BOUND('',#568,.F.);
#568 = EDGE_LOOP('',(#569));
#569 = ORIENTED_EDGE('',*,*,#534,.T.);
#570 = FACE_BOUND('',#571,.F.);
#571 = EDGE_LOOP('',(#572));
#572 = ORIENTED_EDGE('',*,*,#573,.F.);
#573 = EDGE_CURVE('',#574,#574,#576,.T.);
#574 = VERTEX_POINT('',#575);
#575 = CARTESIAN_POINT('',(157.5,-3.857637417314E-14,1.18E+03));
#576 = CIRCLE('',#577,157.5);
#577 = AXIS2_PLACEMENT_3D('',#578,#579,#580);
#578 = CARTESIAN_POINT('',(0.,0.,1.18E+03));
#579 = DIRECTION('',(0.,0.,1.));
#580 = DIRECTION('',(1.,0.,0.));
#581 = PLANE('',#582);
#582 = AXIS2_PLACEMENT_3D('',#583,#584,#585);
#583 = CARTESIAN_POINT('',(0.,0.,1.18E+03));
#584 = DIRECTION('',(0.,0.,1.));
#585 = DIRECTION('',(1.,0.,0.));
#586 = ADVANCED_FACE('',(#587),#598,.F.);
#587 = FACE_BOUND('',#588,.F.);
#588 = EDGE_LOOP('',(#589,#590,#596,#597));
#589 = ORIENTED_EDGE('',*,*,#553,.F.);
#590 = ORIENTED_EDGE('',*,*,#591,.F.);
#591 = EDGE_CURVE('',#574,#554,#592,.T.);
#592 = LINE('',#593,#594);
#593 = CARTESIAN_POINT('',(157.5,-3.857637417314E-14,1.18E+03));
#594 = VECTOR('',#595,1.);
#595 = DIRECTION('',(0.,0.,1.));
#596 = ORIENTED_EDGE('',*,*,#573,.T.);
#597 = ORIENTED_EDGE('',*,*,#591,.T.);
#598 = CYLINDRICAL_SURFACE('',#599,157.5);
#599 = AXIS2_PLACEMENT_3D('',#600,#601,#602);
#600 = CARTESIAN_POINT('',(0.,0.,1.18E+03));
#601 = DIRECTION('',(0.,0.,1.));
#602 = DIRECTION('',(1.,0.,0.));
#603 = MANIFOLD_SOLID_BREP('',#604);
#604 = CLOSED_SHELL('',(#605,#638,#658,#678));
#605 = ADVANCED_FACE('',(#606),#633,.T.);
#606 = FACE_BOUND('',#607,.T.);
#607 = EDGE_LOOP('',(#608,#617,#625,#632));
#608 = ORIENTED_EDGE('',*,*,#609,.F.);
#609 = EDGE_CURVE('',#610,#610,#612,.T.);
#610 = VERTEX_POINT('',#611);
#611 = CARTESIAN_POINT('',(159.5,-3.90662328928E-14,2.215E+03));
#612 = CIRCLE('',#613,159.5);
#613 = AXIS2_PLACEMENT_3D('',#614,#615,#616);
#614 = CARTESIAN_POINT('',(0.,0.,2.215E+03));
#615 = DIRECTION('',(0.,0.,1.));
#616 = DIRECTION('',(1.,0.,0.));
#617 = ORIENTED_EDGE('',*,*,#618,.F.);
#618 = EDGE_CURVE('',#619,#610,#621,.T.);
#619 = VERTEX_POINT('',#620);
#620 = CARTESIAN_POINT('',(159.5,-3.90662328928E-14,2.015E+03));
#621 = LINE('',#622,#623);
#622 = CARTESIAN_POINT('',(159.5,-3.90662328928E-14,2.015E+03));
#623 = VECTOR('',#624,1.);
#624 = DIRECTION('',(0.,0.,1.));
#625 = ORIENTED_EDGE('',*,*,#626,.T.);
#626 = EDGE_CURVE('',#619,#619,#627,.T.);
#627 = CIRCLE('',#628,159.5);
#628 = AXIS2_PLACEMENT_3D('',#629,#630,#631);
#629 = CARTESIAN_POINT('',(0.,0.,2.015E+03));
#630 = DIRECTION('',(0.,0.,1.));
#631 = DIRECTION('',(1.,0.,0.));
#632 = ORIENTED_EDGE('',*,*,#618,.T.);
#633 = CYLINDRICAL_SURFACE('',#634,159.5);
#634 = AXIS2_PLACEMENT_3D('',#635,#636,#637);
#635 = CARTESIAN_POINT('',(0.,0.,2.015E+03));
#636 = DIRECTION('',(0.,0.,1.));
#637 = DIRECTION('',(1.,0.,0.));
#638 = ADVANCED_FACE('',(#639,#642),#653,.T.);
#639 = FACE_BOUND('',#640,.T.);
#640 = EDGE_LOOP('',(#641));
#641 = ORIENTED_EDGE('',*,*,#609,.T.);
#642 = FACE_BOUND('',#643,.T.);
#643 = EDGE_LOOP('',(#644));
#644 = ORIENTED_EDGE('',*,*,#645,.F.);
#645 = EDGE_CURVE('',#646,#646,#648,.T.);
#646 = VERTEX_POINT('',#647);
#647 = CARTESIAN_POINT('',(157.5,-3.857637417314E-14,2.215E+03));
#648 = CIRCLE('',#649,157.5);
#649 = AXIS2_PLACEMENT_3D('',#650,#651,#652);
#650 = CARTESIAN_POINT('',(0.,0.,2.215E+03));
#651 = DIRECTION('',(0.,0.,1.));
#652 = DIRECTION('',(1.,0.,0.));
#653 = PLANE('',#654);
#654 = AXIS2_PLACEMENT_3D('',#655,#656,#657);
#655 = CARTESIAN_POINT('',(0.,0.,2.215E+03));
#656 = DIRECTION('',(0.,0.,1.));
#657 = DIRECTION('',(1.,0.,0.));
#658 = ADVANCED_FACE('',(#659,#662),#673,.F.);
#659 = FACE_BOUND('',#660,.F.);
#660 = EDGE_LOOP('',(#661));
#661 = ORIENTED_EDGE('',*,*,#626,.T.);
#662 = FACE_BOUND('',#663,.F.);
#663 = EDGE_LOOP('',(#664));
#664 = ORIENTED_EDGE('',*,*,#665,.F.);
#665 = EDGE_CURVE('',#666,#666,#668,.T.);
#666 = VERTEX_POINT('',#667);
#667 = CARTESIAN_POINT('',(157.5,-3.857637417314E-14,2.015E+03));
#668 = CIRCLE('',#669,157.5);
#669 = AXIS2_PLACEMENT_3D('',#670,#671,#672);
#670 = CARTESIAN_POINT('',(0.,0.,2.015E+03));
#671 = DIRECTION('',(0.,0.,1.));
#672 = DIRECTION('',(1.,0.,0.));
#673 = PLANE('',#674);
#674 = AXIS2_PLACEMENT_3D('',#675,#676,#677);
#675 = CARTESIAN_POINT('',(0.,0.,2.015E+03));
#676 = DIRECTION('',(0.,0.,1.));
#677 = DIRECTION('',(1.,0.,0.));
#678 = ADVANCED_FACE('',(#679),#690,.F.);
#679 = FACE_BOUND('',#680,.F.);
#680 = EDGE_LOOP('',(#681,#682,#688,#689));
#681 = ORIENTED_EDGE('',*,*,#645,.F.);
#682 = ORIENTED_EDGE('',*,*,#683,.F.);
#683 = EDGE_CURVE('',#666,#646,#684,.T.);
#684 = LINE('',#685,#686);
#685 = CARTESIAN_POINT('',(157.5,-3.857637417314E-14,2.015E+03));
#686 = VECTOR('',#687,1.);
#687 = DIRECTION('',(0.,0.,1.));
#688 = ORIENTED_EDGE('',*,*,#665,.T.);
#689 = ORIENTED_EDGE('',*,*,#683,.T.);
#690 = CYLINDRICAL_SURFACE('',#691,157.5);
#691 = AXIS2_PLACEMENT_3D('',#692,#693,#694);
#692 = CARTESIAN_POINT('',(0.,0.,2.015E+03));
#693 = DIRECTION('',(0.,0.,1.));
#694 = DIRECTION('',(1.,0.,0.));
#695 = ( GEOMETRIC_REPRESENTATION_CONTEXT(3) 
GLOBAL_UNCERTAINTY_ASSIGNED_CONTEXT((#699)) GLOBAL_UNIT_ASSIGNED_CONTEXT
((#696,#697,#698)) REPRESENTATION_CONTEXT('Context #1',
  '3D Context with UNIT and UNCERTAINTY') );
#696 = ( LENGTH_UNIT() NAMED_UNIT(*) SI_UNIT(.MILLI.,.METRE.) );
#697 = ( NAMED_UNIT(*) PLANE_ANGLE_UNIT() SI_UNIT($,.RADIAN.) );
#698 = ( NAMED_UNIT(*) SI_UNIT($,.STERADIAN.) SOLID_ANGLE_UNIT() );
#699 = UNCERTAINTY_MEASURE_WITH_UNIT(LENGTH_MEASURE(1.E-07),#696,
  'distance_accuracy_value','confusion accuracy');
#700 = PRODUCT_RELATED_PRODUCT_CATEGORY('part',$,(#7));
ENDSEC;
END-ISO-10303-21;
