<svg xmlns="http://www.w3.org/2000/svg" width="1120" height="660" viewBox="0 0 1120 660" role="img" aria-labelledby="title desc">
<title id="title">AQI Tower core electrical functions, preliminary</title><desc id="desc">Functional fan supply and independent protective-control path, with separate monitoring. No terminals or ratings; not released for wiring.</desc>
<defs><marker id="arrow" viewBox="0 0 10 10" refX="9" refY="5" markerWidth="7" markerHeight="7" orient="auto-start-reverse"><path d="M0 0 L10 5 L0 10z" fill="#34546d"/></marker></defs>
<rect width="1120" height="660" fill="#f3f6fa"/>
<g font-family="Segoe UI,Arial,sans-serif" fill="#19354b">
<text x="42" y="48" font-size="28" font-weight="700">AQI TOWER / FAN–FILTER CORE</text>
<text x="42" y="78" font-size="17">Electrical functions R00 · 3 October 2026</text>
<rect x="42" y="98" width="1036" height="44" rx="8" fill="#fff0cd"/>
<text x="59" y="126" font-size="17" font-weight="600">PRELIMINARY — NOT A WIRING DRAWING. No component ratings or terminals released.</text>
<g fill="white" stroke="#a8bdca" stroke-width="2">
<rect x="42" y="186" width="190" height="90" rx="12"/><rect x="277" y="186" width="230" height="90" rx="12"/>
<rect x="552" y="186" width="230" height="90" rx="12"/><rect x="827" y="186" width="250" height="90" rx="12"/>
<rect x="42" y="355" width="280" height="95" rx="12"/><rect x="372" y="355" width="410" height="95" rx="12"/>
<rect x="827" y="355" width="250" height="95" rx="12"/>
</g>
<g font-size="17" text-anchor="middle">
<text x="137" y="223">Actual premises</text><text x="137" y="248">supply / UNKNOWN</text>
<text x="392" y="221">Reviewed protection</text><text x="392" y="248">+ lockable isolation</text>
<text x="667" y="221">Reviewed fan switching</text><text x="667" y="248">+ restart prevention</text>
<text x="952" y="221">Exact OEM fan</text><text x="952" y="248">+ compatible speed control</text>
<text x="182" y="392">Local START / STOP / RESET</text><text x="182" y="421">No remote start</text>
<text x="577" y="383">Independent protective functions</text><text x="577" y="409">Access / OEM protection / stop as assessed</text><text x="577" y="434">Architecture still requires qualified review</text>
<text x="952" y="392">Separate isolated monitoring</text><text x="952" y="421">Sensors → laptop → records</text>
</g>
<g fill="none" stroke="#34546d" stroke-width="3" marker-end="url(#arrow)">
<path d="M232 231H277"/><path d="M507 231H552"/><path d="M782 231H827"/>
<path d="M322 402H372"/><path d="M667 355V276"/>
</g>
<rect x="42" y="486" width="1036" height="118" rx="12" fill="#e1edf2"/>
<text x="62" y="518" font-size="18" font-weight="700">Service access: STOP ≠ isolation ≠ safe access</text>
<text x="62" y="548" font-size="17">Lock off identified supplies, verify isolation and account for fan run-down before work.</text>
<text x="62" y="578" font-size="17">PE is never switched/fused. Monitoring has no safety-control authority. Ratings / terminals: UNKNOWN.</text>
<text x="42" y="636" font-size="15">Functional arrows only, not conductors. Fan selection, E01–E06 release and physical commissioning remain open.</text>
</g></svg>
