0
SECTION
2
HEADER
9
$INSUNITS
70
4
0
ENDSEC
0
SECTION
2
ENTITIES
0
LINE
8
OUTLINE
10
0
20
0
30
0
11
532
21
0
31
0
0
LINE
8
OUTLINE
10
532
20
0
30
0
11
532
21
542
31
0
0
LINE
8
OUTLINE
10
532
20
542
30
0
11
0
21
542
31
0
0
LINE
8
OUTLINE
10
0
20
542
30
0
11
0
21
0
31
0
0
LINE
8
OUTLINE
10
31
20
41
30
0
11
501
21
41
31
0
0
LINE
8
OUTLINE
10
501
20
41
30
0
11
501
21
511
31
0
0
LINE
8
OUTLINE
10
501
20
511
30
0
11
31
21
511
31
0
0
LINE
8
OUTLINE
10
31
20
511
30
0
11
31
21
41
31
0
0
CIRCLE
8
CUT
10
11
20
26
30
0
40
2.75
0
CIRCLE
8
CUT
10
11
20
276
30
0
40
2.75
0
CIRCLE
8
CUT
10
11
20
526
30
0
40
2.75
0
CIRCLE
8
CUT
10
521
20
26
30
0
40
2.75
0
CIRCLE
8
CUT
10
521
20
276
30
0
40
2.75
0
CIRCLE
8
CUT
10
521
20
526
30
0
40
2.75
0
CIRCLE
8
CUT
10
266
20
21
30
0
40
2.75
0
CIRCLE
8
CUT
10
266
20
531
30
0
40
2.75
0
ENDSEC
0
EOF
