0
SECTION
2
HEADER
9
$INSUNITS
70
4
0
ENDSEC
0
SECTION
2
ENTITIES
0
LINE
8
OUTLINE
10
0
20
0
30
0
11
550
21
0
31
0
0
LINE
8
OUTLINE
10
550
20
0
30
0
11
550
21
550
31
0
0
LINE
8
OUTLINE
10
550
20
550
30
0
11
0
21
550
31
0
0
LINE
8
OUTLINE
10
0
20
550
30
0
11
0
21
0
31
0
0
LINE
8
OUTLINE
10
37.5
20
37.5
30
0
11
512.5
21
37.5
31
0
0
LINE
8
OUTLINE
10
512.5
20
37.5
30
0
11
512.5
21
512.5
31
0
0
LINE
8
OUTLINE
10
512.5
20
512.5
30
0
11
37.5
21
512.5
31
0
0
LINE
8
OUTLINE
10
37.5
20
512.5
30
0
11
37.5
21
37.5
31
0
0
CIRCLE
8
CUT
10
20
20
25
30
0
40
2.75
0
CIRCLE
8
CUT
10
20
20
275
30
0
40
2.75
0
CIRCLE
8
CUT
10
20
20
525
30
0
40
2.75
0
CIRCLE
8
CUT
10
530
20
25
30
0
40
2.75
0
CIRCLE
8
CUT
10
530
20
275
30
0
40
2.75
0
CIRCLE
8
CUT
10
530
20
525
30
0
40
2.75
0
CIRCLE
8
CUT
10
275
20
20
30
0
40
2.75
0
CIRCLE
8
CUT
10
275
20
530
30
0
40
2.75
0
ENDSEC
0
EOF
