0
SECTION
2
HEADER
9
$INSUNITS
70
4
0
ENDSEC
0
SECTION
2
ENTITIES
0
LINE
8
CAD_FACE
10
0.0
20
0.0
30
0
11
550.0
21
0.0
31
0
0
LINE
8
CAD_FACE
10
550.0
20
0.0
30
0
11
550.0
21
550.0
31
0
0
LINE
8
CAD_FACE
10
0.0
20
0.0
30
0
11
0.0
21
550.0
31
0
0
LINE
8
CAD_FACE
10
0.0
20
550.0
30
0
11
550.0
21
550.0
31
0
0
CIRCLE
8
CAD_FACE
10
20.0
20
25.0
30
0
40
2.75
0
CIRCLE
8
CAD_FACE
10
20.0
20
125.0
30
0
40
4.0
0
CIRCLE
8
CAD_FACE
10
80.0
20
120.0
30
0
40
2.25
0
CIRCLE
8
CAD_FACE
10
145.0
20
118.0
30
0
40
2.25
0
CIRCLE
8
CAD_FACE
10
20.0
20
225.0
30
0
40
4.0
0
CIRCLE
8
CAD_FACE
10
20.0
20
275.0
30
0
40
2.75
0
CIRCLE
8
CAD_FACE
10
20.0
20
325.0
30
0
40
4.0
0
CIRCLE
8
CAD_FACE
10
20.0
20
425.0
30
0
40
4.0
0
CIRCLE
8
CAD_FACE
10
80.0
20
430.0
30
0
40
2.25
0
CIRCLE
8
CAD_FACE
10
20.0
20
525.0
30
0
40
2.75
0
CIRCLE
8
CAD_FACE
10
275.0
20
20.0
30
0
40
2.75
0
CIRCLE
8
CAD_FACE
10
405.0
20
118.0
30
0
40
2.25
0
CIRCLE
8
CAD_FACE
10
530.0
20
25.0
30
0
40
2.75
0
CIRCLE
8
CAD_FACE
10
470.0
20
120.0
30
0
40
2.25
0
CIRCLE
8
CAD_FACE
10
530.0
20
125.0
30
0
40
4.0
0
CIRCLE
8
CAD_FACE
10
530.0
20
225.0
30
0
40
4.0
0
LINE
8
CAD_FACE
10
100.0
20
410.0
30
0
11
450.0
21
410.0
31
0
0
LINE
8
CAD_FACE
10
100.0
20
410.0
30
0
11
100.0
21
140.0
31
0
0
LINE
8
CAD_FACE
10
450.0
20
410.0
30
0
11
450.0
21
140.0
31
0
0
LINE
8
CAD_FACE
10
100.0
20
140.0
30
0
11
450.0
21
140.0
31
0
0
CIRCLE
8
CAD_FACE
10
275.0
20
530.0
30
0
40
2.75
0
CIRCLE
8
CAD_FACE
10
530.0
20
275.0
30
0
40
2.75
0
CIRCLE
8
CAD_FACE
10
530.0
20
325.0
30
0
40
4.0
0
CIRCLE
8
CAD_FACE
10
470.0
20
430.0
30
0
40
2.25
0
CIRCLE
8
CAD_FACE
10
530.0
20
425.0
30
0
40
4.0
0
CIRCLE
8
CAD_FACE
10
530.0
20
525.0
30
0
40
2.75
0
ENDSEC
0
EOF
