0
SECTION
2
HEADER
9
$INSUNITS
70
4
0
ENDSEC
0
SECTION
2
ENTITIES
0
LINE
8
CAD_FACE
10
0.0
20
0.0
30
0
11
410.0
21
0.0
31
0
0
LINE
8
CAD_FACE
10
410.0
20
0.0
30
0
11
410.0
21
330.0
31
0
0
LINE
8
CAD_FACE
10
0.0
20
0.0
30
0
11
0.0
21
330.0
31
0
0
LINE
8
CAD_FACE
10
0.0
20
330.0
30
0
11
410.0
21
330.0
31
0
0
CIRCLE
8
CAD_FACE
10
10.0
20
10.0
30
0
40
2.25
0
CIRCLE
8
CAD_FACE
10
10.0
20
320.0
30
0
40
2.25
0
LINE
8
CAD_FACE
10
30.0
20
300.0
30
0
11
380.0
21
300.0
31
0
0
LINE
8
CAD_FACE
10
30.0
20
300.0
30
0
11
30.0
21
30.0
31
0
0
LINE
8
CAD_FACE
10
380.0
20
300.0
30
0
11
380.0
21
30.0
31
0
0
LINE
8
CAD_FACE
10
30.0
20
30.0
30
0
11
380.0
21
30.0
31
0
0
CIRCLE
8
CAD_FACE
10
400.0
20
10.0
30
0
40
2.25
0
CIRCLE
8
CAD_FACE
10
400.0
20
320.0
30
0
40
2.25
0
ENDSEC
0
EOF
