0
SECTION
2
HEADER
9
$INSUNITS
70
4
0
ENDSEC
0
SECTION
2
ENTITIES
0
LINE
8
CAD_FACE
10
0.0
20
0.0
30
0
11
0.0
21
360.0
31
0
0
LINE
8
CAD_FACE
10
0.0
20
360.0
30
0
11
550.0
21
360.0
31
0
0
LINE
8
CAD_FACE
10
0.0
20
0.0
30
0
11
550.0
21
0.0
31
0
0
LINE
8
CAD_FACE
10
550.0
20
0.0
30
0
11
550.0
21
360.0
31
0
0
CIRCLE
8
CAD_FACE
10
19.0
20
19.0
30
0
40
2.25
0
CIRCLE
8
CAD_FACE
10
40.0
20
30.0
30
0
40
2.25
0
CIRCLE
8
CAD_FACE
10
531.0
20
19.0
30
0
40
2.25
0
CIRCLE
8
CAD_FACE
10
510.0
20
30.0
30
0
40
2.25
0
CIRCLE
8
CAD_FACE
10
40.0
20
330.0
30
0
40
2.25
0
CIRCLE
8
CAD_FACE
10
19.0
20
341.0
30
0
40
2.25
0
CIRCLE
8
CAD_FACE
10
510.0
20
330.0
30
0
40
2.25
0
CIRCLE
8
CAD_FACE
10
531.0
20
341.0
30
0
40
2.25
0
ENDSEC
0
EOF
