0
SECTION
2
HEADER
9
$INSUNITS
70
4
0
ENDSEC
0
SECTION
2
ENTITIES
0
LINE
8
CAD_FACE
10
0.0
20
0.0
30
0
11
532.0
21
0.0
31
0
0
LINE
8
CAD_FACE
10
532.0
20
0.0
30
0
11
532.0
21
542.0
31
0
0
LINE
8
CAD_FACE
10
0.0
20
0.0
30
0
11
0.0
21
542.0
31
0
0
LINE
8
CAD_FACE
10
0.0
20
542.0
30
0
11
532.0
21
542.0
31
0
0
CIRCLE
8
CAD_FACE
10
11.0
20
26.0
30
0
40
2.75
0
CIRCLE
8
CAD_FACE
10
66.0
20
8.0
30
0
40
2.25
0
CIRCLE
8
CAD_FACE
10
11.0
20
126.0
30
0
40
2.25
0
CIRCLE
8
CAD_FACE
10
11.0
20
226.0
30
0
40
2.25
0
CIRCLE
8
CAD_FACE
10
206.0
20
8.0
30
0
40
2.25
0
CIRCLE
8
CAD_FACE
10
11.0
20
276.0
30
0
40
2.75
0
CIRCLE
8
CAD_FACE
10
11.0
20
326.0
30
0
40
2.25
0
CIRCLE
8
CAD_FACE
10
11.0
20
426.0
30
0
40
2.25
0
CIRCLE
8
CAD_FACE
10
11.0
20
526.0
30
0
40
2.75
0
CIRCLE
8
CAD_FACE
10
266.0
20
21.0
30
0
40
2.75
0
CIRCLE
8
CAD_FACE
10
326.0
20
8.0
30
0
40
2.25
0
CIRCLE
8
CAD_FACE
10
466.0
20
8.0
30
0
40
2.25
0
CIRCLE
8
CAD_FACE
10
521.0
20
26.0
30
0
40
2.75
0
CIRCLE
8
CAD_FACE
10
521.0
20
126.0
30
0
40
2.25
0
CIRCLE
8
CAD_FACE
10
521.0
20
226.0
30
0
40
2.25
0
LINE
8
CAD_FACE
10
31.0
20
511.0
30
0
11
501.0
21
511.0
31
0
0
LINE
8
CAD_FACE
10
31.0
20
511.0
30
0
11
31.0
21
41.0
31
0
0
LINE
8
CAD_FACE
10
501.0
20
511.0
30
0
11
501.0
21
41.0
31
0
0
LINE
8
CAD_FACE
10
31.0
20
41.0
30
0
11
501.0
21
41.0
31
0
0
CIRCLE
8
CAD_FACE
10
266.0
20
531.0
30
0
40
2.75
0
CIRCLE
8
CAD_FACE
10
521.0
20
276.0
30
0
40
2.75
0
CIRCLE
8
CAD_FACE
10
521.0
20
326.0
30
0
40
2.25
0
CIRCLE
8
CAD_FACE
10
521.0
20
426.0
30
0
40
2.25
0
CIRCLE
8
CAD_FACE
10
521.0
20
526.0
30
0
40
2.75
0
ENDSEC
0
EOF
