0
SECTION
2
HEADER
9
$INSUNITS
70
4
0
ENDSEC
0
SECTION
2
ENTITIES
0
LINE
8
CAD_FACE
10
0.0
20
0.0
30
0
11
0.0
21
360.0
31
0
0
LINE
8
CAD_FACE
10
0.0
20
360.0
30
0
11
550.0
21
360.0
31
0
0
LINE
8
CAD_FACE
10
0.0
20
0.0
30
0
11
550.0
21
0.0
31
0
0
LINE
8
CAD_FACE
10
550.0
20
0.0
30
0
11
550.0
21
360.0
31
0
0
CIRCLE
8
CAD_FACE
10
19.0
20
19.0
30
0
40
2.25
0
CIRCLE
8
CAD_FACE
10
137.5
20
42.5
30
0
40
2.25
0
CIRCLE
8
CAD_FACE
10
105.0
20
60.0
30
0
40
2.25
0
CIRCLE
8
CAD_FACE
10
262.5
20
42.5
30
0
40
2.25
0
CIRCLE
8
CAD_FACE
10
105.0
20
120.0
30
0
40
2.25
0
CIRCLE
8
CAD_FACE
10
137.5
20
167.5
30
0
40
2.25
0
CIRCLE
8
CAD_FACE
10
200.0
20
105.0
30
0
40
67.1
0
CIRCLE
8
CAD_FACE
10
262.5
20
167.5
30
0
40
2.25
0
CIRCLE
8
CAD_FACE
10
287.5
20
42.5
30
0
40
2.25
0
CIRCLE
8
CAD_FACE
10
412.5
20
42.5
30
0
40
2.25
0
CIRCLE
8
CAD_FACE
10
531.0
20
19.0
30
0
40
2.25
0
CIRCLE
8
CAD_FACE
10
445.0
20
60.0
30
0
40
2.25
0
CIRCLE
8
CAD_FACE
10
350.0
20
105.0
30
0
40
67.1
0
CIRCLE
8
CAD_FACE
10
287.5
20
167.5
30
0
40
2.25
0
CIRCLE
8
CAD_FACE
10
445.0
20
120.0
30
0
40
2.25
0
CIRCLE
8
CAD_FACE
10
412.5
20
167.5
30
0
40
2.25
0
CIRCLE
8
CAD_FACE
10
137.5
20
192.5
30
0
40
2.25
0
CIRCLE
8
CAD_FACE
10
105.0
20
240.0
30
0
40
2.25
0
CIRCLE
8
CAD_FACE
10
262.5
20
192.5
30
0
40
2.25
0
CIRCLE
8
CAD_FACE
10
200.0
20
255.0
30
0
40
67.1
0
CIRCLE
8
CAD_FACE
10
105.0
20
300.0
30
0
40
2.25
0
CIRCLE
8
CAD_FACE
10
19.0
20
341.0
30
0
40
2.25
0
CIRCLE
8
CAD_FACE
10
137.5
20
317.5
30
0
40
2.25
0
CIRCLE
8
CAD_FACE
10
262.5
20
317.5
30
0
40
2.25
0
CIRCLE
8
CAD_FACE
10
287.5
20
192.5
30
0
40
2.25
0
CIRCLE
8
CAD_FACE
10
350.0
20
255.0
30
0
40
67.1
0
CIRCLE
8
CAD_FACE
10
412.5
20
192.5
30
0
40
2.25
0
CIRCLE
8
CAD_FACE
10
445.0
20
240.0
30
0
40
2.25
0
CIRCLE
8
CAD_FACE
10
287.5
20
317.5
30
0
40
2.25
0
CIRCLE
8
CAD_FACE
10
445.0
20
300.0
30
0
40
2.25
0
CIRCLE
8
CAD_FACE
10
412.5
20
317.5
30
0
40
2.25
0
CIRCLE
8
CAD_FACE
10
531.0
20
341.0
30
0
40
2.25
0
ENDSEC
0
EOF
