0
SECTION
2
HEADER
9
$INSUNITS
70
4
0
ENDSEC
0
SECTION
2
ENTITIES
0
LINE
8
OUTLINE
10
0
20
0
30
0
11
550
21
0
31
0
0
LINE
8
OUTLINE
10
550
20
0
30
0
11
550
21
550
31
0
0
LINE
8
OUTLINE
10
550
20
550
30
0
11
0
21
550
31
0
0
LINE
8
OUTLINE
10
0
20
550
30
0
11
0
21
0
31
0
0
LINE
8
OUTLINE
10
100
20
140
30
0
11
450
21
140
31
0
0
LINE
8
OUTLINE
10
450
20
140
30
0
11
450
21
410
31
0
0
LINE
8
OUTLINE
10
450
20
410
30
0
11
100
21
410
31
0
0
LINE
8
OUTLINE
10
100
20
410
30
0
11
100
21
140
31
0
0
CIRCLE
8
DRILL
10
20
20
25
30
0
40
2.75
0
CIRCLE
8
DRILL
10
20
20
275
30
0
40
2.75
0
CIRCLE
8
DRILL
10
20
20
525
30
0
40
2.75
0
CIRCLE
8
DRILL
10
530
20
25
30
0
40
2.75
0
CIRCLE
8
DRILL
10
530
20
275
30
0
40
2.75
0
CIRCLE
8
DRILL
10
530
20
525
30
0
40
2.75
0
CIRCLE
8
DRILL
10
275
20
20
30
0
40
2.75
0
CIRCLE
8
DRILL
10
275
20
530
30
0
40
2.75
0
CIRCLE
8
DRILL
10
80
20
120
30
0
40
2.25
0
CIRCLE
8
DRILL
10
80
20
430
30
0
40
2.25
0
CIRCLE
8
DRILL
10
470
20
120
30
0
40
2.25
0
CIRCLE
8
DRILL
10
470
20
430
30
0
40
2.25
0
CIRCLE
8
DRILL
10
145
20
118
30
0
40
2.25
0
CIRCLE
8
DRILL
10
405
20
118
30
0
40
2.25
0
CIRCLE
8
DRILL
10
20
20
125
30
0
40
4
0
CIRCLE
8
DRILL
10
20
20
225
30
0
40
4
0
CIRCLE
8
DRILL
10
20
20
325
30
0
40
4
0
CIRCLE
8
DRILL
10
20
20
425
30
0
40
4
0
CIRCLE
8
DRILL
10
530
20
125
30
0
40
4
0
CIRCLE
8
DRILL
10
530
20
225
30
0
40
4
0
CIRCLE
8
DRILL
10
530
20
325
30
0
40
4
0
CIRCLE
8
DRILL
10
530
20
425
30
0
40
4
0
ENDSEC
0
EOF
