0
SECTION
2
HEADER
9
$INSUNITS
70
4
0
ENDSEC
0
SECTION
2
ENTITIES
0
LINE
8
OUTLINE
10
0
20
0
30
0
11
410
21
0
31
0
0
LINE
8
OUTLINE
10
410
20
0
30
0
11
410
21
330
31
0
0
LINE
8
OUTLINE
10
410
20
330
30
0
11
0
21
330
31
0
0
LINE
8
OUTLINE
10
0
20
330
30
0
11
0
21
0
31
0
0
LINE
8
OUTLINE
10
30
20
30
30
0
11
380
21
30
31
0
0
LINE
8
OUTLINE
10
380
20
30
30
0
11
380
21
300
31
0
0
LINE
8
OUTLINE
10
380
20
300
30
0
11
30
21
300
31
0
0
LINE
8
OUTLINE
10
30
20
300
30
0
11
30
21
30
31
0
0
CIRCLE
8
DRILL
10
10
20
10
30
0
40
2.25
0
CIRCLE
8
DRILL
10
10
20
320
30
0
40
2.25
0
CIRCLE
8
DRILL
10
400
20
10
30
0
40
2.25
0
CIRCLE
8
DRILL
10
400
20
320
30
0
40
2.25
0
ENDSEC
0
EOF
